%TF.GenerationSoftware,KiCad,Pcbnew,(5.1.6)-1*%
%TF.CreationDate,2020-08-31T13:11:39-04:00*%
%TF.ProjectId,F100_B200_Test_Bop_V2,46313030-5f42-4323-9030-5f546573745f,rev?*%
%TF.SameCoordinates,Original*%
%TF.FileFunction,Legend,Top*%
%TF.FilePolarity,Positive*%
%FSLAX46Y46*%
G04 Gerber Fmt 4.6, Leading zero omitted, Abs format (unit mm)*
G04 Created by KiCad (PCBNEW (5.1.6)-1) date 2020-08-31 13:11:39*
%MOMM*%
%LPD*%
G01*
G04 APERTURE LIST*
%ADD10C,0.150000*%
%ADD11C,0.127000*%
%ADD12C,0.120000*%
%ADD13C,0.200000*%
%ADD14C,0.010000*%
%ADD15C,0.100000*%
%ADD16C,0.015000*%
G04 APERTURE END LIST*
D10*
X102560380Y-56395809D02*
X101560380Y-56395809D01*
X101560380Y-56157714D01*
X101608000Y-56014857D01*
X101703238Y-55919619D01*
X101798476Y-55872000D01*
X101988952Y-55824380D01*
X102131809Y-55824380D01*
X102322285Y-55872000D01*
X102417523Y-55919619D01*
X102512761Y-56014857D01*
X102560380Y-56157714D01*
X102560380Y-56395809D01*
X102560380Y-55395809D02*
X101560380Y-55395809D01*
X101560380Y-54729142D02*
X101560380Y-54538666D01*
X101608000Y-54443428D01*
X101703238Y-54348190D01*
X101893714Y-54300571D01*
X102227047Y-54300571D01*
X102417523Y-54348190D01*
X102512761Y-54443428D01*
X102560380Y-54538666D01*
X102560380Y-54729142D01*
X102512761Y-54824380D01*
X102417523Y-54919619D01*
X102227047Y-54967238D01*
X101893714Y-54967238D01*
X101703238Y-54919619D01*
X101608000Y-54824380D01*
X101560380Y-54729142D01*
X105005142Y-55967238D02*
X105052761Y-56014857D01*
X105100380Y-56157714D01*
X105100380Y-56252952D01*
X105052761Y-56395809D01*
X104957523Y-56491047D01*
X104862285Y-56538666D01*
X104671809Y-56586285D01*
X104528952Y-56586285D01*
X104338476Y-56538666D01*
X104243238Y-56491047D01*
X104148000Y-56395809D01*
X104100380Y-56252952D01*
X104100380Y-56157714D01*
X104148000Y-56014857D01*
X104195619Y-55967238D01*
X105100380Y-55062476D02*
X105100380Y-55538666D01*
X104100380Y-55538666D01*
X105100380Y-54729142D02*
X104100380Y-54729142D01*
X105100380Y-54157714D02*
X104528952Y-54586285D01*
X104100380Y-54157714D02*
X104671809Y-54729142D01*
X107338761Y-56538666D02*
X107386380Y-56395809D01*
X107386380Y-56157714D01*
X107338761Y-56062476D01*
X107291142Y-56014857D01*
X107195904Y-55967238D01*
X107100666Y-55967238D01*
X107005428Y-56014857D01*
X106957809Y-56062476D01*
X106910190Y-56157714D01*
X106862571Y-56348190D01*
X106814952Y-56443428D01*
X106767333Y-56491047D01*
X106672095Y-56538666D01*
X106576857Y-56538666D01*
X106481619Y-56491047D01*
X106434000Y-56443428D01*
X106386380Y-56348190D01*
X106386380Y-56110095D01*
X106434000Y-55967238D01*
X106386380Y-55681523D02*
X106386380Y-55110095D01*
X107386380Y-55395809D02*
X106386380Y-55395809D01*
X106862571Y-54443428D02*
X106910190Y-54300571D01*
X106957809Y-54252952D01*
X107053047Y-54205333D01*
X107195904Y-54205333D01*
X107291142Y-54252952D01*
X107338761Y-54300571D01*
X107386380Y-54395809D01*
X107386380Y-54776761D01*
X106386380Y-54776761D01*
X106386380Y-54443428D01*
X106434000Y-54348190D01*
X106481619Y-54300571D01*
X106576857Y-54252952D01*
X106672095Y-54252952D01*
X106767333Y-54300571D01*
X106814952Y-54348190D01*
X106862571Y-54443428D01*
X106862571Y-54776761D01*
X111974380Y-56610095D02*
X111974380Y-55991047D01*
X112355333Y-56324380D01*
X112355333Y-56181523D01*
X112402952Y-56086285D01*
X112450571Y-56038666D01*
X112545809Y-55991047D01*
X112783904Y-55991047D01*
X112879142Y-56038666D01*
X112926761Y-56086285D01*
X112974380Y-56181523D01*
X112974380Y-56467238D01*
X112926761Y-56562476D01*
X112879142Y-56610095D01*
X111974380Y-55705333D02*
X112974380Y-55372000D01*
X111974380Y-55038666D01*
X111974380Y-54800571D02*
X111974380Y-54181523D01*
X112355333Y-54514857D01*
X112355333Y-54372000D01*
X112402952Y-54276761D01*
X112450571Y-54229142D01*
X112545809Y-54181523D01*
X112783904Y-54181523D01*
X112879142Y-54229142D01*
X112926761Y-54276761D01*
X112974380Y-54372000D01*
X112974380Y-54657714D01*
X112926761Y-54752952D01*
X112879142Y-54800571D01*
X109228000Y-56133904D02*
X109180380Y-56229142D01*
X109180380Y-56372000D01*
X109228000Y-56514857D01*
X109323238Y-56610095D01*
X109418476Y-56657714D01*
X109608952Y-56705333D01*
X109751809Y-56705333D01*
X109942285Y-56657714D01*
X110037523Y-56610095D01*
X110132761Y-56514857D01*
X110180380Y-56372000D01*
X110180380Y-56276761D01*
X110132761Y-56133904D01*
X110085142Y-56086285D01*
X109751809Y-56086285D01*
X109751809Y-56276761D01*
X110180380Y-55657714D02*
X109180380Y-55657714D01*
X110180380Y-55086285D01*
X109180380Y-55086285D01*
X110180380Y-54610095D02*
X109180380Y-54610095D01*
X109180380Y-54372000D01*
X109228000Y-54229142D01*
X109323238Y-54133904D01*
X109418476Y-54086285D01*
X109608952Y-54038666D01*
X109751809Y-54038666D01*
X109942285Y-54086285D01*
X110037523Y-54133904D01*
X110132761Y-54229142D01*
X110180380Y-54372000D01*
X110180380Y-54610095D01*
X125944380Y-74644095D02*
X125944380Y-74072666D01*
X126944380Y-74358380D02*
X125944380Y-74358380D01*
X125944380Y-73834571D02*
X126944380Y-73167904D01*
X125944380Y-73167904D02*
X126944380Y-73834571D01*
X125944380Y-72596476D02*
X125944380Y-72501238D01*
X125992000Y-72406000D01*
X126039619Y-72358380D01*
X126134857Y-72310761D01*
X126325333Y-72263142D01*
X126563428Y-72263142D01*
X126753904Y-72310761D01*
X126849142Y-72358380D01*
X126896761Y-72406000D01*
X126944380Y-72501238D01*
X126944380Y-72596476D01*
X126896761Y-72691714D01*
X126849142Y-72739333D01*
X126753904Y-72786952D01*
X126563428Y-72834571D01*
X126325333Y-72834571D01*
X126134857Y-72786952D01*
X126039619Y-72739333D01*
X125992000Y-72691714D01*
X125944380Y-72596476D01*
X129484380Y-74048857D02*
X129008190Y-74382190D01*
X129484380Y-74620285D02*
X128484380Y-74620285D01*
X128484380Y-74239333D01*
X128532000Y-74144095D01*
X128579619Y-74096476D01*
X128674857Y-74048857D01*
X128817714Y-74048857D01*
X128912952Y-74096476D01*
X128960571Y-74144095D01*
X129008190Y-74239333D01*
X129008190Y-74620285D01*
X128484380Y-73715523D02*
X129484380Y-73048857D01*
X128484380Y-73048857D02*
X129484380Y-73715523D01*
X128484380Y-72477428D02*
X128484380Y-72382190D01*
X128532000Y-72286952D01*
X128579619Y-72239333D01*
X128674857Y-72191714D01*
X128865333Y-72144095D01*
X129103428Y-72144095D01*
X129293904Y-72191714D01*
X129389142Y-72239333D01*
X129436761Y-72286952D01*
X129484380Y-72382190D01*
X129484380Y-72477428D01*
X129436761Y-72572666D01*
X129389142Y-72620285D01*
X129293904Y-72667904D01*
X129103428Y-72715523D01*
X128865333Y-72715523D01*
X128674857Y-72667904D01*
X128579619Y-72620285D01*
X128532000Y-72572666D01*
X128484380Y-72477428D01*
X133310380Y-74898095D02*
X133310380Y-74326666D01*
X134310380Y-74612380D02*
X133310380Y-74612380D01*
X133310380Y-74088571D02*
X134310380Y-73421904D01*
X133310380Y-73421904D02*
X134310380Y-74088571D01*
X133310380Y-73136190D02*
X133310380Y-72517142D01*
X133691333Y-72850476D01*
X133691333Y-72707619D01*
X133738952Y-72612380D01*
X133786571Y-72564761D01*
X133881809Y-72517142D01*
X134119904Y-72517142D01*
X134215142Y-72564761D01*
X134262761Y-72612380D01*
X134310380Y-72707619D01*
X134310380Y-72993333D01*
X134262761Y-73088571D01*
X134215142Y-73136190D01*
X136850380Y-74302857D02*
X136374190Y-74636190D01*
X136850380Y-74874285D02*
X135850380Y-74874285D01*
X135850380Y-74493333D01*
X135898000Y-74398095D01*
X135945619Y-74350476D01*
X136040857Y-74302857D01*
X136183714Y-74302857D01*
X136278952Y-74350476D01*
X136326571Y-74398095D01*
X136374190Y-74493333D01*
X136374190Y-74874285D01*
X135850380Y-73969523D02*
X136850380Y-73302857D01*
X135850380Y-73302857D02*
X136850380Y-73969523D01*
X135850380Y-73017142D02*
X135850380Y-72398095D01*
X136231333Y-72731428D01*
X136231333Y-72588571D01*
X136278952Y-72493333D01*
X136326571Y-72445714D01*
X136421809Y-72398095D01*
X136659904Y-72398095D01*
X136755142Y-72445714D01*
X136802761Y-72493333D01*
X136850380Y-72588571D01*
X136850380Y-72874285D01*
X136802761Y-72969523D01*
X136755142Y-73017142D01*
X138390380Y-74898095D02*
X138390380Y-74326666D01*
X139390380Y-74612380D02*
X138390380Y-74612380D01*
X138390380Y-74088571D02*
X139390380Y-73421904D01*
X138390380Y-73421904D02*
X139390380Y-74088571D01*
X138485619Y-73088571D02*
X138438000Y-73040952D01*
X138390380Y-72945714D01*
X138390380Y-72707619D01*
X138438000Y-72612380D01*
X138485619Y-72564761D01*
X138580857Y-72517142D01*
X138676095Y-72517142D01*
X138818952Y-72564761D01*
X139390380Y-73136190D01*
X139390380Y-72517142D01*
X141930380Y-74556857D02*
X141454190Y-74890190D01*
X141930380Y-75128285D02*
X140930380Y-75128285D01*
X140930380Y-74747333D01*
X140978000Y-74652095D01*
X141025619Y-74604476D01*
X141120857Y-74556857D01*
X141263714Y-74556857D01*
X141358952Y-74604476D01*
X141406571Y-74652095D01*
X141454190Y-74747333D01*
X141454190Y-75128285D01*
X140930380Y-74223523D02*
X141930380Y-73556857D01*
X140930380Y-73556857D02*
X141930380Y-74223523D01*
X141025619Y-73223523D02*
X140978000Y-73175904D01*
X140930380Y-73080666D01*
X140930380Y-72842571D01*
X140978000Y-72747333D01*
X141025619Y-72699714D01*
X141120857Y-72652095D01*
X141216095Y-72652095D01*
X141358952Y-72699714D01*
X141930380Y-73271142D01*
X141930380Y-72652095D01*
X143216380Y-75152095D02*
X143216380Y-74580666D01*
X144216380Y-74866380D02*
X143216380Y-74866380D01*
X143216380Y-74342571D02*
X144216380Y-73675904D01*
X143216380Y-73675904D02*
X144216380Y-74342571D01*
X144216380Y-72771142D02*
X144216380Y-73342571D01*
X144216380Y-73056857D02*
X143216380Y-73056857D01*
X143359238Y-73152095D01*
X143454476Y-73247333D01*
X143502095Y-73342571D01*
X147010380Y-74556857D02*
X146534190Y-74890190D01*
X147010380Y-75128285D02*
X146010380Y-75128285D01*
X146010380Y-74747333D01*
X146058000Y-74652095D01*
X146105619Y-74604476D01*
X146200857Y-74556857D01*
X146343714Y-74556857D01*
X146438952Y-74604476D01*
X146486571Y-74652095D01*
X146534190Y-74747333D01*
X146534190Y-75128285D01*
X146010380Y-74223523D02*
X147010380Y-73556857D01*
X146010380Y-73556857D02*
X147010380Y-74223523D01*
X147010380Y-72652095D02*
X147010380Y-73223523D01*
X147010380Y-72937809D02*
X146010380Y-72937809D01*
X146153238Y-73033047D01*
X146248476Y-73128285D01*
X146296095Y-73223523D01*
X149756761Y-65984285D02*
X149804380Y-65841428D01*
X149804380Y-65603333D01*
X149756761Y-65508095D01*
X149709142Y-65460476D01*
X149613904Y-65412857D01*
X149518666Y-65412857D01*
X149423428Y-65460476D01*
X149375809Y-65508095D01*
X149328190Y-65603333D01*
X149280571Y-65793809D01*
X149232952Y-65889047D01*
X149185333Y-65936666D01*
X149090095Y-65984285D01*
X148994857Y-65984285D01*
X148899619Y-65936666D01*
X148852000Y-65889047D01*
X148804380Y-65793809D01*
X148804380Y-65555714D01*
X148852000Y-65412857D01*
X149804380Y-64984285D02*
X148804380Y-64984285D01*
X148804380Y-64746190D01*
X148852000Y-64603333D01*
X148947238Y-64508095D01*
X149042476Y-64460476D01*
X149232952Y-64412857D01*
X149375809Y-64412857D01*
X149566285Y-64460476D01*
X149661523Y-64508095D01*
X149756761Y-64603333D01*
X149804380Y-64746190D01*
X149804380Y-64984285D01*
X149518666Y-64031904D02*
X149518666Y-63555714D01*
X149804380Y-64127142D02*
X148804380Y-63793809D01*
X149804380Y-63460476D01*
X152296761Y-65960476D02*
X152344380Y-65817619D01*
X152344380Y-65579523D01*
X152296761Y-65484285D01*
X152249142Y-65436666D01*
X152153904Y-65389047D01*
X152058666Y-65389047D01*
X151963428Y-65436666D01*
X151915809Y-65484285D01*
X151868190Y-65579523D01*
X151820571Y-65770000D01*
X151772952Y-65865238D01*
X151725333Y-65912857D01*
X151630095Y-65960476D01*
X151534857Y-65960476D01*
X151439619Y-65912857D01*
X151392000Y-65865238D01*
X151344380Y-65770000D01*
X151344380Y-65531904D01*
X151392000Y-65389047D01*
X152249142Y-64389047D02*
X152296761Y-64436666D01*
X152344380Y-64579523D01*
X152344380Y-64674761D01*
X152296761Y-64817619D01*
X152201523Y-64912857D01*
X152106285Y-64960476D01*
X151915809Y-65008095D01*
X151772952Y-65008095D01*
X151582476Y-64960476D01*
X151487238Y-64912857D01*
X151392000Y-64817619D01*
X151344380Y-64674761D01*
X151344380Y-64579523D01*
X151392000Y-64436666D01*
X151439619Y-64389047D01*
X152344380Y-63484285D02*
X152344380Y-63960476D01*
X151344380Y-63960476D01*
X84224761Y-72532666D02*
X84272380Y-72389809D01*
X84272380Y-72151714D01*
X84224761Y-72056476D01*
X84177142Y-72008857D01*
X84081904Y-71961238D01*
X83986666Y-71961238D01*
X83891428Y-72008857D01*
X83843809Y-72056476D01*
X83796190Y-72151714D01*
X83748571Y-72342190D01*
X83700952Y-72437428D01*
X83653333Y-72485047D01*
X83558095Y-72532666D01*
X83462857Y-72532666D01*
X83367619Y-72485047D01*
X83320000Y-72437428D01*
X83272380Y-72342190D01*
X83272380Y-72104095D01*
X83320000Y-71961238D01*
X84177142Y-70961238D02*
X84224761Y-71008857D01*
X84272380Y-71151714D01*
X84272380Y-71246952D01*
X84224761Y-71389809D01*
X84129523Y-71485047D01*
X84034285Y-71532666D01*
X83843809Y-71580285D01*
X83700952Y-71580285D01*
X83510476Y-71532666D01*
X83415238Y-71485047D01*
X83320000Y-71389809D01*
X83272380Y-71246952D01*
X83272380Y-71151714D01*
X83320000Y-71008857D01*
X83367619Y-70961238D01*
X84272380Y-70056476D02*
X84272380Y-70532666D01*
X83272380Y-70532666D01*
X84272380Y-69199333D02*
X84272380Y-69770761D01*
X84272380Y-69485047D02*
X83272380Y-69485047D01*
X83415238Y-69580285D01*
X83510476Y-69675523D01*
X83558095Y-69770761D01*
X87018761Y-72556476D02*
X87066380Y-72413619D01*
X87066380Y-72175523D01*
X87018761Y-72080285D01*
X86971142Y-72032666D01*
X86875904Y-71985047D01*
X86780666Y-71985047D01*
X86685428Y-72032666D01*
X86637809Y-72080285D01*
X86590190Y-72175523D01*
X86542571Y-72366000D01*
X86494952Y-72461238D01*
X86447333Y-72508857D01*
X86352095Y-72556476D01*
X86256857Y-72556476D01*
X86161619Y-72508857D01*
X86114000Y-72461238D01*
X86066380Y-72366000D01*
X86066380Y-72127904D01*
X86114000Y-71985047D01*
X87066380Y-71556476D02*
X86066380Y-71556476D01*
X86066380Y-71318380D01*
X86114000Y-71175523D01*
X86209238Y-71080285D01*
X86304476Y-71032666D01*
X86494952Y-70985047D01*
X86637809Y-70985047D01*
X86828285Y-71032666D01*
X86923523Y-71080285D01*
X87018761Y-71175523D01*
X87066380Y-71318380D01*
X87066380Y-71556476D01*
X86780666Y-70604095D02*
X86780666Y-70127904D01*
X87066380Y-70699333D02*
X86066380Y-70366000D01*
X87066380Y-70032666D01*
X87066380Y-69175523D02*
X87066380Y-69746952D01*
X87066380Y-69461238D02*
X86066380Y-69461238D01*
X86209238Y-69556476D01*
X86304476Y-69651714D01*
X86352095Y-69746952D01*
X89574666Y-72485047D02*
X89574666Y-72008857D01*
X89860380Y-72580285D02*
X88860380Y-72246952D01*
X89860380Y-71913619D01*
X89860380Y-71008857D02*
X89384190Y-71342190D01*
X89860380Y-71580285D02*
X88860380Y-71580285D01*
X88860380Y-71199333D01*
X88908000Y-71104095D01*
X88955619Y-71056476D01*
X89050857Y-71008857D01*
X89193714Y-71008857D01*
X89288952Y-71056476D01*
X89336571Y-71104095D01*
X89384190Y-71199333D01*
X89384190Y-71580285D01*
X89336571Y-70580285D02*
X89336571Y-70246952D01*
X89860380Y-70104095D02*
X89860380Y-70580285D01*
X88860380Y-70580285D01*
X88860380Y-70104095D01*
X89336571Y-69342190D02*
X89336571Y-69675523D01*
X89860380Y-69675523D02*
X88860380Y-69675523D01*
X88860380Y-69199333D01*
X91194000Y-71119904D02*
X91146380Y-71215142D01*
X91146380Y-71358000D01*
X91194000Y-71500857D01*
X91289238Y-71596095D01*
X91384476Y-71643714D01*
X91574952Y-71691333D01*
X91717809Y-71691333D01*
X91908285Y-71643714D01*
X92003523Y-71596095D01*
X92098761Y-71500857D01*
X92146380Y-71358000D01*
X92146380Y-71262761D01*
X92098761Y-71119904D01*
X92051142Y-71072285D01*
X91717809Y-71072285D01*
X91717809Y-71262761D01*
X92146380Y-70643714D02*
X91146380Y-70643714D01*
X92146380Y-70072285D01*
X91146380Y-70072285D01*
X92146380Y-69596095D02*
X91146380Y-69596095D01*
X91146380Y-69358000D01*
X91194000Y-69215142D01*
X91289238Y-69119904D01*
X91384476Y-69072285D01*
X91574952Y-69024666D01*
X91717809Y-69024666D01*
X91908285Y-69072285D01*
X92003523Y-69119904D01*
X92098761Y-69215142D01*
X92146380Y-69358000D01*
X92146380Y-69596095D01*
X94686380Y-71572285D02*
X93686380Y-71572285D01*
X93686380Y-71334190D01*
X93734000Y-71191333D01*
X93829238Y-71096095D01*
X93924476Y-71048476D01*
X94114952Y-71000857D01*
X94257809Y-71000857D01*
X94448285Y-71048476D01*
X94543523Y-71096095D01*
X94638761Y-71191333D01*
X94686380Y-71334190D01*
X94686380Y-71572285D01*
X94686380Y-70048476D02*
X94686380Y-70619904D01*
X94686380Y-70334190D02*
X93686380Y-70334190D01*
X93829238Y-70429428D01*
X93924476Y-70524666D01*
X93972095Y-70619904D01*
X93686380Y-69715142D02*
X93686380Y-69096095D01*
X94067333Y-69429428D01*
X94067333Y-69286571D01*
X94114952Y-69191333D01*
X94162571Y-69143714D01*
X94257809Y-69096095D01*
X94495904Y-69096095D01*
X94591142Y-69143714D01*
X94638761Y-69191333D01*
X94686380Y-69286571D01*
X94686380Y-69572285D01*
X94638761Y-69667523D01*
X94591142Y-69715142D01*
X97226380Y-71572285D02*
X96226380Y-71572285D01*
X96226380Y-71334190D01*
X96274000Y-71191333D01*
X96369238Y-71096095D01*
X96464476Y-71048476D01*
X96654952Y-71000857D01*
X96797809Y-71000857D01*
X96988285Y-71048476D01*
X97083523Y-71096095D01*
X97178761Y-71191333D01*
X97226380Y-71334190D01*
X97226380Y-71572285D01*
X97226380Y-70048476D02*
X97226380Y-70619904D01*
X97226380Y-70334190D02*
X96226380Y-70334190D01*
X96369238Y-70429428D01*
X96464476Y-70524666D01*
X96512095Y-70619904D01*
X96321619Y-69667523D02*
X96274000Y-69619904D01*
X96226380Y-69524666D01*
X96226380Y-69286571D01*
X96274000Y-69191333D01*
X96321619Y-69143714D01*
X96416857Y-69096095D01*
X96512095Y-69096095D01*
X96654952Y-69143714D01*
X97226380Y-69715142D01*
X97226380Y-69096095D01*
X99766380Y-71572285D02*
X98766380Y-71572285D01*
X98766380Y-71334190D01*
X98814000Y-71191333D01*
X98909238Y-71096095D01*
X99004476Y-71048476D01*
X99194952Y-71000857D01*
X99337809Y-71000857D01*
X99528285Y-71048476D01*
X99623523Y-71096095D01*
X99718761Y-71191333D01*
X99766380Y-71334190D01*
X99766380Y-71572285D01*
X99766380Y-70048476D02*
X99766380Y-70619904D01*
X99766380Y-70334190D02*
X98766380Y-70334190D01*
X98909238Y-70429428D01*
X99004476Y-70524666D01*
X99052095Y-70619904D01*
X99766380Y-69096095D02*
X99766380Y-69667523D01*
X99766380Y-69381809D02*
X98766380Y-69381809D01*
X98909238Y-69477047D01*
X99004476Y-69572285D01*
X99052095Y-69667523D01*
X102560380Y-71572285D02*
X101560380Y-71572285D01*
X101560380Y-71334190D01*
X101608000Y-71191333D01*
X101703238Y-71096095D01*
X101798476Y-71048476D01*
X101988952Y-71000857D01*
X102131809Y-71000857D01*
X102322285Y-71048476D01*
X102417523Y-71096095D01*
X102512761Y-71191333D01*
X102560380Y-71334190D01*
X102560380Y-71572285D01*
X102560380Y-70048476D02*
X102560380Y-70619904D01*
X102560380Y-70334190D02*
X101560380Y-70334190D01*
X101703238Y-70429428D01*
X101798476Y-70524666D01*
X101846095Y-70619904D01*
X101560380Y-69429428D02*
X101560380Y-69334190D01*
X101608000Y-69238952D01*
X101655619Y-69191333D01*
X101750857Y-69143714D01*
X101941333Y-69096095D01*
X102179428Y-69096095D01*
X102369904Y-69143714D01*
X102465142Y-69191333D01*
X102512761Y-69238952D01*
X102560380Y-69334190D01*
X102560380Y-69429428D01*
X102512761Y-69524666D01*
X102465142Y-69572285D01*
X102369904Y-69619904D01*
X102179428Y-69667523D01*
X101941333Y-69667523D01*
X101750857Y-69619904D01*
X101655619Y-69572285D01*
X101608000Y-69524666D01*
X101560380Y-69429428D01*
X105100380Y-70588095D02*
X104100380Y-70588095D01*
X104100380Y-70350000D01*
X104148000Y-70207142D01*
X104243238Y-70111904D01*
X104338476Y-70064285D01*
X104528952Y-70016666D01*
X104671809Y-70016666D01*
X104862285Y-70064285D01*
X104957523Y-70111904D01*
X105052761Y-70207142D01*
X105100380Y-70350000D01*
X105100380Y-70588095D01*
X105100380Y-69540476D02*
X105100380Y-69350000D01*
X105052761Y-69254761D01*
X105005142Y-69207142D01*
X104862285Y-69111904D01*
X104671809Y-69064285D01*
X104290857Y-69064285D01*
X104195619Y-69111904D01*
X104148000Y-69159523D01*
X104100380Y-69254761D01*
X104100380Y-69445238D01*
X104148000Y-69540476D01*
X104195619Y-69588095D01*
X104290857Y-69635714D01*
X104528952Y-69635714D01*
X104624190Y-69588095D01*
X104671809Y-69540476D01*
X104719428Y-69445238D01*
X104719428Y-69254761D01*
X104671809Y-69159523D01*
X104624190Y-69111904D01*
X104528952Y-69064285D01*
X107386380Y-70588095D02*
X106386380Y-70588095D01*
X106386380Y-70350000D01*
X106434000Y-70207142D01*
X106529238Y-70111904D01*
X106624476Y-70064285D01*
X106814952Y-70016666D01*
X106957809Y-70016666D01*
X107148285Y-70064285D01*
X107243523Y-70111904D01*
X107338761Y-70207142D01*
X107386380Y-70350000D01*
X107386380Y-70588095D01*
X106814952Y-69445238D02*
X106767333Y-69540476D01*
X106719714Y-69588095D01*
X106624476Y-69635714D01*
X106576857Y-69635714D01*
X106481619Y-69588095D01*
X106434000Y-69540476D01*
X106386380Y-69445238D01*
X106386380Y-69254761D01*
X106434000Y-69159523D01*
X106481619Y-69111904D01*
X106576857Y-69064285D01*
X106624476Y-69064285D01*
X106719714Y-69111904D01*
X106767333Y-69159523D01*
X106814952Y-69254761D01*
X106814952Y-69445238D01*
X106862571Y-69540476D01*
X106910190Y-69588095D01*
X107005428Y-69635714D01*
X107195904Y-69635714D01*
X107291142Y-69588095D01*
X107338761Y-69540476D01*
X107386380Y-69445238D01*
X107386380Y-69254761D01*
X107338761Y-69159523D01*
X107291142Y-69111904D01*
X107195904Y-69064285D01*
X107005428Y-69064285D01*
X106910190Y-69111904D01*
X106862571Y-69159523D01*
X106814952Y-69254761D01*
X111704380Y-70842095D02*
X110704380Y-70842095D01*
X110704380Y-70604000D01*
X110752000Y-70461142D01*
X110847238Y-70365904D01*
X110942476Y-70318285D01*
X111132952Y-70270666D01*
X111275809Y-70270666D01*
X111466285Y-70318285D01*
X111561523Y-70365904D01*
X111656761Y-70461142D01*
X111704380Y-70604000D01*
X111704380Y-70842095D01*
X110704380Y-69937333D02*
X110704380Y-69270666D01*
X111704380Y-69699238D01*
X114244380Y-70842095D02*
X113244380Y-70842095D01*
X113244380Y-70604000D01*
X113292000Y-70461142D01*
X113387238Y-70365904D01*
X113482476Y-70318285D01*
X113672952Y-70270666D01*
X113815809Y-70270666D01*
X114006285Y-70318285D01*
X114101523Y-70365904D01*
X114196761Y-70461142D01*
X114244380Y-70604000D01*
X114244380Y-70842095D01*
X113244380Y-69413523D02*
X113244380Y-69604000D01*
X113292000Y-69699238D01*
X113339619Y-69746857D01*
X113482476Y-69842095D01*
X113672952Y-69889714D01*
X114053904Y-69889714D01*
X114149142Y-69842095D01*
X114196761Y-69794476D01*
X114244380Y-69699238D01*
X114244380Y-69508761D01*
X114196761Y-69413523D01*
X114149142Y-69365904D01*
X114053904Y-69318285D01*
X113815809Y-69318285D01*
X113720571Y-69365904D01*
X113672952Y-69413523D01*
X113625333Y-69508761D01*
X113625333Y-69699238D01*
X113672952Y-69794476D01*
X113720571Y-69842095D01*
X113815809Y-69889714D01*
X116530380Y-70842095D02*
X115530380Y-70842095D01*
X115530380Y-70604000D01*
X115578000Y-70461142D01*
X115673238Y-70365904D01*
X115768476Y-70318285D01*
X115958952Y-70270666D01*
X116101809Y-70270666D01*
X116292285Y-70318285D01*
X116387523Y-70365904D01*
X116482761Y-70461142D01*
X116530380Y-70604000D01*
X116530380Y-70842095D01*
X115530380Y-69365904D02*
X115530380Y-69842095D01*
X116006571Y-69889714D01*
X115958952Y-69842095D01*
X115911333Y-69746857D01*
X115911333Y-69508761D01*
X115958952Y-69413523D01*
X116006571Y-69365904D01*
X116101809Y-69318285D01*
X116339904Y-69318285D01*
X116435142Y-69365904D01*
X116482761Y-69413523D01*
X116530380Y-69508761D01*
X116530380Y-69746857D01*
X116482761Y-69842095D01*
X116435142Y-69889714D01*
X119070380Y-70842095D02*
X118070380Y-70842095D01*
X118070380Y-70604000D01*
X118118000Y-70461142D01*
X118213238Y-70365904D01*
X118308476Y-70318285D01*
X118498952Y-70270666D01*
X118641809Y-70270666D01*
X118832285Y-70318285D01*
X118927523Y-70365904D01*
X119022761Y-70461142D01*
X119070380Y-70604000D01*
X119070380Y-70842095D01*
X118403714Y-69413523D02*
X119070380Y-69413523D01*
X118022761Y-69651619D02*
X118737047Y-69889714D01*
X118737047Y-69270666D01*
X121610380Y-70842095D02*
X120610380Y-70842095D01*
X120610380Y-70604000D01*
X120658000Y-70461142D01*
X120753238Y-70365904D01*
X120848476Y-70318285D01*
X121038952Y-70270666D01*
X121181809Y-70270666D01*
X121372285Y-70318285D01*
X121467523Y-70365904D01*
X121562761Y-70461142D01*
X121610380Y-70604000D01*
X121610380Y-70842095D01*
X120610380Y-69937333D02*
X120610380Y-69318285D01*
X120991333Y-69651619D01*
X120991333Y-69508761D01*
X121038952Y-69413523D01*
X121086571Y-69365904D01*
X121181809Y-69318285D01*
X121419904Y-69318285D01*
X121515142Y-69365904D01*
X121562761Y-69413523D01*
X121610380Y-69508761D01*
X121610380Y-69794476D01*
X121562761Y-69889714D01*
X121515142Y-69937333D01*
X124404380Y-70842095D02*
X123404380Y-70842095D01*
X123404380Y-70604000D01*
X123452000Y-70461142D01*
X123547238Y-70365904D01*
X123642476Y-70318285D01*
X123832952Y-70270666D01*
X123975809Y-70270666D01*
X124166285Y-70318285D01*
X124261523Y-70365904D01*
X124356761Y-70461142D01*
X124404380Y-70604000D01*
X124404380Y-70842095D01*
X123499619Y-69889714D02*
X123452000Y-69842095D01*
X123404380Y-69746857D01*
X123404380Y-69508761D01*
X123452000Y-69413523D01*
X123499619Y-69365904D01*
X123594857Y-69318285D01*
X123690095Y-69318285D01*
X123832952Y-69365904D01*
X124404380Y-69937333D01*
X124404380Y-69318285D01*
X126944380Y-70842095D02*
X125944380Y-70842095D01*
X125944380Y-70604000D01*
X125992000Y-70461142D01*
X126087238Y-70365904D01*
X126182476Y-70318285D01*
X126372952Y-70270666D01*
X126515809Y-70270666D01*
X126706285Y-70318285D01*
X126801523Y-70365904D01*
X126896761Y-70461142D01*
X126944380Y-70604000D01*
X126944380Y-70842095D01*
X126944380Y-69318285D02*
X126944380Y-69889714D01*
X126944380Y-69604000D02*
X125944380Y-69604000D01*
X126087238Y-69699238D01*
X126182476Y-69794476D01*
X126230095Y-69889714D01*
X129484380Y-70842095D02*
X128484380Y-70842095D01*
X128484380Y-70604000D01*
X128532000Y-70461142D01*
X128627238Y-70365904D01*
X128722476Y-70318285D01*
X128912952Y-70270666D01*
X129055809Y-70270666D01*
X129246285Y-70318285D01*
X129341523Y-70365904D01*
X129436761Y-70461142D01*
X129484380Y-70604000D01*
X129484380Y-70842095D01*
X128484380Y-69651619D02*
X128484380Y-69556380D01*
X128532000Y-69461142D01*
X128579619Y-69413523D01*
X128674857Y-69365904D01*
X128865333Y-69318285D01*
X129103428Y-69318285D01*
X129293904Y-69365904D01*
X129389142Y-69413523D01*
X129436761Y-69461142D01*
X129484380Y-69556380D01*
X129484380Y-69651619D01*
X129436761Y-69746857D01*
X129389142Y-69794476D01*
X129293904Y-69842095D01*
X129103428Y-69889714D01*
X128865333Y-69889714D01*
X128674857Y-69842095D01*
X128579619Y-69794476D01*
X128532000Y-69746857D01*
X128484380Y-69651619D01*
X134310380Y-71318285D02*
X133310380Y-71318285D01*
X133310380Y-71080190D01*
X133358000Y-70937333D01*
X133453238Y-70842095D01*
X133548476Y-70794476D01*
X133738952Y-70746857D01*
X133881809Y-70746857D01*
X134072285Y-70794476D01*
X134167523Y-70842095D01*
X134262761Y-70937333D01*
X134310380Y-71080190D01*
X134310380Y-71318285D01*
X134310380Y-69794476D02*
X134310380Y-70365904D01*
X134310380Y-70080190D02*
X133310380Y-70080190D01*
X133453238Y-70175428D01*
X133548476Y-70270666D01*
X133596095Y-70365904D01*
X133643714Y-68937333D02*
X134310380Y-68937333D01*
X133262761Y-69175428D02*
X133977047Y-69413523D01*
X133977047Y-68794476D01*
X136850380Y-71318285D02*
X135850380Y-71318285D01*
X135850380Y-71080190D01*
X135898000Y-70937333D01*
X135993238Y-70842095D01*
X136088476Y-70794476D01*
X136278952Y-70746857D01*
X136421809Y-70746857D01*
X136612285Y-70794476D01*
X136707523Y-70842095D01*
X136802761Y-70937333D01*
X136850380Y-71080190D01*
X136850380Y-71318285D01*
X136850380Y-69794476D02*
X136850380Y-70365904D01*
X136850380Y-70080190D02*
X135850380Y-70080190D01*
X135993238Y-70175428D01*
X136088476Y-70270666D01*
X136136095Y-70365904D01*
X135850380Y-68889714D02*
X135850380Y-69365904D01*
X136326571Y-69413523D01*
X136278952Y-69365904D01*
X136231333Y-69270666D01*
X136231333Y-69032571D01*
X136278952Y-68937333D01*
X136326571Y-68889714D01*
X136421809Y-68842095D01*
X136659904Y-68842095D01*
X136755142Y-68889714D01*
X136802761Y-68937333D01*
X136850380Y-69032571D01*
X136850380Y-69270666D01*
X136802761Y-69365904D01*
X136755142Y-69413523D01*
X139390380Y-71318285D02*
X138390380Y-71318285D01*
X138390380Y-71080190D01*
X138438000Y-70937333D01*
X138533238Y-70842095D01*
X138628476Y-70794476D01*
X138818952Y-70746857D01*
X138961809Y-70746857D01*
X139152285Y-70794476D01*
X139247523Y-70842095D01*
X139342761Y-70937333D01*
X139390380Y-71080190D01*
X139390380Y-71318285D01*
X139390380Y-69794476D02*
X139390380Y-70365904D01*
X139390380Y-70080190D02*
X138390380Y-70080190D01*
X138533238Y-70175428D01*
X138628476Y-70270666D01*
X138676095Y-70365904D01*
X138390380Y-68937333D02*
X138390380Y-69127809D01*
X138438000Y-69223047D01*
X138485619Y-69270666D01*
X138628476Y-69365904D01*
X138818952Y-69413523D01*
X139199904Y-69413523D01*
X139295142Y-69365904D01*
X139342761Y-69318285D01*
X139390380Y-69223047D01*
X139390380Y-69032571D01*
X139342761Y-68937333D01*
X139295142Y-68889714D01*
X139199904Y-68842095D01*
X138961809Y-68842095D01*
X138866571Y-68889714D01*
X138818952Y-68937333D01*
X138771333Y-69032571D01*
X138771333Y-69223047D01*
X138818952Y-69318285D01*
X138866571Y-69365904D01*
X138961809Y-69413523D01*
X142184380Y-71318285D02*
X141184380Y-71318285D01*
X141184380Y-71080190D01*
X141232000Y-70937333D01*
X141327238Y-70842095D01*
X141422476Y-70794476D01*
X141612952Y-70746857D01*
X141755809Y-70746857D01*
X141946285Y-70794476D01*
X142041523Y-70842095D01*
X142136761Y-70937333D01*
X142184380Y-71080190D01*
X142184380Y-71318285D01*
X142184380Y-69794476D02*
X142184380Y-70365904D01*
X142184380Y-70080190D02*
X141184380Y-70080190D01*
X141327238Y-70175428D01*
X141422476Y-70270666D01*
X141470095Y-70365904D01*
X141184380Y-69461142D02*
X141184380Y-68794476D01*
X142184380Y-69223047D01*
X144470380Y-71318285D02*
X143470380Y-71318285D01*
X143470380Y-71080190D01*
X143518000Y-70937333D01*
X143613238Y-70842095D01*
X143708476Y-70794476D01*
X143898952Y-70746857D01*
X144041809Y-70746857D01*
X144232285Y-70794476D01*
X144327523Y-70842095D01*
X144422761Y-70937333D01*
X144470380Y-71080190D01*
X144470380Y-71318285D01*
X144470380Y-69794476D02*
X144470380Y-70365904D01*
X144470380Y-70080190D02*
X143470380Y-70080190D01*
X143613238Y-70175428D01*
X143708476Y-70270666D01*
X143756095Y-70365904D01*
X143898952Y-69223047D02*
X143851333Y-69318285D01*
X143803714Y-69365904D01*
X143708476Y-69413523D01*
X143660857Y-69413523D01*
X143565619Y-69365904D01*
X143518000Y-69318285D01*
X143470380Y-69223047D01*
X143470380Y-69032571D01*
X143518000Y-68937333D01*
X143565619Y-68889714D01*
X143660857Y-68842095D01*
X143708476Y-68842095D01*
X143803714Y-68889714D01*
X143851333Y-68937333D01*
X143898952Y-69032571D01*
X143898952Y-69223047D01*
X143946571Y-69318285D01*
X143994190Y-69365904D01*
X144089428Y-69413523D01*
X144279904Y-69413523D01*
X144375142Y-69365904D01*
X144422761Y-69318285D01*
X144470380Y-69223047D01*
X144470380Y-69032571D01*
X144422761Y-68937333D01*
X144375142Y-68889714D01*
X144279904Y-68842095D01*
X144089428Y-68842095D01*
X143994190Y-68889714D01*
X143946571Y-68937333D01*
X143898952Y-69032571D01*
X147010380Y-71318285D02*
X146010380Y-71318285D01*
X146010380Y-71080190D01*
X146058000Y-70937333D01*
X146153238Y-70842095D01*
X146248476Y-70794476D01*
X146438952Y-70746857D01*
X146581809Y-70746857D01*
X146772285Y-70794476D01*
X146867523Y-70842095D01*
X146962761Y-70937333D01*
X147010380Y-71080190D01*
X147010380Y-71318285D01*
X147010380Y-69794476D02*
X147010380Y-70365904D01*
X147010380Y-70080190D02*
X146010380Y-70080190D01*
X146153238Y-70175428D01*
X146248476Y-70270666D01*
X146296095Y-70365904D01*
X147010380Y-69318285D02*
X147010380Y-69127809D01*
X146962761Y-69032571D01*
X146915142Y-68984952D01*
X146772285Y-68889714D01*
X146581809Y-68842095D01*
X146200857Y-68842095D01*
X146105619Y-68889714D01*
X146058000Y-68937333D01*
X146010380Y-69032571D01*
X146010380Y-69223047D01*
X146058000Y-69318285D01*
X146105619Y-69365904D01*
X146200857Y-69413523D01*
X146438952Y-69413523D01*
X146534190Y-69365904D01*
X146581809Y-69318285D01*
X146629428Y-69223047D01*
X146629428Y-69032571D01*
X146581809Y-68937333D01*
X146534190Y-68889714D01*
X146438952Y-68842095D01*
X149550380Y-71318285D02*
X148550380Y-71318285D01*
X148550380Y-71080190D01*
X148598000Y-70937333D01*
X148693238Y-70842095D01*
X148788476Y-70794476D01*
X148978952Y-70746857D01*
X149121809Y-70746857D01*
X149312285Y-70794476D01*
X149407523Y-70842095D01*
X149502761Y-70937333D01*
X149550380Y-71080190D01*
X149550380Y-71318285D01*
X148645619Y-70365904D02*
X148598000Y-70318285D01*
X148550380Y-70223047D01*
X148550380Y-69984952D01*
X148598000Y-69889714D01*
X148645619Y-69842095D01*
X148740857Y-69794476D01*
X148836095Y-69794476D01*
X148978952Y-69842095D01*
X149550380Y-70413523D01*
X149550380Y-69794476D01*
X148550380Y-69175428D02*
X148550380Y-69080190D01*
X148598000Y-68984952D01*
X148645619Y-68937333D01*
X148740857Y-68889714D01*
X148931333Y-68842095D01*
X149169428Y-68842095D01*
X149359904Y-68889714D01*
X149455142Y-68937333D01*
X149502761Y-68984952D01*
X149550380Y-69080190D01*
X149550380Y-69175428D01*
X149502761Y-69270666D01*
X149455142Y-69318285D01*
X149359904Y-69365904D01*
X149169428Y-69413523D01*
X148931333Y-69413523D01*
X148740857Y-69365904D01*
X148645619Y-69318285D01*
X148598000Y-69270666D01*
X148550380Y-69175428D01*
X152344380Y-71318285D02*
X151344380Y-71318285D01*
X151344380Y-71080190D01*
X151392000Y-70937333D01*
X151487238Y-70842095D01*
X151582476Y-70794476D01*
X151772952Y-70746857D01*
X151915809Y-70746857D01*
X152106285Y-70794476D01*
X152201523Y-70842095D01*
X152296761Y-70937333D01*
X152344380Y-71080190D01*
X152344380Y-71318285D01*
X151439619Y-70365904D02*
X151392000Y-70318285D01*
X151344380Y-70223047D01*
X151344380Y-69984952D01*
X151392000Y-69889714D01*
X151439619Y-69842095D01*
X151534857Y-69794476D01*
X151630095Y-69794476D01*
X151772952Y-69842095D01*
X152344380Y-70413523D01*
X152344380Y-69794476D01*
X152344380Y-68842095D02*
X152344380Y-69413523D01*
X152344380Y-69127809D02*
X151344380Y-69127809D01*
X151487238Y-69223047D01*
X151582476Y-69318285D01*
X151630095Y-69413523D01*
X157329142Y-113006000D02*
X157376761Y-113053619D01*
X157424380Y-113196476D01*
X157424380Y-113291714D01*
X157376761Y-113434571D01*
X157281523Y-113529809D01*
X157186285Y-113577428D01*
X156995809Y-113625047D01*
X156852952Y-113625047D01*
X156662476Y-113577428D01*
X156567238Y-113529809D01*
X156472000Y-113434571D01*
X156424380Y-113291714D01*
X156424380Y-113196476D01*
X156472000Y-113053619D01*
X156519619Y-113006000D01*
X157138666Y-112625047D02*
X157138666Y-112148857D01*
X157424380Y-112720285D02*
X156424380Y-112386952D01*
X157424380Y-112053619D01*
X157424380Y-111720285D02*
X156424380Y-111720285D01*
X157424380Y-111148857D01*
X156424380Y-111148857D01*
X156424380Y-110815523D02*
X156424380Y-110244095D01*
X157424380Y-110529809D02*
X156424380Y-110529809D01*
X156424380Y-110006000D02*
X157424380Y-109339333D01*
X156424380Y-109339333D02*
X157424380Y-110006000D01*
X154535142Y-113125047D02*
X154582761Y-113172666D01*
X154630380Y-113315523D01*
X154630380Y-113410761D01*
X154582761Y-113553619D01*
X154487523Y-113648857D01*
X154392285Y-113696476D01*
X154201809Y-113744095D01*
X154058952Y-113744095D01*
X153868476Y-113696476D01*
X153773238Y-113648857D01*
X153678000Y-113553619D01*
X153630380Y-113410761D01*
X153630380Y-113315523D01*
X153678000Y-113172666D01*
X153725619Y-113125047D01*
X154344666Y-112744095D02*
X154344666Y-112267904D01*
X154630380Y-112839333D02*
X153630380Y-112506000D01*
X154630380Y-112172666D01*
X154630380Y-111839333D02*
X153630380Y-111839333D01*
X154630380Y-111267904D01*
X153630380Y-111267904D01*
X154630380Y-110220285D02*
X154154190Y-110553619D01*
X154630380Y-110791714D02*
X153630380Y-110791714D01*
X153630380Y-110410761D01*
X153678000Y-110315523D01*
X153725619Y-110267904D01*
X153820857Y-110220285D01*
X153963714Y-110220285D01*
X154058952Y-110267904D01*
X154106571Y-110315523D01*
X154154190Y-110410761D01*
X154154190Y-110791714D01*
X153630380Y-109886952D02*
X154630380Y-109220285D01*
X153630380Y-109220285D02*
X154630380Y-109886952D01*
X152344380Y-113680666D02*
X151344380Y-113680666D01*
X151344380Y-113442571D01*
X151392000Y-113299714D01*
X151487238Y-113204476D01*
X151582476Y-113156857D01*
X151772952Y-113109238D01*
X151915809Y-113109238D01*
X152106285Y-113156857D01*
X152201523Y-113204476D01*
X152296761Y-113299714D01*
X152344380Y-113442571D01*
X152344380Y-113680666D01*
X152058666Y-112728285D02*
X152058666Y-112252095D01*
X152344380Y-112823523D02*
X151344380Y-112490190D01*
X152344380Y-112156857D01*
X152249142Y-111252095D02*
X152296761Y-111299714D01*
X152344380Y-111442571D01*
X152344380Y-111537809D01*
X152296761Y-111680666D01*
X152201523Y-111775904D01*
X152106285Y-111823523D01*
X151915809Y-111871142D01*
X151772952Y-111871142D01*
X151582476Y-111823523D01*
X151487238Y-111775904D01*
X151392000Y-111680666D01*
X151344380Y-111537809D01*
X151344380Y-111442571D01*
X151392000Y-111299714D01*
X151439619Y-111252095D01*
X152344380Y-110299714D02*
X152344380Y-110871142D01*
X152344380Y-110585428D02*
X151344380Y-110585428D01*
X151487238Y-110680666D01*
X151582476Y-110775904D01*
X151630095Y-110871142D01*
X150058380Y-113680666D02*
X149058380Y-113680666D01*
X149058380Y-113442571D01*
X149106000Y-113299714D01*
X149201238Y-113204476D01*
X149296476Y-113156857D01*
X149486952Y-113109238D01*
X149629809Y-113109238D01*
X149820285Y-113156857D01*
X149915523Y-113204476D01*
X150010761Y-113299714D01*
X150058380Y-113442571D01*
X150058380Y-113680666D01*
X149772666Y-112728285D02*
X149772666Y-112252095D01*
X150058380Y-112823523D02*
X149058380Y-112490190D01*
X150058380Y-112156857D01*
X149963142Y-111252095D02*
X150010761Y-111299714D01*
X150058380Y-111442571D01*
X150058380Y-111537809D01*
X150010761Y-111680666D01*
X149915523Y-111775904D01*
X149820285Y-111823523D01*
X149629809Y-111871142D01*
X149486952Y-111871142D01*
X149296476Y-111823523D01*
X149201238Y-111775904D01*
X149106000Y-111680666D01*
X149058380Y-111537809D01*
X149058380Y-111442571D01*
X149106000Y-111299714D01*
X149153619Y-111252095D01*
X149058380Y-110633047D02*
X149058380Y-110537809D01*
X149106000Y-110442571D01*
X149153619Y-110394952D01*
X149248857Y-110347333D01*
X149439333Y-110299714D01*
X149677428Y-110299714D01*
X149867904Y-110347333D01*
X149963142Y-110394952D01*
X150010761Y-110442571D01*
X150058380Y-110537809D01*
X150058380Y-110633047D01*
X150010761Y-110728285D01*
X149963142Y-110775904D01*
X149867904Y-110823523D01*
X149677428Y-110871142D01*
X149439333Y-110871142D01*
X149248857Y-110823523D01*
X149153619Y-110775904D01*
X149106000Y-110728285D01*
X149058380Y-110633047D01*
X146978666Y-113712476D02*
X146978666Y-113236285D01*
X147264380Y-113807714D02*
X146264380Y-113474380D01*
X147264380Y-113141047D01*
X147264380Y-112283904D02*
X147264380Y-112855333D01*
X147264380Y-112569619D02*
X146264380Y-112569619D01*
X146407238Y-112664857D01*
X146502476Y-112760095D01*
X146550095Y-112855333D01*
X147264380Y-111331523D02*
X147264380Y-111902952D01*
X147264380Y-111617238D02*
X146264380Y-111617238D01*
X146407238Y-111712476D01*
X146502476Y-111807714D01*
X146550095Y-111902952D01*
X144438666Y-113458476D02*
X144438666Y-112982285D01*
X144724380Y-113553714D02*
X143724380Y-113220380D01*
X144724380Y-112887047D01*
X144724380Y-112029904D02*
X144724380Y-112601333D01*
X144724380Y-112315619D02*
X143724380Y-112315619D01*
X143867238Y-112410857D01*
X143962476Y-112506095D01*
X144010095Y-112601333D01*
X143724380Y-111410857D02*
X143724380Y-111315619D01*
X143772000Y-111220380D01*
X143819619Y-111172761D01*
X143914857Y-111125142D01*
X144105333Y-111077523D01*
X144343428Y-111077523D01*
X144533904Y-111125142D01*
X144629142Y-111172761D01*
X144676761Y-111220380D01*
X144724380Y-111315619D01*
X144724380Y-111410857D01*
X144676761Y-111506095D01*
X144629142Y-111553714D01*
X144533904Y-111601333D01*
X144343428Y-111648952D01*
X144105333Y-111648952D01*
X143914857Y-111601333D01*
X143819619Y-111553714D01*
X143772000Y-111506095D01*
X143724380Y-111410857D01*
X141644666Y-113490285D02*
X141644666Y-113014095D01*
X141930380Y-113585523D02*
X140930380Y-113252190D01*
X141930380Y-112918857D01*
X141930380Y-112537904D02*
X141930380Y-112347428D01*
X141882761Y-112252190D01*
X141835142Y-112204571D01*
X141692285Y-112109333D01*
X141501809Y-112061714D01*
X141120857Y-112061714D01*
X141025619Y-112109333D01*
X140978000Y-112156952D01*
X140930380Y-112252190D01*
X140930380Y-112442666D01*
X140978000Y-112537904D01*
X141025619Y-112585523D01*
X141120857Y-112633142D01*
X141358952Y-112633142D01*
X141454190Y-112585523D01*
X141501809Y-112537904D01*
X141549428Y-112442666D01*
X141549428Y-112252190D01*
X141501809Y-112156952D01*
X141454190Y-112109333D01*
X141358952Y-112061714D01*
X139104666Y-113490285D02*
X139104666Y-113014095D01*
X139390380Y-113585523D02*
X138390380Y-113252190D01*
X139390380Y-112918857D01*
X138818952Y-112442666D02*
X138771333Y-112537904D01*
X138723714Y-112585523D01*
X138628476Y-112633142D01*
X138580857Y-112633142D01*
X138485619Y-112585523D01*
X138438000Y-112537904D01*
X138390380Y-112442666D01*
X138390380Y-112252190D01*
X138438000Y-112156952D01*
X138485619Y-112109333D01*
X138580857Y-112061714D01*
X138628476Y-112061714D01*
X138723714Y-112109333D01*
X138771333Y-112156952D01*
X138818952Y-112252190D01*
X138818952Y-112442666D01*
X138866571Y-112537904D01*
X138914190Y-112585523D01*
X139009428Y-112633142D01*
X139199904Y-112633142D01*
X139295142Y-112585523D01*
X139342761Y-112537904D01*
X139390380Y-112442666D01*
X139390380Y-112252190D01*
X139342761Y-112156952D01*
X139295142Y-112109333D01*
X139199904Y-112061714D01*
X139009428Y-112061714D01*
X138914190Y-112109333D01*
X138866571Y-112156952D01*
X138818952Y-112252190D01*
X134278666Y-113998285D02*
X134278666Y-113522095D01*
X134564380Y-114093523D02*
X133564380Y-113760190D01*
X134564380Y-113426857D01*
X133564380Y-113188761D02*
X133564380Y-112522095D01*
X134564380Y-112950666D01*
X131738666Y-113998285D02*
X131738666Y-113522095D01*
X132024380Y-114093523D02*
X131024380Y-113760190D01*
X132024380Y-113426857D01*
X131024380Y-112664952D02*
X131024380Y-112855428D01*
X131072000Y-112950666D01*
X131119619Y-112998285D01*
X131262476Y-113093523D01*
X131452952Y-113141142D01*
X131833904Y-113141142D01*
X131929142Y-113093523D01*
X131976761Y-113045904D01*
X132024380Y-112950666D01*
X132024380Y-112760190D01*
X131976761Y-112664952D01*
X131929142Y-112617333D01*
X131833904Y-112569714D01*
X131595809Y-112569714D01*
X131500571Y-112617333D01*
X131452952Y-112664952D01*
X131405333Y-112760190D01*
X131405333Y-112950666D01*
X131452952Y-113045904D01*
X131500571Y-113093523D01*
X131595809Y-113141142D01*
X128944666Y-113236285D02*
X128944666Y-112760095D01*
X129230380Y-113331523D02*
X128230380Y-112998190D01*
X129230380Y-112664857D01*
X128230380Y-111855333D02*
X128230380Y-112331523D01*
X128706571Y-112379142D01*
X128658952Y-112331523D01*
X128611333Y-112236285D01*
X128611333Y-111998190D01*
X128658952Y-111902952D01*
X128706571Y-111855333D01*
X128801809Y-111807714D01*
X129039904Y-111807714D01*
X129135142Y-111855333D01*
X129182761Y-111902952D01*
X129230380Y-111998190D01*
X129230380Y-112236285D01*
X129182761Y-112331523D01*
X129135142Y-112379142D01*
X126658666Y-113236285D02*
X126658666Y-112760095D01*
X126944380Y-113331523D02*
X125944380Y-112998190D01*
X126944380Y-112664857D01*
X126277714Y-111902952D02*
X126944380Y-111902952D01*
X125896761Y-112141047D02*
X126611047Y-112379142D01*
X126611047Y-111760095D01*
X123864666Y-113236285D02*
X123864666Y-112760095D01*
X124150380Y-113331523D02*
X123150380Y-112998190D01*
X124150380Y-112664857D01*
X123150380Y-112426761D02*
X123150380Y-111807714D01*
X123531333Y-112141047D01*
X123531333Y-111998190D01*
X123578952Y-111902952D01*
X123626571Y-111855333D01*
X123721809Y-111807714D01*
X123959904Y-111807714D01*
X124055142Y-111855333D01*
X124102761Y-111902952D01*
X124150380Y-111998190D01*
X124150380Y-112283904D01*
X124102761Y-112379142D01*
X124055142Y-112426761D01*
X121578666Y-113236285D02*
X121578666Y-112760095D01*
X121864380Y-113331523D02*
X120864380Y-112998190D01*
X121864380Y-112664857D01*
X120959619Y-112379142D02*
X120912000Y-112331523D01*
X120864380Y-112236285D01*
X120864380Y-111998190D01*
X120912000Y-111902952D01*
X120959619Y-111855333D01*
X121054857Y-111807714D01*
X121150095Y-111807714D01*
X121292952Y-111855333D01*
X121864380Y-112426761D01*
X121864380Y-111807714D01*
X118530666Y-113236285D02*
X118530666Y-112760095D01*
X118816380Y-113331523D02*
X117816380Y-112998190D01*
X118816380Y-112664857D01*
X118816380Y-111807714D02*
X118816380Y-112379142D01*
X118816380Y-112093428D02*
X117816380Y-112093428D01*
X117959238Y-112188666D01*
X118054476Y-112283904D01*
X118102095Y-112379142D01*
X116244666Y-113236285D02*
X116244666Y-112760095D01*
X116530380Y-113331523D02*
X115530380Y-112998190D01*
X116530380Y-112664857D01*
X115530380Y-112141047D02*
X115530380Y-112045809D01*
X115578000Y-111950571D01*
X115625619Y-111902952D01*
X115720857Y-111855333D01*
X115911333Y-111807714D01*
X116149428Y-111807714D01*
X116339904Y-111855333D01*
X116435142Y-111902952D01*
X116482761Y-111950571D01*
X116530380Y-112045809D01*
X116530380Y-112141047D01*
X116482761Y-112236285D01*
X116435142Y-112283904D01*
X116339904Y-112331523D01*
X116149428Y-112379142D01*
X115911333Y-112379142D01*
X115720857Y-112331523D01*
X115625619Y-112283904D01*
X115578000Y-112236285D01*
X115530380Y-112141047D01*
X110704380Y-113109238D02*
X111704380Y-112775904D01*
X110704380Y-112442571D01*
X111704380Y-112109238D02*
X110704380Y-112109238D01*
X111704380Y-111633047D02*
X110704380Y-111633047D01*
X111704380Y-111061619D01*
X110704380Y-111061619D01*
X108212000Y-112775904D02*
X108164380Y-112871142D01*
X108164380Y-113014000D01*
X108212000Y-113156857D01*
X108307238Y-113252095D01*
X108402476Y-113299714D01*
X108592952Y-113347333D01*
X108735809Y-113347333D01*
X108926285Y-113299714D01*
X109021523Y-113252095D01*
X109116761Y-113156857D01*
X109164380Y-113014000D01*
X109164380Y-112918761D01*
X109116761Y-112775904D01*
X109069142Y-112728285D01*
X108735809Y-112728285D01*
X108735809Y-112918761D01*
X109164380Y-112299714D02*
X108164380Y-112299714D01*
X109164380Y-111728285D01*
X108164380Y-111728285D01*
X109164380Y-111252095D02*
X108164380Y-111252095D01*
X108164380Y-111014000D01*
X108212000Y-110871142D01*
X108307238Y-110775904D01*
X108402476Y-110728285D01*
X108592952Y-110680666D01*
X108735809Y-110680666D01*
X108926285Y-110728285D01*
X109021523Y-110775904D01*
X109116761Y-110871142D01*
X109164380Y-111014000D01*
X109164380Y-111252095D01*
X105672000Y-112775904D02*
X105624380Y-112871142D01*
X105624380Y-113014000D01*
X105672000Y-113156857D01*
X105767238Y-113252095D01*
X105862476Y-113299714D01*
X106052952Y-113347333D01*
X106195809Y-113347333D01*
X106386285Y-113299714D01*
X106481523Y-113252095D01*
X106576761Y-113156857D01*
X106624380Y-113014000D01*
X106624380Y-112918761D01*
X106576761Y-112775904D01*
X106529142Y-112728285D01*
X106195809Y-112728285D01*
X106195809Y-112918761D01*
X106624380Y-112299714D02*
X105624380Y-112299714D01*
X106624380Y-111728285D01*
X105624380Y-111728285D01*
X106624380Y-111252095D02*
X105624380Y-111252095D01*
X105624380Y-111014000D01*
X105672000Y-110871142D01*
X105767238Y-110775904D01*
X105862476Y-110728285D01*
X106052952Y-110680666D01*
X106195809Y-110680666D01*
X106386285Y-110728285D01*
X106481523Y-110775904D01*
X106576761Y-110871142D01*
X106624380Y-111014000D01*
X106624380Y-111252095D01*
X103449428Y-113299714D02*
X103449428Y-112537809D01*
X103830380Y-112918761D02*
X103068476Y-112918761D01*
X102830380Y-111585428D02*
X102830380Y-112061619D01*
X103306571Y-112109238D01*
X103258952Y-112061619D01*
X103211333Y-111966380D01*
X103211333Y-111728285D01*
X103258952Y-111633047D01*
X103306571Y-111585428D01*
X103401809Y-111537809D01*
X103639904Y-111537809D01*
X103735142Y-111585428D01*
X103782761Y-111633047D01*
X103830380Y-111728285D01*
X103830380Y-111966380D01*
X103782761Y-112061619D01*
X103735142Y-112109238D01*
X102830380Y-111252095D02*
X103830380Y-110918761D01*
X102830380Y-110585428D01*
X100909428Y-113521904D02*
X100909428Y-112760000D01*
X101290380Y-113140952D02*
X100528476Y-113140952D01*
X100290380Y-112379047D02*
X100290380Y-111760000D01*
X100671333Y-112093333D01*
X100671333Y-111950476D01*
X100718952Y-111855238D01*
X100766571Y-111807619D01*
X100861809Y-111760000D01*
X101099904Y-111760000D01*
X101195142Y-111807619D01*
X101242761Y-111855238D01*
X101290380Y-111950476D01*
X101290380Y-112236190D01*
X101242761Y-112331428D01*
X101195142Y-112379047D01*
X100290380Y-111474285D02*
X101290380Y-111140952D01*
X100290380Y-110807619D01*
X100290380Y-110569523D02*
X100290380Y-109950476D01*
X100671333Y-110283809D01*
X100671333Y-110140952D01*
X100718952Y-110045714D01*
X100766571Y-109998095D01*
X100861809Y-109950476D01*
X101099904Y-109950476D01*
X101195142Y-109998095D01*
X101242761Y-110045714D01*
X101290380Y-110140952D01*
X101290380Y-110426666D01*
X101242761Y-110521904D01*
X101195142Y-110569523D01*
X99004380Y-112958380D02*
X98528190Y-113291714D01*
X99004380Y-113529809D02*
X98004380Y-113529809D01*
X98004380Y-113148857D01*
X98052000Y-113053619D01*
X98099619Y-113006000D01*
X98194857Y-112958380D01*
X98337714Y-112958380D01*
X98432952Y-113006000D01*
X98480571Y-113053619D01*
X98528190Y-113148857D01*
X98528190Y-113529809D01*
X98480571Y-112529809D02*
X98480571Y-112196476D01*
X99004380Y-112053619D02*
X99004380Y-112529809D01*
X98004380Y-112529809D01*
X98004380Y-112053619D01*
X98956761Y-111672666D02*
X99004380Y-111529809D01*
X99004380Y-111291714D01*
X98956761Y-111196476D01*
X98909142Y-111148857D01*
X98813904Y-111101238D01*
X98718666Y-111101238D01*
X98623428Y-111148857D01*
X98575809Y-111196476D01*
X98528190Y-111291714D01*
X98480571Y-111482190D01*
X98432952Y-111577428D01*
X98385333Y-111625047D01*
X98290095Y-111672666D01*
X98194857Y-111672666D01*
X98099619Y-111625047D01*
X98052000Y-111577428D01*
X98004380Y-111482190D01*
X98004380Y-111244095D01*
X98052000Y-111101238D01*
X98480571Y-110672666D02*
X98480571Y-110339333D01*
X99004380Y-110196476D02*
X99004380Y-110672666D01*
X98004380Y-110672666D01*
X98004380Y-110196476D01*
X98004380Y-109910761D02*
X98004380Y-109339333D01*
X99004380Y-109625047D02*
X98004380Y-109625047D01*
X96718380Y-113410761D02*
X95718380Y-113410761D01*
X95718380Y-112744095D02*
X95718380Y-112553619D01*
X95766000Y-112458380D01*
X95861238Y-112363142D01*
X96051714Y-112315523D01*
X96385047Y-112315523D01*
X96575523Y-112363142D01*
X96670761Y-112458380D01*
X96718380Y-112553619D01*
X96718380Y-112744095D01*
X96670761Y-112839333D01*
X96575523Y-112934571D01*
X96385047Y-112982190D01*
X96051714Y-112982190D01*
X95861238Y-112934571D01*
X95766000Y-112839333D01*
X95718380Y-112744095D01*
X96718380Y-111315523D02*
X96242190Y-111648857D01*
X96718380Y-111886952D02*
X95718380Y-111886952D01*
X95718380Y-111506000D01*
X95766000Y-111410761D01*
X95813619Y-111363142D01*
X95908857Y-111315523D01*
X96051714Y-111315523D01*
X96146952Y-111363142D01*
X96194571Y-111410761D01*
X96242190Y-111506000D01*
X96242190Y-111886952D01*
X96194571Y-110886952D02*
X96194571Y-110553619D01*
X96718380Y-110410761D02*
X96718380Y-110886952D01*
X95718380Y-110886952D01*
X95718380Y-110410761D01*
X96194571Y-109648857D02*
X96194571Y-109982190D01*
X96718380Y-109982190D02*
X95718380Y-109982190D01*
X95718380Y-109506000D01*
X39505142Y-46853714D02*
X39505142Y-46282285D01*
X39648000Y-45996571D01*
X39933714Y-45710857D01*
X40505142Y-45568000D01*
X41505142Y-45568000D01*
X42076571Y-45710857D01*
X42362285Y-45996571D01*
X42505142Y-46282285D01*
X42505142Y-46853714D01*
X42362285Y-47139428D01*
X42076571Y-47425142D01*
X41505142Y-47568000D01*
X40505142Y-47568000D01*
X39933714Y-47425142D01*
X39648000Y-47139428D01*
X39505142Y-46853714D01*
X40505142Y-44568000D02*
X42505142Y-43853714D01*
X40505142Y-43139428D01*
X42362285Y-40853714D02*
X42505142Y-41139428D01*
X42505142Y-41710857D01*
X42362285Y-41996571D01*
X42076571Y-42139428D01*
X40933714Y-42139428D01*
X40648000Y-41996571D01*
X40505142Y-41710857D01*
X40505142Y-41139428D01*
X40648000Y-40853714D01*
X40933714Y-40710857D01*
X41219428Y-40710857D01*
X41505142Y-42139428D01*
X40505142Y-39425142D02*
X42505142Y-39425142D01*
X40790857Y-39425142D02*
X40648000Y-39282285D01*
X40505142Y-38996571D01*
X40505142Y-38568000D01*
X40648000Y-38282285D01*
X40933714Y-38139428D01*
X42505142Y-38139428D01*
X42505142Y-34425142D02*
X39505142Y-34425142D01*
X39505142Y-33710857D01*
X39648000Y-33282285D01*
X39933714Y-32996571D01*
X40219428Y-32853714D01*
X40790857Y-32710857D01*
X41219428Y-32710857D01*
X41790857Y-32853714D01*
X42076571Y-32996571D01*
X42362285Y-33282285D01*
X42505142Y-33710857D01*
X42505142Y-34425142D01*
X42505142Y-31425142D02*
X40505142Y-31425142D01*
X41076571Y-31425142D02*
X40790857Y-31282285D01*
X40648000Y-31139428D01*
X40505142Y-30853714D01*
X40505142Y-30568000D01*
X42505142Y-29568000D02*
X40505142Y-29568000D01*
X39505142Y-29568000D02*
X39648000Y-29710857D01*
X39790857Y-29568000D01*
X39648000Y-29425142D01*
X39505142Y-29568000D01*
X39790857Y-29568000D01*
X40505142Y-28425142D02*
X42505142Y-27710857D01*
X40505142Y-26996571D01*
X42362285Y-24710857D02*
X42505142Y-24996571D01*
X42505142Y-25568000D01*
X42362285Y-25853714D01*
X42076571Y-25996571D01*
X40933714Y-25996571D01*
X40648000Y-25853714D01*
X40505142Y-25568000D01*
X40505142Y-24996571D01*
X40648000Y-24710857D01*
X40933714Y-24568000D01*
X41219428Y-24568000D01*
X41505142Y-25996571D01*
X2167142Y-64856571D02*
X2167142Y-66285142D01*
X3595714Y-66428000D01*
X3452857Y-66285142D01*
X3309999Y-65999428D01*
X3309999Y-65285142D01*
X3452857Y-64999428D01*
X3595714Y-64856571D01*
X3881428Y-64713714D01*
X4595714Y-64713714D01*
X4881428Y-64856571D01*
X5024285Y-64999428D01*
X5167142Y-65285142D01*
X5167142Y-65999428D01*
X5024285Y-66285142D01*
X4881428Y-66428000D01*
X2167142Y-61570857D02*
X5167142Y-60570857D01*
X2167142Y-59570857D01*
X5167142Y-58142285D02*
X5024285Y-58428000D01*
X4881428Y-58570857D01*
X4595714Y-58713714D01*
X3738571Y-58713714D01*
X3452857Y-58570857D01*
X3310000Y-58428000D01*
X3167142Y-58142285D01*
X3167142Y-57713714D01*
X3310000Y-57428000D01*
X3452857Y-57285142D01*
X3738571Y-57142285D01*
X4595714Y-57142285D01*
X4881428Y-57285142D01*
X5024285Y-57428000D01*
X5167142Y-57713714D01*
X5167142Y-58142285D01*
X5167142Y-55428000D02*
X5024285Y-55713714D01*
X4738571Y-55856571D01*
X2167142Y-55856571D01*
X3167142Y-54713714D02*
X3167142Y-53570857D01*
X2167142Y-54285142D02*
X4738571Y-54285142D01*
X5024285Y-54142285D01*
X5167142Y-53856571D01*
X5167142Y-53570857D01*
X5024285Y-52713714D02*
X5167142Y-52428000D01*
X5167142Y-51856571D01*
X5024285Y-51570857D01*
X4738571Y-51428000D01*
X4595714Y-51428000D01*
X4310000Y-51570857D01*
X4167142Y-51856571D01*
X4167142Y-52285142D01*
X4024285Y-52570857D01*
X3738571Y-52713714D01*
X3595714Y-52713714D01*
X3310000Y-52570857D01*
X3167142Y-52285142D01*
X3167142Y-51856571D01*
X3310000Y-51570857D01*
X2675142Y-114941714D02*
X2675142Y-113084571D01*
X3817999Y-114084571D01*
X3817999Y-113656000D01*
X3960857Y-113370285D01*
X4103714Y-113227428D01*
X4389428Y-113084571D01*
X5103714Y-113084571D01*
X5389428Y-113227428D01*
X5532285Y-113370285D01*
X5675142Y-113656000D01*
X5675142Y-114513142D01*
X5532285Y-114798857D01*
X5389428Y-114941714D01*
X5389428Y-111798857D02*
X5532285Y-111656000D01*
X5675142Y-111798857D01*
X5532285Y-111941714D01*
X5389428Y-111798857D01*
X5675142Y-111798857D01*
X2675142Y-110656000D02*
X2675142Y-108798857D01*
X3817999Y-109798857D01*
X3818000Y-109370285D01*
X3960857Y-109084571D01*
X4103714Y-108941714D01*
X4389428Y-108798857D01*
X5103714Y-108798857D01*
X5389428Y-108941714D01*
X5532285Y-109084571D01*
X5675142Y-109370285D01*
X5675142Y-110227428D01*
X5532285Y-110513142D01*
X5389428Y-110656000D01*
X2675142Y-105656000D02*
X5675142Y-104656000D01*
X2675142Y-103656000D01*
X5675142Y-102227428D02*
X5532285Y-102513142D01*
X5389428Y-102656000D01*
X5103714Y-102798857D01*
X4246571Y-102798857D01*
X3960857Y-102656000D01*
X3818000Y-102513142D01*
X3675142Y-102227428D01*
X3675142Y-101798857D01*
X3818000Y-101513142D01*
X3960857Y-101370285D01*
X4246571Y-101227428D01*
X5103714Y-101227428D01*
X5389428Y-101370285D01*
X5532285Y-101513142D01*
X5675142Y-101798857D01*
X5675142Y-102227428D01*
X5675142Y-99513142D02*
X5532285Y-99798857D01*
X5246571Y-99941714D01*
X2675142Y-99941714D01*
X3675142Y-98798857D02*
X3675142Y-97656000D01*
X2675142Y-98370285D02*
X5246571Y-98370285D01*
X5532285Y-98227428D01*
X5675142Y-97941714D01*
X5675142Y-97656000D01*
X5532285Y-96798857D02*
X5675142Y-96513142D01*
X5675142Y-95941714D01*
X5532285Y-95656000D01*
X5246571Y-95513142D01*
X5103714Y-95513142D01*
X4818000Y-95656000D01*
X4675142Y-95941714D01*
X4675142Y-96370285D01*
X4532285Y-96656000D01*
X4246571Y-96798857D01*
X4103714Y-96798857D01*
X3818000Y-96656000D01*
X3675142Y-96370285D01*
X3675142Y-95941714D01*
X3818000Y-95656000D01*
X134321704Y-92311600D02*
X134226466Y-92263980D01*
X134083609Y-92263980D01*
X133940752Y-92311600D01*
X133845514Y-92406838D01*
X133797895Y-92502076D01*
X133750276Y-92692552D01*
X133750276Y-92835409D01*
X133797895Y-93025885D01*
X133845514Y-93121123D01*
X133940752Y-93216361D01*
X134083609Y-93263980D01*
X134178847Y-93263980D01*
X134321704Y-93216361D01*
X134369323Y-93168742D01*
X134369323Y-92835409D01*
X134178847Y-92835409D01*
X134797895Y-93263980D02*
X134797895Y-92263980D01*
X135369323Y-93263980D01*
X135369323Y-92263980D01*
X135845514Y-93263980D02*
X135845514Y-92263980D01*
X136083609Y-92263980D01*
X136226466Y-92311600D01*
X136321704Y-92406838D01*
X136369323Y-92502076D01*
X136416942Y-92692552D01*
X136416942Y-92835409D01*
X136369323Y-93025885D01*
X136321704Y-93121123D01*
X136226466Y-93216361D01*
X136083609Y-93263980D01*
X135845514Y-93263980D01*
X137274085Y-92597314D02*
X137274085Y-93263980D01*
X137035990Y-92216361D02*
X136797895Y-92930647D01*
X137416942Y-92930647D01*
X133861371Y-90774780D02*
X133861371Y-89774780D01*
X134194704Y-90489066D01*
X134528038Y-89774780D01*
X134528038Y-90774780D01*
X135194704Y-89774780D02*
X135385180Y-89774780D01*
X135480419Y-89822400D01*
X135575657Y-89917638D01*
X135623276Y-90108114D01*
X135623276Y-90441447D01*
X135575657Y-90631923D01*
X135480419Y-90727161D01*
X135385180Y-90774780D01*
X135194704Y-90774780D01*
X135099466Y-90727161D01*
X135004228Y-90631923D01*
X134956609Y-90441447D01*
X134956609Y-90108114D01*
X135004228Y-89917638D01*
X135099466Y-89822400D01*
X135194704Y-89774780D01*
X136004228Y-90727161D02*
X136147085Y-90774780D01*
X136385180Y-90774780D01*
X136480419Y-90727161D01*
X136528038Y-90679542D01*
X136575657Y-90584304D01*
X136575657Y-90489066D01*
X136528038Y-90393828D01*
X136480419Y-90346209D01*
X136385180Y-90298590D01*
X136194704Y-90250971D01*
X136099466Y-90203352D01*
X136051847Y-90155733D01*
X136004228Y-90060495D01*
X136004228Y-89965257D01*
X136051847Y-89870019D01*
X136099466Y-89822400D01*
X136194704Y-89774780D01*
X136432800Y-89774780D01*
X136575657Y-89822400D01*
X137004228Y-90774780D02*
X137004228Y-89774780D01*
X123537790Y-93467180D02*
X123204457Y-92990990D01*
X122966361Y-93467180D02*
X122966361Y-92467180D01*
X123347314Y-92467180D01*
X123442552Y-92514800D01*
X123490171Y-92562419D01*
X123537790Y-92657657D01*
X123537790Y-92800514D01*
X123490171Y-92895752D01*
X123442552Y-92943371D01*
X123347314Y-92990990D01*
X122966361Y-92990990D01*
X123918742Y-93419561D02*
X124061600Y-93467180D01*
X124299695Y-93467180D01*
X124394933Y-93419561D01*
X124442552Y-93371942D01*
X124490171Y-93276704D01*
X124490171Y-93181466D01*
X124442552Y-93086228D01*
X124394933Y-93038609D01*
X124299695Y-92990990D01*
X124109219Y-92943371D01*
X124013980Y-92895752D01*
X123966361Y-92848133D01*
X123918742Y-92752895D01*
X123918742Y-92657657D01*
X123966361Y-92562419D01*
X124013980Y-92514800D01*
X124109219Y-92467180D01*
X124347314Y-92467180D01*
X124490171Y-92514800D01*
X124775885Y-92467180D02*
X125347314Y-92467180D01*
X125061600Y-93467180D02*
X125061600Y-92467180D01*
X125633028Y-92562419D02*
X125680647Y-92514800D01*
X125775885Y-92467180D01*
X126013980Y-92467180D01*
X126109219Y-92514800D01*
X126156838Y-92562419D01*
X126204457Y-92657657D01*
X126204457Y-92752895D01*
X126156838Y-92895752D01*
X125585409Y-93467180D01*
X126204457Y-93467180D01*
X122996485Y-90676361D02*
X123139342Y-90723980D01*
X123377438Y-90723980D01*
X123472676Y-90676361D01*
X123520295Y-90628742D01*
X123567914Y-90533504D01*
X123567914Y-90438266D01*
X123520295Y-90343028D01*
X123472676Y-90295409D01*
X123377438Y-90247790D01*
X123186961Y-90200171D01*
X123091723Y-90152552D01*
X123044104Y-90104933D01*
X122996485Y-90009695D01*
X122996485Y-89914457D01*
X123044104Y-89819219D01*
X123091723Y-89771600D01*
X123186961Y-89723980D01*
X123425057Y-89723980D01*
X123567914Y-89771600D01*
X124567914Y-90628742D02*
X124520295Y-90676361D01*
X124377438Y-90723980D01*
X124282200Y-90723980D01*
X124139342Y-90676361D01*
X124044104Y-90581123D01*
X123996485Y-90485885D01*
X123948866Y-90295409D01*
X123948866Y-90152552D01*
X123996485Y-89962076D01*
X124044104Y-89866838D01*
X124139342Y-89771600D01*
X124282200Y-89723980D01*
X124377438Y-89723980D01*
X124520295Y-89771600D01*
X124567914Y-89819219D01*
X124996485Y-90723980D02*
X124996485Y-89723980D01*
X125567914Y-90723980D02*
X125139342Y-90152552D01*
X125567914Y-89723980D02*
X124996485Y-90295409D01*
X123015571Y-88006180D02*
X123015571Y-87006180D01*
X123348904Y-87720466D01*
X123682238Y-87006180D01*
X123682238Y-88006180D01*
X124158428Y-88006180D02*
X124158428Y-87006180D01*
X124587000Y-87958561D02*
X124729857Y-88006180D01*
X124967952Y-88006180D01*
X125063190Y-87958561D01*
X125110809Y-87910942D01*
X125158428Y-87815704D01*
X125158428Y-87720466D01*
X125110809Y-87625228D01*
X125063190Y-87577609D01*
X124967952Y-87529990D01*
X124777476Y-87482371D01*
X124682238Y-87434752D01*
X124634619Y-87387133D01*
X124587000Y-87291895D01*
X124587000Y-87196657D01*
X124634619Y-87101419D01*
X124682238Y-87053800D01*
X124777476Y-87006180D01*
X125015571Y-87006180D01*
X125158428Y-87053800D01*
X125777476Y-87006180D02*
X125967952Y-87006180D01*
X126063190Y-87053800D01*
X126158428Y-87149038D01*
X126206047Y-87339514D01*
X126206047Y-87672847D01*
X126158428Y-87863323D01*
X126063190Y-87958561D01*
X125967952Y-88006180D01*
X125777476Y-88006180D01*
X125682238Y-87958561D01*
X125587000Y-87863323D01*
X125539380Y-87672847D01*
X125539380Y-87339514D01*
X125587000Y-87149038D01*
X125682238Y-87053800D01*
X125777476Y-87006180D01*
X134486733Y-87107780D02*
X134010542Y-87107780D01*
X133962923Y-87583971D01*
X134010542Y-87536352D01*
X134105780Y-87488733D01*
X134343876Y-87488733D01*
X134439114Y-87536352D01*
X134486733Y-87583971D01*
X134534352Y-87679209D01*
X134534352Y-87917304D01*
X134486733Y-88012542D01*
X134439114Y-88060161D01*
X134343876Y-88107780D01*
X134105780Y-88107780D01*
X134010542Y-88060161D01*
X133962923Y-88012542D01*
X134820066Y-87107780D02*
X135153400Y-88107780D01*
X135486733Y-87107780D01*
X135772447Y-87203019D02*
X135820066Y-87155400D01*
X135915304Y-87107780D01*
X136153400Y-87107780D01*
X136248638Y-87155400D01*
X136296257Y-87203019D01*
X136343876Y-87298257D01*
X136343876Y-87393495D01*
X136296257Y-87536352D01*
X135724828Y-88107780D01*
X136343876Y-88107780D01*
%TO.C,U1*%
X65450001Y-64905001D02*
X65450001Y-118245001D01*
X164510001Y-77605001D02*
X164510001Y-66429001D01*
X167050001Y-80145001D02*
X164510001Y-77605001D01*
X167050001Y-114435001D02*
X167050001Y-80145001D01*
X164510001Y-116975001D02*
X167050001Y-114435001D01*
X164510001Y-118245001D02*
X164510001Y-116975001D01*
X162986001Y-64905001D02*
X164510001Y-66429001D01*
X65450001Y-118245001D02*
X164510001Y-118245001D01*
X65450001Y-64905001D02*
X162986001Y-64905001D01*
D11*
%TO.C,HS1*%
X154177000Y-40005000D02*
X141732000Y-40005000D01*
X154177000Y-28090000D02*
X154177000Y-40005000D01*
X171197000Y-28090000D02*
X154177000Y-28090000D01*
X171197000Y-40005000D02*
X171197000Y-28090000D01*
X183642000Y-40005000D02*
X171197000Y-40005000D01*
X183642000Y-14605000D02*
X183642000Y-40005000D01*
X171197000Y-14605000D02*
X183642000Y-14605000D01*
X171197000Y-26520000D02*
X171197000Y-14605000D01*
X154177000Y-26520000D02*
X171197000Y-26520000D01*
X154177000Y-14605000D02*
X154177000Y-26520000D01*
X141732000Y-14605000D02*
X154177000Y-14605000D01*
X141732000Y-40005000D02*
X141732000Y-14605000D01*
D12*
%TO.C,C1*%
X52090000Y-61000000D02*
G75*
G03*
X52090000Y-61000000I-6370000J0D01*
G01*
X39390000Y-61000000D02*
X52050000Y-61000000D01*
X39390000Y-60960000D02*
X52050000Y-60960000D01*
X39390000Y-60920000D02*
X52050000Y-60920000D01*
X39391000Y-60880000D02*
X52049000Y-60880000D01*
X39392000Y-60840000D02*
X52048000Y-60840000D01*
X39393000Y-60800000D02*
X52047000Y-60800000D01*
X39394000Y-60760000D02*
X52046000Y-60760000D01*
X39396000Y-60720000D02*
X52044000Y-60720000D01*
X39398000Y-60680000D02*
X52042000Y-60680000D01*
X39400000Y-60640000D02*
X52040000Y-60640000D01*
X39402000Y-60600000D02*
X52038000Y-60600000D01*
X39405000Y-60560000D02*
X52035000Y-60560000D01*
X39408000Y-60520000D02*
X52032000Y-60520000D01*
X39411000Y-60480000D02*
X52029000Y-60480000D01*
X39414000Y-60440000D02*
X52026000Y-60440000D01*
X39418000Y-60400000D02*
X52022000Y-60400000D01*
X39422000Y-60360000D02*
X52018000Y-60360000D01*
X39426000Y-60320000D02*
X52014000Y-60320000D01*
X39430000Y-60279000D02*
X52010000Y-60279000D01*
X39435000Y-60239000D02*
X52005000Y-60239000D01*
X39440000Y-60199000D02*
X52000000Y-60199000D01*
X39445000Y-60159000D02*
X51995000Y-60159000D01*
X39451000Y-60119000D02*
X51989000Y-60119000D01*
X39456000Y-60079000D02*
X51984000Y-60079000D01*
X39462000Y-60039000D02*
X51978000Y-60039000D01*
X39468000Y-59999000D02*
X51972000Y-59999000D01*
X39475000Y-59959000D02*
X51965000Y-59959000D01*
X39482000Y-59919000D02*
X44280000Y-59919000D01*
X47160000Y-59919000D02*
X51958000Y-59919000D01*
X39489000Y-59879000D02*
X44280000Y-59879000D01*
X47160000Y-59879000D02*
X51951000Y-59879000D01*
X39496000Y-59839000D02*
X44280000Y-59839000D01*
X47160000Y-59839000D02*
X51944000Y-59839000D01*
X39504000Y-59799000D02*
X44280000Y-59799000D01*
X47160000Y-59799000D02*
X51936000Y-59799000D01*
X39511000Y-59759000D02*
X44280000Y-59759000D01*
X47160000Y-59759000D02*
X51929000Y-59759000D01*
X39519000Y-59719000D02*
X44280000Y-59719000D01*
X47160000Y-59719000D02*
X51921000Y-59719000D01*
X39528000Y-59679000D02*
X44280000Y-59679000D01*
X47160000Y-59679000D02*
X51912000Y-59679000D01*
X39536000Y-59639000D02*
X44280000Y-59639000D01*
X47160000Y-59639000D02*
X51904000Y-59639000D01*
X39545000Y-59599000D02*
X44280000Y-59599000D01*
X47160000Y-59599000D02*
X51895000Y-59599000D01*
X39554000Y-59559000D02*
X44280000Y-59559000D01*
X47160000Y-59559000D02*
X51886000Y-59559000D01*
X39564000Y-59519000D02*
X44280000Y-59519000D01*
X47160000Y-59519000D02*
X51876000Y-59519000D01*
X39574000Y-59479000D02*
X44280000Y-59479000D01*
X47160000Y-59479000D02*
X51866000Y-59479000D01*
X39583000Y-59439000D02*
X44280000Y-59439000D01*
X47160000Y-59439000D02*
X51857000Y-59439000D01*
X39594000Y-59399000D02*
X44280000Y-59399000D01*
X47160000Y-59399000D02*
X51846000Y-59399000D01*
X39604000Y-59359000D02*
X44280000Y-59359000D01*
X47160000Y-59359000D02*
X51836000Y-59359000D01*
X39615000Y-59319000D02*
X44280000Y-59319000D01*
X47160000Y-59319000D02*
X51825000Y-59319000D01*
X39626000Y-59279000D02*
X44280000Y-59279000D01*
X47160000Y-59279000D02*
X51814000Y-59279000D01*
X39637000Y-59239000D02*
X44280000Y-59239000D01*
X47160000Y-59239000D02*
X51803000Y-59239000D01*
X39649000Y-59199000D02*
X44280000Y-59199000D01*
X47160000Y-59199000D02*
X51791000Y-59199000D01*
X39661000Y-59159000D02*
X44280000Y-59159000D01*
X47160000Y-59159000D02*
X51779000Y-59159000D01*
X39673000Y-59119000D02*
X44280000Y-59119000D01*
X47160000Y-59119000D02*
X51767000Y-59119000D01*
X39686000Y-59079000D02*
X44280000Y-59079000D01*
X47160000Y-59079000D02*
X51754000Y-59079000D01*
X39699000Y-59039000D02*
X44280000Y-59039000D01*
X47160000Y-59039000D02*
X51741000Y-59039000D01*
X39712000Y-58999000D02*
X44280000Y-58999000D01*
X47160000Y-58999000D02*
X51728000Y-58999000D01*
X39725000Y-58959000D02*
X44280000Y-58959000D01*
X47160000Y-58959000D02*
X51715000Y-58959000D01*
X39739000Y-58919000D02*
X44280000Y-58919000D01*
X47160000Y-58919000D02*
X51701000Y-58919000D01*
X39753000Y-58879000D02*
X44280000Y-58879000D01*
X47160000Y-58879000D02*
X51687000Y-58879000D01*
X39767000Y-58839000D02*
X44280000Y-58839000D01*
X47160000Y-58839000D02*
X51673000Y-58839000D01*
X39781000Y-58799000D02*
X44280000Y-58799000D01*
X47160000Y-58799000D02*
X51659000Y-58799000D01*
X39796000Y-58759000D02*
X44280000Y-58759000D01*
X47160000Y-58759000D02*
X51644000Y-58759000D01*
X39812000Y-58719000D02*
X44280000Y-58719000D01*
X47160000Y-58719000D02*
X51628000Y-58719000D01*
X39827000Y-58679000D02*
X44280000Y-58679000D01*
X47160000Y-58679000D02*
X51613000Y-58679000D01*
X39843000Y-58639000D02*
X44280000Y-58639000D01*
X47160000Y-58639000D02*
X51597000Y-58639000D01*
X39859000Y-58599000D02*
X44280000Y-58599000D01*
X47160000Y-58599000D02*
X51581000Y-58599000D01*
X39875000Y-58559000D02*
X44280000Y-58559000D01*
X47160000Y-58559000D02*
X51565000Y-58559000D01*
X39892000Y-58519000D02*
X44280000Y-58519000D01*
X47160000Y-58519000D02*
X51548000Y-58519000D01*
X39909000Y-58479000D02*
X44280000Y-58479000D01*
X47160000Y-58479000D02*
X51531000Y-58479000D01*
X39927000Y-58439000D02*
X44280000Y-58439000D01*
X47160000Y-58439000D02*
X51513000Y-58439000D01*
X39944000Y-58399000D02*
X44280000Y-58399000D01*
X47160000Y-58399000D02*
X51496000Y-58399000D01*
X39962000Y-58359000D02*
X44280000Y-58359000D01*
X47160000Y-58359000D02*
X51478000Y-58359000D01*
X39981000Y-58319000D02*
X44280000Y-58319000D01*
X47160000Y-58319000D02*
X51459000Y-58319000D01*
X39999000Y-58279000D02*
X44280000Y-58279000D01*
X47160000Y-58279000D02*
X51441000Y-58279000D01*
X40018000Y-58239000D02*
X44280000Y-58239000D01*
X47160000Y-58239000D02*
X51422000Y-58239000D01*
X40038000Y-58199000D02*
X44280000Y-58199000D01*
X47160000Y-58199000D02*
X51402000Y-58199000D01*
X40058000Y-58159000D02*
X44280000Y-58159000D01*
X47160000Y-58159000D02*
X51382000Y-58159000D01*
X40078000Y-58119000D02*
X44280000Y-58119000D01*
X47160000Y-58119000D02*
X51362000Y-58119000D01*
X40098000Y-58079000D02*
X44280000Y-58079000D01*
X47160000Y-58079000D02*
X51342000Y-58079000D01*
X40119000Y-58039000D02*
X44280000Y-58039000D01*
X47160000Y-58039000D02*
X51321000Y-58039000D01*
X40140000Y-57999000D02*
X44280000Y-57999000D01*
X47160000Y-57999000D02*
X51300000Y-57999000D01*
X40162000Y-57959000D02*
X44280000Y-57959000D01*
X47160000Y-57959000D02*
X51278000Y-57959000D01*
X40184000Y-57919000D02*
X44280000Y-57919000D01*
X47160000Y-57919000D02*
X51256000Y-57919000D01*
X40206000Y-57879000D02*
X44280000Y-57879000D01*
X47160000Y-57879000D02*
X51234000Y-57879000D01*
X40229000Y-57839000D02*
X44280000Y-57839000D01*
X47160000Y-57839000D02*
X51211000Y-57839000D01*
X40252000Y-57799000D02*
X44280000Y-57799000D01*
X47160000Y-57799000D02*
X51188000Y-57799000D01*
X40275000Y-57759000D02*
X44280000Y-57759000D01*
X47160000Y-57759000D02*
X51165000Y-57759000D01*
X40299000Y-57719000D02*
X44280000Y-57719000D01*
X47160000Y-57719000D02*
X51141000Y-57719000D01*
X40323000Y-57679000D02*
X44280000Y-57679000D01*
X47160000Y-57679000D02*
X51117000Y-57679000D01*
X40348000Y-57639000D02*
X44280000Y-57639000D01*
X47160000Y-57639000D02*
X51092000Y-57639000D01*
X40373000Y-57599000D02*
X44280000Y-57599000D01*
X47160000Y-57599000D02*
X51067000Y-57599000D01*
X40398000Y-57559000D02*
X44280000Y-57559000D01*
X47160000Y-57559000D02*
X51042000Y-57559000D01*
X40424000Y-57519000D02*
X44280000Y-57519000D01*
X47160000Y-57519000D02*
X51016000Y-57519000D01*
X40450000Y-57479000D02*
X44280000Y-57479000D01*
X47160000Y-57479000D02*
X50990000Y-57479000D01*
X40477000Y-57439000D02*
X44280000Y-57439000D01*
X47160000Y-57439000D02*
X50963000Y-57439000D01*
X40504000Y-57399000D02*
X44280000Y-57399000D01*
X47160000Y-57399000D02*
X50936000Y-57399000D01*
X40532000Y-57359000D02*
X44280000Y-57359000D01*
X47160000Y-57359000D02*
X50908000Y-57359000D01*
X40560000Y-57319000D02*
X44280000Y-57319000D01*
X47160000Y-57319000D02*
X50880000Y-57319000D01*
X40589000Y-57279000D02*
X44280000Y-57279000D01*
X47160000Y-57279000D02*
X50851000Y-57279000D01*
X40618000Y-57239000D02*
X44280000Y-57239000D01*
X47160000Y-57239000D02*
X50822000Y-57239000D01*
X40647000Y-57199000D02*
X44280000Y-57199000D01*
X47160000Y-57199000D02*
X50793000Y-57199000D01*
X40677000Y-57159000D02*
X44280000Y-57159000D01*
X47160000Y-57159000D02*
X50763000Y-57159000D01*
X40708000Y-57119000D02*
X44280000Y-57119000D01*
X47160000Y-57119000D02*
X50732000Y-57119000D01*
X40738000Y-57079000D02*
X44280000Y-57079000D01*
X47160000Y-57079000D02*
X50702000Y-57079000D01*
X40770000Y-57039000D02*
X50670000Y-57039000D01*
X40802000Y-56999000D02*
X50638000Y-56999000D01*
X40835000Y-56959000D02*
X50605000Y-56959000D01*
X40868000Y-56919000D02*
X50572000Y-56919000D01*
X40901000Y-56879000D02*
X50539000Y-56879000D01*
X40935000Y-56839000D02*
X50505000Y-56839000D01*
X40970000Y-56799000D02*
X50470000Y-56799000D01*
X41006000Y-56759000D02*
X50434000Y-56759000D01*
X41042000Y-56719000D02*
X50398000Y-56719000D01*
X41078000Y-56679000D02*
X50362000Y-56679000D01*
X41115000Y-56639000D02*
X50325000Y-56639000D01*
X41153000Y-56599000D02*
X50287000Y-56599000D01*
X41192000Y-56559000D02*
X50248000Y-56559000D01*
X41231000Y-56519000D02*
X50209000Y-56519000D01*
X41271000Y-56479000D02*
X50169000Y-56479000D01*
X41312000Y-56439000D02*
X50128000Y-56439000D01*
X41353000Y-56399000D02*
X50087000Y-56399000D01*
X41395000Y-56359000D02*
X50045000Y-56359000D01*
X41438000Y-56319000D02*
X50002000Y-56319000D01*
X41482000Y-56279000D02*
X49958000Y-56279000D01*
X41526000Y-56239000D02*
X49914000Y-56239000D01*
X41572000Y-56199000D02*
X49868000Y-56199000D01*
X41618000Y-56159000D02*
X49822000Y-56159000D01*
X41665000Y-56119000D02*
X49775000Y-56119000D01*
X41713000Y-56079000D02*
X49727000Y-56079000D01*
X41763000Y-56039000D02*
X49677000Y-56039000D01*
X41813000Y-55999000D02*
X49627000Y-55999000D01*
X41864000Y-55959000D02*
X49576000Y-55959000D01*
X41916000Y-55919000D02*
X49524000Y-55919000D01*
X41970000Y-55879000D02*
X49470000Y-55879000D01*
X42024000Y-55839000D02*
X49416000Y-55839000D01*
X42080000Y-55799000D02*
X49360000Y-55799000D01*
X42137000Y-55759000D02*
X49303000Y-55759000D01*
X42196000Y-55719000D02*
X49244000Y-55719000D01*
X42256000Y-55679000D02*
X49184000Y-55679000D01*
X42318000Y-55639000D02*
X49122000Y-55639000D01*
X42381000Y-55599000D02*
X49059000Y-55599000D01*
X42445000Y-55559000D02*
X48995000Y-55559000D01*
X42512000Y-55519000D02*
X48928000Y-55519000D01*
X42580000Y-55479000D02*
X48860000Y-55479000D01*
X42651000Y-55439000D02*
X48789000Y-55439000D01*
X42724000Y-55399000D02*
X48716000Y-55399000D01*
X42799000Y-55359000D02*
X48641000Y-55359000D01*
X42876000Y-55319000D02*
X48564000Y-55319000D01*
X42956000Y-55279000D02*
X48484000Y-55279000D01*
X43039000Y-55239000D02*
X48401000Y-55239000D01*
X43126000Y-55199000D02*
X48314000Y-55199000D01*
X43216000Y-55159000D02*
X48224000Y-55159000D01*
X43310000Y-55119000D02*
X48130000Y-55119000D01*
X43408000Y-55079000D02*
X48032000Y-55079000D01*
X43511000Y-55039000D02*
X47929000Y-55039000D01*
X43620000Y-54999000D02*
X47820000Y-54999000D01*
X43736000Y-54959000D02*
X47704000Y-54959000D01*
X43859000Y-54919000D02*
X47581000Y-54919000D01*
X43992000Y-54879000D02*
X47448000Y-54879000D01*
X44137000Y-54839000D02*
X47303000Y-54839000D01*
X44298000Y-54799000D02*
X47142000Y-54799000D01*
X44479000Y-54759000D02*
X46961000Y-54759000D01*
X44692000Y-54719000D02*
X46748000Y-54719000D01*
X44963000Y-54679000D02*
X46477000Y-54679000D01*
X45403000Y-54639000D02*
X46037000Y-54639000D01*
X42145000Y-67817082D02*
X42145000Y-66567082D01*
X41520000Y-67192082D02*
X42770000Y-67192082D01*
D11*
%TO.C,J1*%
X144359000Y-137935200D02*
X144359000Y-146935200D01*
X104359000Y-146935200D02*
X104359000Y-137935200D01*
X144359000Y-146935200D02*
X104359000Y-146935200D01*
X104359000Y-137935200D02*
X144359000Y-137935200D01*
D13*
X141959000Y-136935200D02*
G75*
G03*
X141959000Y-136935200I-100000J0D01*
G01*
D12*
%TO.C,J2*%
X137100000Y-59750000D02*
X139760000Y-59750000D01*
X137100000Y-54610000D02*
X137100000Y-59750000D01*
X139760000Y-54610000D02*
X139760000Y-59750000D01*
X137100000Y-54610000D02*
X139760000Y-54610000D01*
X137100000Y-53340000D02*
X137100000Y-52010000D01*
X137100000Y-52010000D02*
X138430000Y-52010000D01*
%TO.C,J3*%
X132020000Y-52010000D02*
X133350000Y-52010000D01*
X132020000Y-53340000D02*
X132020000Y-52010000D01*
X132020000Y-54610000D02*
X134680000Y-54610000D01*
X134680000Y-54610000D02*
X134680000Y-59750000D01*
X132020000Y-54610000D02*
X132020000Y-59750000D01*
X132020000Y-59750000D02*
X134680000Y-59750000D01*
%TO.C,J4*%
X137328600Y-49234400D02*
X139988600Y-49234400D01*
X137328600Y-49174400D02*
X137328600Y-49234400D01*
X139988600Y-49174400D02*
X139988600Y-49234400D01*
X137328600Y-49174400D02*
X139988600Y-49174400D01*
X137328600Y-47904400D02*
X137328600Y-46574400D01*
X137328600Y-46574400D02*
X138658600Y-46574400D01*
%TO.C,J5*%
X124520000Y-52010000D02*
X121860000Y-52010000D01*
X124520000Y-57150000D02*
X124520000Y-52010000D01*
X121860000Y-57150000D02*
X121860000Y-52010000D01*
X124520000Y-57150000D02*
X121860000Y-57150000D01*
X124520000Y-58420000D02*
X124520000Y-59750000D01*
X124520000Y-59750000D02*
X123190000Y-59750000D01*
%TO.C,J6*%
X129600000Y-59750000D02*
X128270000Y-59750000D01*
X129600000Y-58420000D02*
X129600000Y-59750000D01*
X129600000Y-57150000D02*
X126940000Y-57150000D01*
X126940000Y-57150000D02*
X126940000Y-52010000D01*
X129600000Y-57150000D02*
X129600000Y-52010000D01*
X129600000Y-52010000D02*
X126940000Y-52010000D01*
D13*
%TO.C,J7*%
X139419000Y-1418600D02*
G75*
G03*
X139419000Y-1418600I-100000J0D01*
G01*
D11*
X176819000Y-418600D02*
X136819000Y-418600D01*
X136819000Y8581400D02*
X176819000Y8581400D01*
X176819000Y8581400D02*
X176819000Y-418600D01*
X136819000Y-418600D02*
X136819000Y8581400D01*
%TO.C,Q1*%
X59563000Y-26670000D02*
X62484000Y-26797000D01*
X62738000Y-27051000D02*
X62484000Y-26797000D01*
X62738000Y-27051000D02*
X62738000Y-36449000D01*
X62484000Y-36703000D02*
X62738000Y-36449000D01*
X62484000Y-36703000D02*
X59563000Y-36830000D01*
X62382400Y-36245800D02*
G75*
G03*
X62382400Y-36245800I-254000J0D01*
G01*
D14*
G36*
X58420000Y-37090440D02*
G01*
X58420000Y-26416000D01*
X59182919Y-26416000D01*
X59182919Y-37090440D01*
X58420000Y-37090440D01*
G37*
X58420000Y-37090440D02*
X58420000Y-26416000D01*
X59182919Y-26416000D01*
X59182919Y-37090440D01*
X58420000Y-37090440D01*
G36*
X59182000Y-37086720D02*
G01*
X59182000Y-35179000D01*
X59690650Y-35179000D01*
X59690650Y-37086720D01*
X59182000Y-37086720D01*
G37*
X59182000Y-37086720D02*
X59182000Y-35179000D01*
X59690650Y-35179000D01*
X59690650Y-37086720D01*
X59182000Y-37086720D01*
G36*
X59182000Y-33403540D02*
G01*
X59182000Y-32639000D01*
X59691960Y-32639000D01*
X59691960Y-33403540D01*
X59182000Y-33403540D01*
G37*
X59182000Y-33403540D02*
X59182000Y-32639000D01*
X59691960Y-32639000D01*
X59691960Y-33403540D01*
X59182000Y-33403540D01*
G36*
X59182000Y-30860303D02*
G01*
X59182000Y-30099000D01*
X59691000Y-30099000D01*
X59691000Y-30860303D01*
X59182000Y-30860303D01*
G37*
X59182000Y-30860303D02*
X59182000Y-30099000D01*
X59691000Y-30099000D01*
X59691000Y-30860303D01*
X59182000Y-30860303D01*
G36*
X59182000Y-28318420D02*
G01*
X59182000Y-26416000D01*
X59690960Y-26416000D01*
X59690960Y-28318420D01*
X59182000Y-28318420D01*
G37*
X59182000Y-28318420D02*
X59182000Y-26416000D01*
X59690960Y-26416000D01*
X59690960Y-28318420D01*
X59182000Y-28318420D01*
D12*
%TO.C,R2*%
X159290000Y-43080000D02*
X159290000Y-45820000D01*
X159290000Y-45820000D02*
X165830000Y-45820000D01*
X165830000Y-45820000D02*
X165830000Y-43080000D01*
X165830000Y-43080000D02*
X159290000Y-43080000D01*
X158520000Y-44450000D02*
X159290000Y-44450000D01*
X166600000Y-44450000D02*
X165830000Y-44450000D01*
D13*
%TO.C,U2*%
X148370000Y-54750000D02*
G75*
G03*
X148370000Y-54750000I-100000J0D01*
G01*
D11*
X145761000Y-56250000D02*
X145761000Y-58050000D01*
X148879000Y-58050000D02*
X148879000Y-56250000D01*
D15*
%TO.C,U3*%
X163305000Y-51843000D02*
X162805000Y-51843000D01*
X163305000Y-51843000D02*
X163305000Y-52343000D01*
X163295000Y-62213000D02*
X163295000Y-61713000D01*
X163295000Y-62213000D02*
X162795000Y-62213000D01*
X152905000Y-62233000D02*
X153405000Y-62233000D01*
X152905000Y-62233000D02*
X152905000Y-61733000D01*
X152905000Y-51833000D02*
X153405000Y-51833000D01*
X152905000Y-51833000D02*
X152905000Y-52333000D01*
D11*
%TO.C,U5*%
X148879000Y-63130000D02*
X148879000Y-61330000D01*
X145761000Y-61330000D02*
X145761000Y-63130000D01*
D13*
X148370000Y-59830000D02*
G75*
G03*
X148370000Y-59830000I-100000J0D01*
G01*
%TO.C,U6*%
X144627000Y-45121400D02*
G75*
G03*
X144627000Y-45121400I-100000J0D01*
G01*
D11*
X146952000Y-44896400D02*
X150482000Y-44896400D01*
X150482000Y-49896400D02*
X146952000Y-49896400D01*
D13*
%TO.C,U7*%
X21690000Y-58420000D02*
G75*
G03*
X21690000Y-58420000I-100000J0D01*
G01*
D11*
X26990000Y-66230000D02*
X26990000Y-55690000D01*
X22290000Y-66230000D02*
X26990000Y-66230000D01*
X22290000Y-55690000D02*
X22290000Y-66230000D01*
X26990000Y-55690000D02*
X22290000Y-55690000D01*
%TO.C,U8*%
X28260000Y-102680000D02*
X23560000Y-102680000D01*
X23560000Y-102680000D02*
X23560000Y-113220000D01*
X23560000Y-113220000D02*
X28260000Y-113220000D01*
X28260000Y-113220000D02*
X28260000Y-102680000D01*
D13*
X22960000Y-105410000D02*
G75*
G03*
X22960000Y-105410000I-100000J0D01*
G01*
D12*
%TO.C,R1*%
X165750000Y-49180000D02*
X165750000Y-47340000D01*
X165750000Y-47340000D02*
X161910000Y-47340000D01*
X161910000Y-47340000D02*
X161910000Y-49180000D01*
X161910000Y-49180000D02*
X165750000Y-49180000D01*
X166700000Y-48260000D02*
X165750000Y-48260000D01*
X160960000Y-48260000D02*
X161910000Y-48260000D01*
%TO.C,D1*%
X11840000Y-28960000D02*
X21180000Y-28960000D01*
X21180000Y-28960000D02*
X21180000Y-19620000D01*
X21180000Y-19620000D02*
X11840000Y-19620000D01*
X11840000Y-19620000D02*
X11840000Y-28960000D01*
X16510000Y-32450000D02*
X16510000Y-28960000D01*
X16510000Y-16130000D02*
X16510000Y-19620000D01*
X11840000Y-27475000D02*
X21180000Y-27475000D01*
X11840000Y-27355000D02*
X21180000Y-27355000D01*
X11840000Y-27595000D02*
X21180000Y-27595000D01*
%TO.C,D2*%
X27080000Y-27595000D02*
X36420000Y-27595000D01*
X27080000Y-27355000D02*
X36420000Y-27355000D01*
X27080000Y-27475000D02*
X36420000Y-27475000D01*
X31750000Y-16130000D02*
X31750000Y-19620000D01*
X31750000Y-32450000D02*
X31750000Y-28960000D01*
X27080000Y-19620000D02*
X27080000Y-28960000D01*
X36420000Y-19620000D02*
X27080000Y-19620000D01*
X36420000Y-28960000D02*
X36420000Y-19620000D01*
X27080000Y-28960000D02*
X36420000Y-28960000D01*
D11*
%TO.C,HS2*%
X34290000Y-116460000D02*
X34290000Y-128905000D01*
X22375000Y-116460000D02*
X34290000Y-116460000D01*
X22375000Y-99440000D02*
X22375000Y-116460000D01*
X34290000Y-99440000D02*
X22375000Y-99440000D01*
X34290000Y-86995000D02*
X34290000Y-99440000D01*
X8890000Y-86995000D02*
X34290000Y-86995000D01*
X8890000Y-99440000D02*
X8890000Y-86995000D01*
X20805000Y-99440000D02*
X8890000Y-99440000D01*
X20805000Y-116460000D02*
X20805000Y-99440000D01*
X8890000Y-116460000D02*
X20805000Y-116460000D01*
X8890000Y-128905000D02*
X8890000Y-116460000D01*
X34290000Y-128905000D02*
X8890000Y-128905000D01*
%TO.C,HS3*%
X69977000Y-52705000D02*
X44577000Y-52705000D01*
X44577000Y-52705000D02*
X44577000Y-40260000D01*
X44577000Y-40260000D02*
X56492000Y-40260000D01*
X56492000Y-40260000D02*
X56492000Y-23240000D01*
X56492000Y-23240000D02*
X44577000Y-23240000D01*
X44577000Y-23240000D02*
X44577000Y-10795000D01*
X44577000Y-10795000D02*
X69977000Y-10795000D01*
X69977000Y-10795000D02*
X69977000Y-23240000D01*
X69977000Y-23240000D02*
X58062000Y-23240000D01*
X58062000Y-23240000D02*
X58062000Y-40260000D01*
X58062000Y-40260000D02*
X69977000Y-40260000D01*
X69977000Y-40260000D02*
X69977000Y-52705000D01*
%TO.C,HS4*%
X33020000Y-81915000D02*
X7620000Y-81915000D01*
X7620000Y-81915000D02*
X7620000Y-69470000D01*
X7620000Y-69470000D02*
X19535000Y-69470000D01*
X19535000Y-69470000D02*
X19535000Y-52450000D01*
X19535000Y-52450000D02*
X7620000Y-52450000D01*
X7620000Y-52450000D02*
X7620000Y-40005000D01*
X7620000Y-40005000D02*
X33020000Y-40005000D01*
X33020000Y-40005000D02*
X33020000Y-52450000D01*
X33020000Y-52450000D02*
X21105000Y-52450000D01*
X21105000Y-52450000D02*
X21105000Y-69470000D01*
X21105000Y-69470000D02*
X33020000Y-69470000D01*
X33020000Y-69470000D02*
X33020000Y-81915000D01*
D12*
%TO.C,IC1*%
X158750000Y-21459000D02*
X158750000Y-18845000D01*
X161290000Y-21459000D02*
X161290000Y-18845000D01*
X163830000Y-21459000D02*
X163830000Y-18845000D01*
X166370000Y-21459000D02*
X166370000Y-18829000D01*
X160710000Y-26100000D02*
X160710000Y-24591000D01*
X164410000Y-26100000D02*
X164410000Y-24591000D01*
X167680000Y-24591000D02*
X157440000Y-24591000D01*
X157440000Y-26100000D02*
X157440000Y-21459000D01*
X167680000Y-26100000D02*
X167680000Y-21459000D01*
X158955000Y-21459000D02*
X157440000Y-21459000D01*
X161495000Y-21459000D02*
X161085000Y-21459000D01*
X164034000Y-21459000D02*
X163625000Y-21459000D01*
X167680000Y-21459000D02*
X166165000Y-21459000D01*
X167680000Y-26100000D02*
X157440000Y-26100000D01*
%TO.C,R7*%
X149960000Y-74250000D02*
X148240000Y-74250000D01*
X148240000Y-74250000D02*
X148240000Y-77970000D01*
X148240000Y-77970000D02*
X149960000Y-77970000D01*
X149960000Y-77970000D02*
X149960000Y-74250000D01*
X149100000Y-73180000D02*
X149100000Y-74250000D01*
X149100000Y-79040000D02*
X149100000Y-77970000D01*
%TO.C,R8*%
X151800000Y-79040000D02*
X151800000Y-77970000D01*
X151800000Y-73180000D02*
X151800000Y-74250000D01*
X152660000Y-77970000D02*
X152660000Y-74250000D01*
X150940000Y-77970000D02*
X152660000Y-77970000D01*
X150940000Y-74250000D02*
X150940000Y-77970000D01*
X152660000Y-74250000D02*
X150940000Y-74250000D01*
D13*
%TO.C,J12*%
X162050400Y-65262000D02*
G75*
G03*
X162050400Y-65262000I-100000J0D01*
G01*
X163155400Y-65912000D02*
X163155400Y-112142000D01*
X158205400Y-65912000D02*
X158205400Y-112142000D01*
X158205400Y-65912000D02*
X163155400Y-65912000D01*
X163155400Y-112142000D02*
X158205400Y-112142000D01*
%TO.C,J9*%
X137040800Y-115697000D02*
G75*
G03*
X137040800Y-115697000I-100000J0D01*
G01*
X158420800Y-116902000D02*
X137590800Y-116902000D01*
X158420800Y-114492000D02*
X137590800Y-114492000D01*
X158420800Y-114492000D02*
X158420800Y-116902000D01*
X137590800Y-116902000D02*
X137590800Y-114492000D01*
%TO.C,J11*%
X114705400Y-116902000D02*
X114705400Y-114492000D01*
X135535400Y-114492000D02*
X135535400Y-116902000D01*
X135535400Y-114492000D02*
X114705400Y-114492000D01*
X135535400Y-116902000D02*
X114705400Y-116902000D01*
X114155400Y-115697000D02*
G75*
G03*
X114155400Y-115697000I-100000J0D01*
G01*
%TO.C,J13*%
X131230800Y-67437000D02*
G75*
G03*
X131230800Y-67437000I-100000J0D01*
G01*
X109650800Y-66232000D02*
X130480800Y-66232000D01*
X109650800Y-68642000D02*
X130480800Y-68642000D01*
X109650800Y-68642000D02*
X109650800Y-66232000D01*
X130480800Y-66232000D02*
X130480800Y-68642000D01*
%TO.C,J14*%
X153340800Y-66232000D02*
X153340800Y-68642000D01*
X132510800Y-68642000D02*
X132510800Y-66232000D01*
X132510800Y-68642000D02*
X153340800Y-68642000D01*
X132510800Y-66232000D02*
X153340800Y-66232000D01*
X154090800Y-67437000D02*
G75*
G03*
X154090800Y-67437000I-100000J0D01*
G01*
%TO.C,J15*%
X109386800Y-67437000D02*
G75*
G03*
X109386800Y-67437000I-100000J0D01*
G01*
X82726800Y-66232000D02*
X108636800Y-66232000D01*
X82726800Y-68642000D02*
X108636800Y-68642000D01*
X82726800Y-68642000D02*
X82726800Y-66232000D01*
X108636800Y-66232000D02*
X108636800Y-68642000D01*
D11*
%TO.C,J8*%
X99147000Y-137960600D02*
X99147000Y-146960600D01*
X59147000Y-146960600D02*
X59147000Y-137960600D01*
X99147000Y-146960600D02*
X59147000Y-146960600D01*
X59147000Y-137960600D02*
X99147000Y-137960600D01*
D13*
X96747000Y-136960600D02*
G75*
G03*
X96747000Y-136960600I-100000J0D01*
G01*
%TO.C,J16*%
X187171000Y-136579600D02*
G75*
G03*
X187171000Y-136579600I-100000J0D01*
G01*
D11*
X149571000Y-137579600D02*
X189571000Y-137579600D01*
X189571000Y-146579600D02*
X149571000Y-146579600D01*
X149571000Y-146579600D02*
X149571000Y-137579600D01*
X189571000Y-137579600D02*
X189571000Y-146579600D01*
D13*
%TO.C,J17*%
X19988200Y9900600D02*
G75*
G03*
X19988200Y9900600I-100000J0D01*
G01*
D11*
X32588200Y700600D02*
X17348200Y700600D01*
X17348200Y8900600D02*
X32588200Y8900600D01*
X32588200Y8900600D02*
X32588200Y700600D01*
X17348200Y700600D02*
X17348200Y8900600D01*
D13*
%TO.C,J18*%
X95451600Y-1215400D02*
G75*
G03*
X95451600Y-1215400I-100000J0D01*
G01*
D11*
X132851600Y-215400D02*
X92851600Y-215400D01*
X92851600Y8784600D02*
X132851600Y8784600D01*
X132851600Y8784600D02*
X132851600Y-215400D01*
X92851600Y-215400D02*
X92851600Y8784600D01*
D12*
%TO.C,D3*%
X106453800Y-20273200D02*
X104213800Y-20273200D01*
X106453800Y-20513200D02*
X104213800Y-20513200D01*
X106453800Y-20393200D02*
X104213800Y-20393200D01*
X105333800Y-24563200D02*
X105333800Y-23913200D01*
X105333800Y-19023200D02*
X105333800Y-19673200D01*
X106453800Y-23913200D02*
X106453800Y-19673200D01*
X104213800Y-23913200D02*
X106453800Y-23913200D01*
X104213800Y-19673200D02*
X104213800Y-23913200D01*
X106453800Y-19673200D02*
X104213800Y-19673200D01*
%TO.C,D4*%
X125041000Y-17803200D02*
X122101000Y-17803200D01*
X122101000Y-17803200D02*
X122101000Y-23243200D01*
X122101000Y-23243200D02*
X125041000Y-23243200D01*
X125041000Y-23243200D02*
X125041000Y-17803200D01*
X123571000Y-16783200D02*
X123571000Y-17803200D01*
X123571000Y-24263200D02*
X123571000Y-23243200D01*
X125041000Y-18703200D02*
X122101000Y-18703200D01*
X125041000Y-18823200D02*
X122101000Y-18823200D01*
X125041000Y-18583200D02*
X122101000Y-18583200D01*
%TO.C,D5*%
X118818000Y-17803200D02*
X115878000Y-17803200D01*
X115878000Y-17803200D02*
X115878000Y-23243200D01*
X115878000Y-23243200D02*
X118818000Y-23243200D01*
X118818000Y-23243200D02*
X118818000Y-17803200D01*
X117348000Y-16783200D02*
X117348000Y-17803200D01*
X117348000Y-24263200D02*
X117348000Y-23243200D01*
X118818000Y-18703200D02*
X115878000Y-18703200D01*
X118818000Y-18823200D02*
X115878000Y-18823200D01*
X118818000Y-18583200D02*
X115878000Y-18583200D01*
%TO.C,D6*%
X131111600Y-18583200D02*
X128171600Y-18583200D01*
X131111600Y-18823200D02*
X128171600Y-18823200D01*
X131111600Y-18703200D02*
X128171600Y-18703200D01*
X129641600Y-24263200D02*
X129641600Y-23243200D01*
X129641600Y-16783200D02*
X129641600Y-17803200D01*
X131111600Y-23243200D02*
X131111600Y-17803200D01*
X128171600Y-23243200D02*
X131111600Y-23243200D01*
X128171600Y-17803200D02*
X128171600Y-23243200D01*
X131111600Y-17803200D02*
X128171600Y-17803200D01*
%TO.C,D7*%
X137283800Y-18583200D02*
X134343800Y-18583200D01*
X137283800Y-18823200D02*
X134343800Y-18823200D01*
X137283800Y-18703200D02*
X134343800Y-18703200D01*
X135813800Y-24263200D02*
X135813800Y-23243200D01*
X135813800Y-16783200D02*
X135813800Y-17803200D01*
X137283800Y-23243200D02*
X137283800Y-17803200D01*
X134343800Y-23243200D02*
X137283800Y-23243200D01*
X134343800Y-17803200D02*
X134343800Y-23243200D01*
X137283800Y-17803200D02*
X134343800Y-17803200D01*
%TO.C,D8*%
X96420800Y-20222400D02*
X94180800Y-20222400D01*
X96420800Y-20462400D02*
X94180800Y-20462400D01*
X96420800Y-20342400D02*
X94180800Y-20342400D01*
X95300800Y-24512400D02*
X95300800Y-23862400D01*
X95300800Y-18972400D02*
X95300800Y-19622400D01*
X96420800Y-23862400D02*
X96420800Y-19622400D01*
X94180800Y-23862400D02*
X96420800Y-23862400D01*
X94180800Y-19622400D02*
X94180800Y-23862400D01*
X96420800Y-19622400D02*
X94180800Y-19622400D01*
%TO.C,D9*%
X101475400Y-19647800D02*
X99235400Y-19647800D01*
X99235400Y-19647800D02*
X99235400Y-23887800D01*
X99235400Y-23887800D02*
X101475400Y-23887800D01*
X101475400Y-23887800D02*
X101475400Y-19647800D01*
X100355400Y-18997800D02*
X100355400Y-19647800D01*
X100355400Y-24537800D02*
X100355400Y-23887800D01*
X101475400Y-20367800D02*
X99235400Y-20367800D01*
X101475400Y-20487800D02*
X99235400Y-20487800D01*
X101475400Y-20247800D02*
X99235400Y-20247800D01*
%TO.C,D10*%
X111432200Y-19673200D02*
X109192200Y-19673200D01*
X109192200Y-19673200D02*
X109192200Y-23913200D01*
X109192200Y-23913200D02*
X111432200Y-23913200D01*
X111432200Y-23913200D02*
X111432200Y-19673200D01*
X110312200Y-19023200D02*
X110312200Y-19673200D01*
X110312200Y-24563200D02*
X110312200Y-23913200D01*
X111432200Y-20393200D02*
X109192200Y-20393200D01*
X111432200Y-20513200D02*
X109192200Y-20513200D01*
X111432200Y-20273200D02*
X109192200Y-20273200D01*
%TO.C,Q2*%
X122070600Y-9534600D02*
X122070600Y-5684600D01*
X121492645Y-9917231D02*
G75*
G03*
X122070600Y-9534600I-1122045J2322631D01*
G01*
X119271793Y-9951000D02*
G75*
G02*
X117770600Y-7594600I1098807J2356400D01*
G01*
X119271793Y-5238200D02*
G75*
G03*
X117770600Y-7594600I1098807J-2356400D01*
G01*
X121482864Y-5292217D02*
G75*
G02*
X122070600Y-5684600I-1112264J-2302383D01*
G01*
%TO.C,Q3*%
X117041400Y-9560000D02*
X117041400Y-5710000D01*
X116463445Y-9942631D02*
G75*
G03*
X117041400Y-9560000I-1122045J2322631D01*
G01*
X114242593Y-9976400D02*
G75*
G02*
X112741400Y-7620000I1098807J2356400D01*
G01*
X114242593Y-5263600D02*
G75*
G03*
X112741400Y-7620000I1098807J-2356400D01*
G01*
X116453664Y-5317617D02*
G75*
G02*
X117041400Y-5710000I-1112264J-2302383D01*
G01*
%TO.C,Q4*%
X127099800Y-9534600D02*
X127099800Y-5684600D01*
X126512064Y-5292217D02*
G75*
G02*
X127099800Y-5684600I-1112264J-2302383D01*
G01*
X124300993Y-5238200D02*
G75*
G03*
X122799800Y-7594600I1098807J-2356400D01*
G01*
X124300993Y-9951000D02*
G75*
G02*
X122799800Y-7594600I1098807J2356400D01*
G01*
X126521845Y-9917231D02*
G75*
G03*
X127099800Y-9534600I-1122045J2322631D01*
G01*
%TO.C,Q5*%
X132052800Y-9534600D02*
X132052800Y-5684600D01*
X131465064Y-5292217D02*
G75*
G02*
X132052800Y-5684600I-1112264J-2302383D01*
G01*
X129253993Y-5238200D02*
G75*
G03*
X127752800Y-7594600I1098807J-2356400D01*
G01*
X129253993Y-9951000D02*
G75*
G02*
X127752800Y-7594600I1098807J2356400D01*
G01*
X131474845Y-9917231D02*
G75*
G03*
X132052800Y-9534600I-1122045J2322631D01*
G01*
%TO.C,R3*%
X74066200Y-34264600D02*
X73116200Y-34264600D01*
X68326200Y-34264600D02*
X69276200Y-34264600D01*
X73116200Y-33344600D02*
X69276200Y-33344600D01*
X73116200Y-35184600D02*
X73116200Y-33344600D01*
X69276200Y-35184600D02*
X73116200Y-35184600D01*
X69276200Y-33344600D02*
X69276200Y-35184600D01*
%TO.C,R4*%
X121443000Y-16901400D02*
X119603000Y-16901400D01*
X119603000Y-16901400D02*
X119603000Y-20741400D01*
X119603000Y-20741400D02*
X121443000Y-20741400D01*
X121443000Y-20741400D02*
X121443000Y-16901400D01*
X120523000Y-15951400D02*
X120523000Y-16901400D01*
X120523000Y-21691400D02*
X120523000Y-20741400D01*
%TO.C,R5*%
X106703800Y-6940800D02*
X103963800Y-6940800D01*
X103963800Y-6940800D02*
X103963800Y-13480800D01*
X103963800Y-13480800D02*
X106703800Y-13480800D01*
X106703800Y-13480800D02*
X106703800Y-6940800D01*
X105333800Y-6170800D02*
X105333800Y-6940800D01*
X105333800Y-14250800D02*
X105333800Y-13480800D01*
%TO.C,R6*%
X114122200Y-21767600D02*
X114122200Y-20817600D01*
X114122200Y-16027600D02*
X114122200Y-16977600D01*
X115042200Y-20817600D02*
X115042200Y-16977600D01*
X113202200Y-20817600D02*
X115042200Y-20817600D01*
X113202200Y-16977600D02*
X113202200Y-20817600D01*
X115042200Y-16977600D02*
X113202200Y-16977600D01*
%TO.C,R9*%
X126695200Y-21640600D02*
X126695200Y-20690600D01*
X126695200Y-15900600D02*
X126695200Y-16850600D01*
X127615200Y-20690600D02*
X127615200Y-16850600D01*
X125775200Y-20690600D02*
X127615200Y-20690600D01*
X125775200Y-16850600D02*
X125775200Y-20690600D01*
X127615200Y-16850600D02*
X125775200Y-16850600D01*
%TO.C,R10*%
X133558800Y-16850600D02*
X131718800Y-16850600D01*
X131718800Y-16850600D02*
X131718800Y-20690600D01*
X131718800Y-20690600D02*
X133558800Y-20690600D01*
X133558800Y-20690600D02*
X133558800Y-16850600D01*
X132638800Y-15900600D02*
X132638800Y-16850600D01*
X132638800Y-21640600D02*
X132638800Y-20690600D01*
%TO.C,R11*%
X95351600Y-14250800D02*
X95351600Y-13480800D01*
X95351600Y-6170800D02*
X95351600Y-6940800D01*
X96721600Y-13480800D02*
X96721600Y-6940800D01*
X93981600Y-13480800D02*
X96721600Y-13480800D01*
X93981600Y-6940800D02*
X93981600Y-13480800D01*
X96721600Y-6940800D02*
X93981600Y-6940800D01*
%TO.C,R12*%
X100355400Y-14250800D02*
X100355400Y-13480800D01*
X100355400Y-6170800D02*
X100355400Y-6940800D01*
X101725400Y-13480800D02*
X101725400Y-6940800D01*
X98985400Y-13480800D02*
X101725400Y-13480800D01*
X98985400Y-6940800D02*
X98985400Y-13480800D01*
X101725400Y-6940800D02*
X98985400Y-6940800D01*
%TO.C,R13*%
X111707600Y-6940800D02*
X108967600Y-6940800D01*
X108967600Y-6940800D02*
X108967600Y-13480800D01*
X108967600Y-13480800D02*
X111707600Y-13480800D01*
X111707600Y-13480800D02*
X111707600Y-6940800D01*
X110337600Y-6170800D02*
X110337600Y-6940800D01*
X110337600Y-14250800D02*
X110337600Y-13480800D01*
%TO.C,D11*%
X114907200Y-104304200D02*
X117147200Y-104304200D01*
X117147200Y-104304200D02*
X117147200Y-100064200D01*
X117147200Y-100064200D02*
X114907200Y-100064200D01*
X114907200Y-100064200D02*
X114907200Y-104304200D01*
X116027200Y-104954200D02*
X116027200Y-104304200D01*
X116027200Y-99414200D02*
X116027200Y-100064200D01*
X114907200Y-103584200D02*
X117147200Y-103584200D01*
X114907200Y-103464200D02*
X117147200Y-103464200D01*
X114907200Y-103704200D02*
X117147200Y-103704200D01*
%TO.C,D12*%
X117498000Y-103704200D02*
X119738000Y-103704200D01*
X117498000Y-103464200D02*
X119738000Y-103464200D01*
X117498000Y-103584200D02*
X119738000Y-103584200D01*
X118618000Y-99414200D02*
X118618000Y-100064200D01*
X118618000Y-104954200D02*
X118618000Y-104304200D01*
X117498000Y-100064200D02*
X117498000Y-104304200D01*
X119738000Y-100064200D02*
X117498000Y-100064200D01*
X119738000Y-104304200D02*
X119738000Y-100064200D01*
X117498000Y-104304200D02*
X119738000Y-104304200D01*
%TO.C,D13*%
X120139600Y-104278800D02*
X122379600Y-104278800D01*
X122379600Y-104278800D02*
X122379600Y-100038800D01*
X122379600Y-100038800D02*
X120139600Y-100038800D01*
X120139600Y-100038800D02*
X120139600Y-104278800D01*
X121259600Y-104928800D02*
X121259600Y-104278800D01*
X121259600Y-99388800D02*
X121259600Y-100038800D01*
X120139600Y-103558800D02*
X122379600Y-103558800D01*
X120139600Y-103438800D02*
X122379600Y-103438800D01*
X120139600Y-103678800D02*
X122379600Y-103678800D01*
%TO.C,D14*%
X122730400Y-103678800D02*
X124970400Y-103678800D01*
X122730400Y-103438800D02*
X124970400Y-103438800D01*
X122730400Y-103558800D02*
X124970400Y-103558800D01*
X123850400Y-99388800D02*
X123850400Y-100038800D01*
X123850400Y-104928800D02*
X123850400Y-104278800D01*
X122730400Y-100038800D02*
X122730400Y-104278800D01*
X124970400Y-100038800D02*
X122730400Y-100038800D01*
X124970400Y-104278800D02*
X124970400Y-100038800D01*
X122730400Y-104278800D02*
X124970400Y-104278800D01*
%TO.C,D15*%
X125372000Y-103678800D02*
X127612000Y-103678800D01*
X125372000Y-103438800D02*
X127612000Y-103438800D01*
X125372000Y-103558800D02*
X127612000Y-103558800D01*
X126492000Y-99388800D02*
X126492000Y-100038800D01*
X126492000Y-104928800D02*
X126492000Y-104278800D01*
X125372000Y-100038800D02*
X125372000Y-104278800D01*
X127612000Y-100038800D02*
X125372000Y-100038800D01*
X127612000Y-104278800D02*
X127612000Y-100038800D01*
X125372000Y-104278800D02*
X127612000Y-104278800D01*
%TO.C,D16*%
X127962800Y-104253400D02*
X130202800Y-104253400D01*
X130202800Y-104253400D02*
X130202800Y-100013400D01*
X130202800Y-100013400D02*
X127962800Y-100013400D01*
X127962800Y-100013400D02*
X127962800Y-104253400D01*
X129082800Y-104903400D02*
X129082800Y-104253400D01*
X129082800Y-99363400D02*
X129082800Y-100013400D01*
X127962800Y-103533400D02*
X130202800Y-103533400D01*
X127962800Y-103413400D02*
X130202800Y-103413400D01*
X127962800Y-103653400D02*
X130202800Y-103653400D01*
%TO.C,D17*%
X130604400Y-103678800D02*
X132844400Y-103678800D01*
X130604400Y-103438800D02*
X132844400Y-103438800D01*
X130604400Y-103558800D02*
X132844400Y-103558800D01*
X131724400Y-99388800D02*
X131724400Y-100038800D01*
X131724400Y-104928800D02*
X131724400Y-104278800D01*
X130604400Y-100038800D02*
X130604400Y-104278800D01*
X132844400Y-100038800D02*
X130604400Y-100038800D01*
X132844400Y-104278800D02*
X132844400Y-100038800D01*
X130604400Y-104278800D02*
X132844400Y-104278800D01*
%TO.C,D18*%
X133195200Y-104253400D02*
X135435200Y-104253400D01*
X135435200Y-104253400D02*
X135435200Y-100013400D01*
X135435200Y-100013400D02*
X133195200Y-100013400D01*
X133195200Y-100013400D02*
X133195200Y-104253400D01*
X134315200Y-104903400D02*
X134315200Y-104253400D01*
X134315200Y-99363400D02*
X134315200Y-100013400D01*
X133195200Y-103533400D02*
X135435200Y-103533400D01*
X133195200Y-103413400D02*
X135435200Y-103413400D01*
X133195200Y-103653400D02*
X135435200Y-103653400D01*
%TO.C,R14*%
X105589400Y-133699000D02*
X108329400Y-133699000D01*
X108329400Y-133699000D02*
X108329400Y-127159000D01*
X108329400Y-127159000D02*
X105589400Y-127159000D01*
X105589400Y-127159000D02*
X105589400Y-133699000D01*
X106959400Y-134469000D02*
X106959400Y-133699000D01*
X106959400Y-126389000D02*
X106959400Y-127159000D01*
%TO.C,R15*%
X111810800Y-126363600D02*
X111810800Y-127133600D01*
X111810800Y-134443600D02*
X111810800Y-133673600D01*
X110440800Y-127133600D02*
X110440800Y-133673600D01*
X113180800Y-127133600D02*
X110440800Y-127133600D01*
X113180800Y-133673600D02*
X113180800Y-127133600D01*
X110440800Y-133673600D02*
X113180800Y-133673600D01*
%TO.C,R16*%
X115495400Y-133673600D02*
X118235400Y-133673600D01*
X118235400Y-133673600D02*
X118235400Y-127133600D01*
X118235400Y-127133600D02*
X115495400Y-127133600D01*
X115495400Y-127133600D02*
X115495400Y-133673600D01*
X116865400Y-134443600D02*
X116865400Y-133673600D01*
X116865400Y-126363600D02*
X116865400Y-127133600D01*
%TO.C,R17*%
X120473800Y-133572000D02*
X123213800Y-133572000D01*
X123213800Y-133572000D02*
X123213800Y-127032000D01*
X123213800Y-127032000D02*
X120473800Y-127032000D01*
X120473800Y-127032000D02*
X120473800Y-133572000D01*
X121843800Y-134342000D02*
X121843800Y-133572000D01*
X121843800Y-126262000D02*
X121843800Y-127032000D01*
%TO.C,R18*%
X126822200Y-126160400D02*
X126822200Y-126930400D01*
X126822200Y-134240400D02*
X126822200Y-133470400D01*
X125452200Y-126930400D02*
X125452200Y-133470400D01*
X128192200Y-126930400D02*
X125452200Y-126930400D01*
X128192200Y-133470400D02*
X128192200Y-126930400D01*
X125452200Y-133470400D02*
X128192200Y-133470400D01*
%TO.C,R19*%
X130532200Y-133495800D02*
X133272200Y-133495800D01*
X133272200Y-133495800D02*
X133272200Y-126955800D01*
X133272200Y-126955800D02*
X130532200Y-126955800D01*
X130532200Y-126955800D02*
X130532200Y-133495800D01*
X131902200Y-134265800D02*
X131902200Y-133495800D01*
X131902200Y-126185800D02*
X131902200Y-126955800D01*
%TO.C,R20*%
X136880600Y-126185800D02*
X136880600Y-126955800D01*
X136880600Y-134265800D02*
X136880600Y-133495800D01*
X135510600Y-126955800D02*
X135510600Y-133495800D01*
X138250600Y-126955800D02*
X135510600Y-126955800D01*
X138250600Y-133495800D02*
X138250600Y-126955800D01*
X135510600Y-133495800D02*
X138250600Y-133495800D01*
%TO.C,R21*%
X141884400Y-126084200D02*
X141884400Y-126854200D01*
X141884400Y-134164200D02*
X141884400Y-133394200D01*
X140514400Y-126854200D02*
X140514400Y-133394200D01*
X143254400Y-126854200D02*
X140514400Y-126854200D01*
X143254400Y-133394200D02*
X143254400Y-126854200D01*
X140514400Y-133394200D02*
X143254400Y-133394200D01*
%TO.C,R22*%
X169001001Y-53368001D02*
X169001001Y-56108001D01*
X169001001Y-56108001D02*
X175541001Y-56108001D01*
X175541001Y-56108001D02*
X175541001Y-53368001D01*
X175541001Y-53368001D02*
X169001001Y-53368001D01*
X168231001Y-54738001D02*
X169001001Y-54738001D01*
X176311001Y-54738001D02*
X175541001Y-54738001D01*
%TO.C,R23*%
X176311001Y-58788001D02*
X175541001Y-58788001D01*
X168231001Y-58788001D02*
X169001001Y-58788001D01*
X175541001Y-57418001D02*
X169001001Y-57418001D01*
X175541001Y-60158001D02*
X175541001Y-57418001D01*
X169001001Y-60158001D02*
X175541001Y-60158001D01*
X169001001Y-57418001D02*
X169001001Y-60158001D01*
%TO.C,J19*%
X113521800Y-59800800D02*
X113521800Y-57140800D01*
X103301800Y-59800800D02*
X113521800Y-59800800D01*
X103301800Y-57140800D02*
X113521800Y-57140800D01*
X103301800Y-59800800D02*
X103301800Y-57140800D01*
X102031800Y-59800800D02*
X100701800Y-59800800D01*
X100701800Y-59800800D02*
X100701800Y-58470800D01*
%TO.C,C2*%
X110734918Y-36744800D02*
X110734918Y-37994800D01*
X110109918Y-37369800D02*
X111359918Y-37369800D01*
X123288000Y-40627800D02*
X123288000Y-41261800D01*
X123248000Y-40187800D02*
X123248000Y-41701800D01*
X123208000Y-39916800D02*
X123208000Y-41972800D01*
X123168000Y-39703800D02*
X123168000Y-42185800D01*
X123128000Y-39522800D02*
X123128000Y-42366800D01*
X123088000Y-39361800D02*
X123088000Y-42527800D01*
X123048000Y-39216800D02*
X123048000Y-42672800D01*
X123008000Y-39083800D02*
X123008000Y-42805800D01*
X122968000Y-38960800D02*
X122968000Y-42928800D01*
X122928000Y-38844800D02*
X122928000Y-43044800D01*
X122888000Y-38735800D02*
X122888000Y-43153800D01*
X122848000Y-38632800D02*
X122848000Y-43256800D01*
X122808000Y-38534800D02*
X122808000Y-43354800D01*
X122768000Y-38440800D02*
X122768000Y-43448800D01*
X122728000Y-38350800D02*
X122728000Y-43538800D01*
X122688000Y-38263800D02*
X122688000Y-43625800D01*
X122648000Y-38180800D02*
X122648000Y-43708800D01*
X122608000Y-38100800D02*
X122608000Y-43788800D01*
X122568000Y-38023800D02*
X122568000Y-43865800D01*
X122528000Y-37948800D02*
X122528000Y-43940800D01*
X122488000Y-37875800D02*
X122488000Y-44013800D01*
X122448000Y-37804800D02*
X122448000Y-44084800D01*
X122408000Y-37736800D02*
X122408000Y-44152800D01*
X122368000Y-37669800D02*
X122368000Y-44219800D01*
X122328000Y-37605800D02*
X122328000Y-44283800D01*
X122288000Y-37542800D02*
X122288000Y-44346800D01*
X122248000Y-37480800D02*
X122248000Y-44408800D01*
X122208000Y-37420800D02*
X122208000Y-44468800D01*
X122168000Y-37361800D02*
X122168000Y-44527800D01*
X122128000Y-37304800D02*
X122128000Y-44584800D01*
X122088000Y-37248800D02*
X122088000Y-44640800D01*
X122048000Y-37194800D02*
X122048000Y-44694800D01*
X122008000Y-37140800D02*
X122008000Y-44748800D01*
X121968000Y-37088800D02*
X121968000Y-44800800D01*
X121928000Y-37037800D02*
X121928000Y-44851800D01*
X121888000Y-36987800D02*
X121888000Y-44901800D01*
X121848000Y-36937800D02*
X121848000Y-44951800D01*
X121808000Y-36889800D02*
X121808000Y-44999800D01*
X121768000Y-36842800D02*
X121768000Y-45046800D01*
X121728000Y-36796800D02*
X121728000Y-45092800D01*
X121688000Y-36750800D02*
X121688000Y-45138800D01*
X121648000Y-36706800D02*
X121648000Y-45182800D01*
X121608000Y-36662800D02*
X121608000Y-45226800D01*
X121568000Y-36619800D02*
X121568000Y-45269800D01*
X121528000Y-36577800D02*
X121528000Y-45311800D01*
X121488000Y-36536800D02*
X121488000Y-45352800D01*
X121448000Y-36495800D02*
X121448000Y-45393800D01*
X121408000Y-36455800D02*
X121408000Y-45433800D01*
X121368000Y-36416800D02*
X121368000Y-45472800D01*
X121328000Y-36377800D02*
X121328000Y-45511800D01*
X121288000Y-36339800D02*
X121288000Y-45549800D01*
X121248000Y-36302800D02*
X121248000Y-45586800D01*
X121208000Y-36266800D02*
X121208000Y-45622800D01*
X121168000Y-36230800D02*
X121168000Y-45658800D01*
X121128000Y-36194800D02*
X121128000Y-45694800D01*
X121088000Y-36159800D02*
X121088000Y-45729800D01*
X121048000Y-36125800D02*
X121048000Y-45763800D01*
X121008000Y-36092800D02*
X121008000Y-45796800D01*
X120968000Y-36059800D02*
X120968000Y-45829800D01*
X120928000Y-36026800D02*
X120928000Y-45862800D01*
X120888000Y-35994800D02*
X120888000Y-45894800D01*
X120848000Y-42384800D02*
X120848000Y-45926800D01*
X120848000Y-35962800D02*
X120848000Y-39504800D01*
X120808000Y-42384800D02*
X120808000Y-45956800D01*
X120808000Y-35932800D02*
X120808000Y-39504800D01*
X120768000Y-42384800D02*
X120768000Y-45987800D01*
X120768000Y-35901800D02*
X120768000Y-39504800D01*
X120728000Y-42384800D02*
X120728000Y-46017800D01*
X120728000Y-35871800D02*
X120728000Y-39504800D01*
X120688000Y-42384800D02*
X120688000Y-46046800D01*
X120688000Y-35842800D02*
X120688000Y-39504800D01*
X120648000Y-42384800D02*
X120648000Y-46075800D01*
X120648000Y-35813800D02*
X120648000Y-39504800D01*
X120608000Y-42384800D02*
X120608000Y-46104800D01*
X120608000Y-35784800D02*
X120608000Y-39504800D01*
X120568000Y-42384800D02*
X120568000Y-46132800D01*
X120568000Y-35756800D02*
X120568000Y-39504800D01*
X120528000Y-42384800D02*
X120528000Y-46160800D01*
X120528000Y-35728800D02*
X120528000Y-39504800D01*
X120488000Y-42384800D02*
X120488000Y-46187800D01*
X120488000Y-35701800D02*
X120488000Y-39504800D01*
X120448000Y-42384800D02*
X120448000Y-46214800D01*
X120448000Y-35674800D02*
X120448000Y-39504800D01*
X120408000Y-42384800D02*
X120408000Y-46240800D01*
X120408000Y-35648800D02*
X120408000Y-39504800D01*
X120368000Y-42384800D02*
X120368000Y-46266800D01*
X120368000Y-35622800D02*
X120368000Y-39504800D01*
X120328000Y-42384800D02*
X120328000Y-46291800D01*
X120328000Y-35597800D02*
X120328000Y-39504800D01*
X120288000Y-42384800D02*
X120288000Y-46316800D01*
X120288000Y-35572800D02*
X120288000Y-39504800D01*
X120248000Y-42384800D02*
X120248000Y-46341800D01*
X120248000Y-35547800D02*
X120248000Y-39504800D01*
X120208000Y-42384800D02*
X120208000Y-46365800D01*
X120208000Y-35523800D02*
X120208000Y-39504800D01*
X120168000Y-42384800D02*
X120168000Y-46389800D01*
X120168000Y-35499800D02*
X120168000Y-39504800D01*
X120128000Y-42384800D02*
X120128000Y-46412800D01*
X120128000Y-35476800D02*
X120128000Y-39504800D01*
X120088000Y-42384800D02*
X120088000Y-46435800D01*
X120088000Y-35453800D02*
X120088000Y-39504800D01*
X120048000Y-42384800D02*
X120048000Y-46458800D01*
X120048000Y-35430800D02*
X120048000Y-39504800D01*
X120008000Y-42384800D02*
X120008000Y-46480800D01*
X120008000Y-35408800D02*
X120008000Y-39504800D01*
X119968000Y-42384800D02*
X119968000Y-46502800D01*
X119968000Y-35386800D02*
X119968000Y-39504800D01*
X119928000Y-42384800D02*
X119928000Y-46524800D01*
X119928000Y-35364800D02*
X119928000Y-39504800D01*
X119888000Y-42384800D02*
X119888000Y-46545800D01*
X119888000Y-35343800D02*
X119888000Y-39504800D01*
X119848000Y-42384800D02*
X119848000Y-46566800D01*
X119848000Y-35322800D02*
X119848000Y-39504800D01*
X119808000Y-42384800D02*
X119808000Y-46586800D01*
X119808000Y-35302800D02*
X119808000Y-39504800D01*
X119768000Y-42384800D02*
X119768000Y-46606800D01*
X119768000Y-35282800D02*
X119768000Y-39504800D01*
X119728000Y-42384800D02*
X119728000Y-46626800D01*
X119728000Y-35262800D02*
X119728000Y-39504800D01*
X119688000Y-42384800D02*
X119688000Y-46646800D01*
X119688000Y-35242800D02*
X119688000Y-39504800D01*
X119648000Y-42384800D02*
X119648000Y-46665800D01*
X119648000Y-35223800D02*
X119648000Y-39504800D01*
X119608000Y-42384800D02*
X119608000Y-46683800D01*
X119608000Y-35205800D02*
X119608000Y-39504800D01*
X119568000Y-42384800D02*
X119568000Y-46702800D01*
X119568000Y-35186800D02*
X119568000Y-39504800D01*
X119528000Y-42384800D02*
X119528000Y-46720800D01*
X119528000Y-35168800D02*
X119528000Y-39504800D01*
X119488000Y-42384800D02*
X119488000Y-46737800D01*
X119488000Y-35151800D02*
X119488000Y-39504800D01*
X119448000Y-42384800D02*
X119448000Y-46755800D01*
X119448000Y-35133800D02*
X119448000Y-39504800D01*
X119408000Y-42384800D02*
X119408000Y-46772800D01*
X119408000Y-35116800D02*
X119408000Y-39504800D01*
X119368000Y-42384800D02*
X119368000Y-46789800D01*
X119368000Y-35099800D02*
X119368000Y-39504800D01*
X119328000Y-42384800D02*
X119328000Y-46805800D01*
X119328000Y-35083800D02*
X119328000Y-39504800D01*
X119288000Y-42384800D02*
X119288000Y-46821800D01*
X119288000Y-35067800D02*
X119288000Y-39504800D01*
X119248000Y-42384800D02*
X119248000Y-46837800D01*
X119248000Y-35051800D02*
X119248000Y-39504800D01*
X119208000Y-42384800D02*
X119208000Y-46852800D01*
X119208000Y-35036800D02*
X119208000Y-39504800D01*
X119168000Y-42384800D02*
X119168000Y-46868800D01*
X119168000Y-35020800D02*
X119168000Y-39504800D01*
X119128000Y-42384800D02*
X119128000Y-46883800D01*
X119128000Y-35005800D02*
X119128000Y-39504800D01*
X119088000Y-42384800D02*
X119088000Y-46897800D01*
X119088000Y-34991800D02*
X119088000Y-39504800D01*
X119048000Y-42384800D02*
X119048000Y-46911800D01*
X119048000Y-34977800D02*
X119048000Y-39504800D01*
X119008000Y-42384800D02*
X119008000Y-46925800D01*
X119008000Y-34963800D02*
X119008000Y-39504800D01*
X118968000Y-42384800D02*
X118968000Y-46939800D01*
X118968000Y-34949800D02*
X118968000Y-39504800D01*
X118928000Y-42384800D02*
X118928000Y-46952800D01*
X118928000Y-34936800D02*
X118928000Y-39504800D01*
X118888000Y-42384800D02*
X118888000Y-46965800D01*
X118888000Y-34923800D02*
X118888000Y-39504800D01*
X118848000Y-42384800D02*
X118848000Y-46978800D01*
X118848000Y-34910800D02*
X118848000Y-39504800D01*
X118808000Y-42384800D02*
X118808000Y-46991800D01*
X118808000Y-34897800D02*
X118808000Y-39504800D01*
X118768000Y-42384800D02*
X118768000Y-47003800D01*
X118768000Y-34885800D02*
X118768000Y-39504800D01*
X118728000Y-42384800D02*
X118728000Y-47015800D01*
X118728000Y-34873800D02*
X118728000Y-39504800D01*
X118688000Y-42384800D02*
X118688000Y-47027800D01*
X118688000Y-34861800D02*
X118688000Y-39504800D01*
X118648000Y-42384800D02*
X118648000Y-47038800D01*
X118648000Y-34850800D02*
X118648000Y-39504800D01*
X118608000Y-42384800D02*
X118608000Y-47049800D01*
X118608000Y-34839800D02*
X118608000Y-39504800D01*
X118568000Y-42384800D02*
X118568000Y-47060800D01*
X118568000Y-34828800D02*
X118568000Y-39504800D01*
X118528000Y-42384800D02*
X118528000Y-47070800D01*
X118528000Y-34818800D02*
X118528000Y-39504800D01*
X118488000Y-42384800D02*
X118488000Y-47081800D01*
X118488000Y-34807800D02*
X118488000Y-39504800D01*
X118448000Y-42384800D02*
X118448000Y-47090800D01*
X118448000Y-34798800D02*
X118448000Y-39504800D01*
X118408000Y-42384800D02*
X118408000Y-47100800D01*
X118408000Y-34788800D02*
X118408000Y-39504800D01*
X118368000Y-42384800D02*
X118368000Y-47110800D01*
X118368000Y-34778800D02*
X118368000Y-39504800D01*
X118328000Y-42384800D02*
X118328000Y-47119800D01*
X118328000Y-34769800D02*
X118328000Y-39504800D01*
X118288000Y-42384800D02*
X118288000Y-47128800D01*
X118288000Y-34760800D02*
X118288000Y-39504800D01*
X118248000Y-42384800D02*
X118248000Y-47136800D01*
X118248000Y-34752800D02*
X118248000Y-39504800D01*
X118208000Y-42384800D02*
X118208000Y-47145800D01*
X118208000Y-34743800D02*
X118208000Y-39504800D01*
X118168000Y-42384800D02*
X118168000Y-47153800D01*
X118168000Y-34735800D02*
X118168000Y-39504800D01*
X118128000Y-42384800D02*
X118128000Y-47160800D01*
X118128000Y-34728800D02*
X118128000Y-39504800D01*
X118088000Y-42384800D02*
X118088000Y-47168800D01*
X118088000Y-34720800D02*
X118088000Y-39504800D01*
X118048000Y-42384800D02*
X118048000Y-47175800D01*
X118048000Y-34713800D02*
X118048000Y-39504800D01*
X118008000Y-42384800D02*
X118008000Y-47182800D01*
X118008000Y-34706800D02*
X118008000Y-39504800D01*
X117968000Y-34699800D02*
X117968000Y-47189800D01*
X117928000Y-34692800D02*
X117928000Y-47196800D01*
X117888000Y-34686800D02*
X117888000Y-47202800D01*
X117848000Y-34680800D02*
X117848000Y-47208800D01*
X117808000Y-34675800D02*
X117808000Y-47213800D01*
X117768000Y-34669800D02*
X117768000Y-47219800D01*
X117728000Y-34664800D02*
X117728000Y-47224800D01*
X117688000Y-34659800D02*
X117688000Y-47229800D01*
X117648000Y-34654800D02*
X117648000Y-47234800D01*
X117607000Y-34650800D02*
X117607000Y-47238800D01*
X117567000Y-34646800D02*
X117567000Y-47242800D01*
X117527000Y-34642800D02*
X117527000Y-47246800D01*
X117487000Y-34638800D02*
X117487000Y-47250800D01*
X117447000Y-34635800D02*
X117447000Y-47253800D01*
X117407000Y-34632800D02*
X117407000Y-47256800D01*
X117367000Y-34629800D02*
X117367000Y-47259800D01*
X117327000Y-34626800D02*
X117327000Y-47262800D01*
X117287000Y-34624800D02*
X117287000Y-47264800D01*
X117247000Y-34622800D02*
X117247000Y-47266800D01*
X117207000Y-34620800D02*
X117207000Y-47268800D01*
X117167000Y-34618800D02*
X117167000Y-47270800D01*
X117127000Y-34617800D02*
X117127000Y-47271800D01*
X117087000Y-34616800D02*
X117087000Y-47272800D01*
X117047000Y-34615800D02*
X117047000Y-47273800D01*
X117007000Y-34614800D02*
X117007000Y-47274800D01*
X116967000Y-34614800D02*
X116967000Y-47274800D01*
X116927000Y-34614800D02*
X116927000Y-47274800D01*
X123297000Y-40944800D02*
G75*
G03*
X123297000Y-40944800I-6370000J0D01*
G01*
%TO.C,D19*%
X98251200Y-50390000D02*
X98251200Y-41050000D01*
X98251200Y-41050000D02*
X88911200Y-41050000D01*
X88911200Y-41050000D02*
X88911200Y-50390000D01*
X88911200Y-50390000D02*
X98251200Y-50390000D01*
X101741200Y-45720000D02*
X98251200Y-45720000D01*
X85421200Y-45720000D02*
X88911200Y-45720000D01*
X96766200Y-50390000D02*
X96766200Y-41050000D01*
X96646200Y-50390000D02*
X96646200Y-41050000D01*
X96886200Y-50390000D02*
X96886200Y-41050000D01*
%TO.C,D20*%
X97089400Y-39315600D02*
X97089400Y-29975600D01*
X96849400Y-39315600D02*
X96849400Y-29975600D01*
X96969400Y-39315600D02*
X96969400Y-29975600D01*
X85624400Y-34645600D02*
X89114400Y-34645600D01*
X101944400Y-34645600D02*
X98454400Y-34645600D01*
X89114400Y-39315600D02*
X98454400Y-39315600D01*
X89114400Y-29975600D02*
X89114400Y-39315600D01*
X98454400Y-29975600D02*
X89114400Y-29975600D01*
X98454400Y-39315600D02*
X98454400Y-29975600D01*
D13*
%TO.C,J21*%
X48537800Y9113200D02*
G75*
G03*
X48537800Y9113200I-100000J0D01*
G01*
D11*
X61137800Y-86800D02*
X45897800Y-86800D01*
X45897800Y8113200D02*
X61137800Y8113200D01*
X61137800Y8113200D02*
X61137800Y-86800D01*
X45897800Y-86800D02*
X45897800Y8113200D01*
D13*
%TO.C,J20*%
X72490000Y-1850400D02*
G75*
G03*
X72490000Y-1850400I-100000J0D01*
G01*
D11*
X79890000Y-850400D02*
X69890000Y-850400D01*
X69890000Y8149600D02*
X79890000Y8149600D01*
X79890000Y8149600D02*
X79890000Y-850400D01*
X69890000Y-850400D02*
X69890000Y8149600D01*
D13*
%TO.C,J22*%
X131722800Y-85607400D02*
G75*
G03*
X131722800Y-85607400I-100000J0D01*
G01*
X132827800Y-86257400D02*
X132827800Y-94387400D01*
X127877800Y-86257400D02*
X127877800Y-94387400D01*
X127877800Y-86257400D02*
X132827800Y-86257400D01*
X132827800Y-94387400D02*
X127877800Y-94387400D01*
%TO.C,J10*%
X91320800Y-115697000D02*
G75*
G03*
X91320800Y-115697000I-100000J0D01*
G01*
X112700800Y-116902000D02*
X91870800Y-116902000D01*
X112700800Y-114492000D02*
X91870800Y-114492000D01*
X112700800Y-114492000D02*
X112700800Y-116902000D01*
X91870800Y-116902000D02*
X91870800Y-114492000D01*
%TO.C,U1*%
D10*
X67228096Y-63341381D02*
X67228096Y-64150905D01*
X67275715Y-64246143D01*
X67323334Y-64293762D01*
X67418572Y-64341381D01*
X67609048Y-64341381D01*
X67704286Y-64293762D01*
X67751905Y-64246143D01*
X67799524Y-64150905D01*
X67799524Y-63341381D01*
X68799524Y-64341381D02*
X68228096Y-64341381D01*
X68513810Y-64341381D02*
X68513810Y-63341381D01*
X68418572Y-63484239D01*
X68323334Y-63579477D01*
X68228096Y-63627096D01*
X127934001Y-86598143D02*
X127981620Y-86645762D01*
X127934001Y-86693381D01*
X127886381Y-86645762D01*
X127934001Y-86598143D01*
X127934001Y-86693381D01*
%TO.C,HS1*%
D16*
X143623904Y-13822380D02*
X143623904Y-12822380D01*
X143623904Y-13298571D02*
X144195333Y-13298571D01*
X144195333Y-13822380D02*
X144195333Y-12822380D01*
X144623904Y-13774761D02*
X144766761Y-13822380D01*
X145004857Y-13822380D01*
X145100095Y-13774761D01*
X145147714Y-13727142D01*
X145195333Y-13631904D01*
X145195333Y-13536666D01*
X145147714Y-13441428D01*
X145100095Y-13393809D01*
X145004857Y-13346190D01*
X144814380Y-13298571D01*
X144719142Y-13250952D01*
X144671523Y-13203333D01*
X144623904Y-13108095D01*
X144623904Y-13012857D01*
X144671523Y-12917619D01*
X144719142Y-12870000D01*
X144814380Y-12822380D01*
X145052476Y-12822380D01*
X145195333Y-12870000D01*
X146147714Y-13822380D02*
X145576285Y-13822380D01*
X145862000Y-13822380D02*
X145862000Y-12822380D01*
X145766761Y-12965238D01*
X145671523Y-13060476D01*
X145576285Y-13108095D01*
%TO.C,C1*%
D10*
X38577142Y-61166666D02*
X38624761Y-61214285D01*
X38672380Y-61357142D01*
X38672380Y-61452380D01*
X38624761Y-61595238D01*
X38529523Y-61690476D01*
X38434285Y-61738095D01*
X38243809Y-61785714D01*
X38100952Y-61785714D01*
X37910476Y-61738095D01*
X37815238Y-61690476D01*
X37720000Y-61595238D01*
X37672380Y-61452380D01*
X37672380Y-61357142D01*
X37720000Y-61214285D01*
X37767619Y-61166666D01*
X38672380Y-60214285D02*
X38672380Y-60785714D01*
X38672380Y-60500000D02*
X37672380Y-60500000D01*
X37815238Y-60595238D01*
X37910476Y-60690476D01*
X37958095Y-60785714D01*
%TO.C,J1*%
D16*
X140447333Y-148057533D02*
X140447333Y-149057533D01*
X140380666Y-149257533D01*
X140247333Y-149390866D01*
X140047333Y-149457533D01*
X139914000Y-149457533D01*
X141847333Y-149457533D02*
X141047333Y-149457533D01*
X141447333Y-149457533D02*
X141447333Y-148057533D01*
X141314000Y-148257533D01*
X141180666Y-148390866D01*
X141047333Y-148457533D01*
%TO.C,J2*%
D10*
X138096666Y-50462380D02*
X138096666Y-51176666D01*
X138049047Y-51319523D01*
X137953809Y-51414761D01*
X137810952Y-51462380D01*
X137715714Y-51462380D01*
X138525238Y-50557619D02*
X138572857Y-50510000D01*
X138668095Y-50462380D01*
X138906190Y-50462380D01*
X139001428Y-50510000D01*
X139049047Y-50557619D01*
X139096666Y-50652857D01*
X139096666Y-50748095D01*
X139049047Y-50890952D01*
X138477619Y-51462380D01*
X139096666Y-51462380D01*
%TO.C,J3*%
X133016666Y-50462380D02*
X133016666Y-51176666D01*
X132969047Y-51319523D01*
X132873809Y-51414761D01*
X132730952Y-51462380D01*
X132635714Y-51462380D01*
X133397619Y-50462380D02*
X134016666Y-50462380D01*
X133683333Y-50843333D01*
X133826190Y-50843333D01*
X133921428Y-50890952D01*
X133969047Y-50938571D01*
X134016666Y-51033809D01*
X134016666Y-51271904D01*
X133969047Y-51367142D01*
X133921428Y-51414761D01*
X133826190Y-51462380D01*
X133540476Y-51462380D01*
X133445238Y-51414761D01*
X133397619Y-51367142D01*
%TO.C,J4*%
X138325266Y-45026780D02*
X138325266Y-45741066D01*
X138277647Y-45883923D01*
X138182409Y-45979161D01*
X138039552Y-46026780D01*
X137944314Y-46026780D01*
X139230028Y-45360114D02*
X139230028Y-46026780D01*
X138991933Y-44979161D02*
X138753838Y-45693447D01*
X139372885Y-45693447D01*
%TO.C,J5*%
X122856666Y-60202380D02*
X122856666Y-60916666D01*
X122809047Y-61059523D01*
X122713809Y-61154761D01*
X122570952Y-61202380D01*
X122475714Y-61202380D01*
X123809047Y-60202380D02*
X123332857Y-60202380D01*
X123285238Y-60678571D01*
X123332857Y-60630952D01*
X123428095Y-60583333D01*
X123666190Y-60583333D01*
X123761428Y-60630952D01*
X123809047Y-60678571D01*
X123856666Y-60773809D01*
X123856666Y-61011904D01*
X123809047Y-61107142D01*
X123761428Y-61154761D01*
X123666190Y-61202380D01*
X123428095Y-61202380D01*
X123332857Y-61154761D01*
X123285238Y-61107142D01*
%TO.C,J6*%
X127936666Y-60202380D02*
X127936666Y-60916666D01*
X127889047Y-61059523D01*
X127793809Y-61154761D01*
X127650952Y-61202380D01*
X127555714Y-61202380D01*
X128841428Y-60202380D02*
X128650952Y-60202380D01*
X128555714Y-60250000D01*
X128508095Y-60297619D01*
X128412857Y-60440476D01*
X128365238Y-60630952D01*
X128365238Y-61011904D01*
X128412857Y-61107142D01*
X128460476Y-61154761D01*
X128555714Y-61202380D01*
X128746190Y-61202380D01*
X128841428Y-61154761D01*
X128889047Y-61107142D01*
X128936666Y-61011904D01*
X128936666Y-60773809D01*
X128889047Y-60678571D01*
X128841428Y-60630952D01*
X128746190Y-60583333D01*
X128555714Y-60583333D01*
X128460476Y-60630952D01*
X128412857Y-60678571D01*
X128365238Y-60773809D01*
%TO.C,J7*%
D16*
X139797333Y11237066D02*
X139797333Y10237066D01*
X139730666Y10037066D01*
X139597333Y9903733D01*
X139397333Y9837066D01*
X139264000Y9837066D01*
X140330666Y11237066D02*
X141264000Y11237066D01*
X140664000Y9837066D01*
%TO.C,Q1*%
D15*
X51934857Y-32797714D02*
X51792000Y-33083428D01*
X51506285Y-33369142D01*
X51077714Y-33797714D01*
X50934857Y-34083428D01*
X50934857Y-34369142D01*
X51649142Y-34226285D02*
X51506285Y-34512000D01*
X51220571Y-34797714D01*
X50649142Y-34940571D01*
X49649142Y-34940571D01*
X49077714Y-34797714D01*
X48792000Y-34512000D01*
X48649142Y-34226285D01*
X48649142Y-33654857D01*
X48792000Y-33369142D01*
X49077714Y-33083428D01*
X49649142Y-32940571D01*
X50649142Y-32940571D01*
X51220571Y-33083428D01*
X51506285Y-33369142D01*
X51649142Y-33654857D01*
X51649142Y-34226285D01*
X51649142Y-30083428D02*
X51649142Y-31797714D01*
X51649142Y-30940571D02*
X48649142Y-30940571D01*
X49077714Y-31226285D01*
X49363428Y-31512000D01*
X49506285Y-31797714D01*
%TO.C,R2*%
D10*
X162393333Y-42532380D02*
X162060000Y-42056190D01*
X161821904Y-42532380D02*
X161821904Y-41532380D01*
X162202857Y-41532380D01*
X162298095Y-41580000D01*
X162345714Y-41627619D01*
X162393333Y-41722857D01*
X162393333Y-41865714D01*
X162345714Y-41960952D01*
X162298095Y-42008571D01*
X162202857Y-42056190D01*
X161821904Y-42056190D01*
X162774285Y-41627619D02*
X162821904Y-41580000D01*
X162917142Y-41532380D01*
X163155238Y-41532380D01*
X163250476Y-41580000D01*
X163298095Y-41627619D01*
X163345714Y-41722857D01*
X163345714Y-41818095D01*
X163298095Y-41960952D01*
X162726666Y-42532380D01*
X163345714Y-42532380D01*
%TO.C,U2*%
D16*
X149407380Y-58086904D02*
X150216904Y-58086904D01*
X150312142Y-58039285D01*
X150359761Y-57991666D01*
X150407380Y-57896428D01*
X150407380Y-57705952D01*
X150359761Y-57610714D01*
X150312142Y-57563095D01*
X150216904Y-57515476D01*
X149407380Y-57515476D01*
X149502619Y-57086904D02*
X149455000Y-57039285D01*
X149407380Y-56944047D01*
X149407380Y-56705952D01*
X149455000Y-56610714D01*
X149502619Y-56563095D01*
X149597857Y-56515476D01*
X149693095Y-56515476D01*
X149835952Y-56563095D01*
X150407380Y-57134523D01*
X150407380Y-56515476D01*
%TO.C,U3*%
D10*
X151437380Y-57554904D02*
X152246904Y-57554904D01*
X152342142Y-57507285D01*
X152389761Y-57459666D01*
X152437380Y-57364428D01*
X152437380Y-57173952D01*
X152389761Y-57078714D01*
X152342142Y-57031095D01*
X152246904Y-56983476D01*
X151437380Y-56983476D01*
X151437380Y-56602523D02*
X151437380Y-55983476D01*
X151818333Y-56316809D01*
X151818333Y-56173952D01*
X151865952Y-56078714D01*
X151913571Y-56031095D01*
X152008809Y-55983476D01*
X152246904Y-55983476D01*
X152342142Y-56031095D01*
X152389761Y-56078714D01*
X152437380Y-56173952D01*
X152437380Y-56459666D01*
X152389761Y-56554904D01*
X152342142Y-56602523D01*
%TO.C,U5*%
D16*
X149407380Y-63166904D02*
X150216904Y-63166904D01*
X150312142Y-63119285D01*
X150359761Y-63071666D01*
X150407380Y-62976428D01*
X150407380Y-62785952D01*
X150359761Y-62690714D01*
X150312142Y-62643095D01*
X150216904Y-62595476D01*
X149407380Y-62595476D01*
X149407380Y-61643095D02*
X149407380Y-62119285D01*
X149883571Y-62166904D01*
X149835952Y-62119285D01*
X149788333Y-62024047D01*
X149788333Y-61785952D01*
X149835952Y-61690714D01*
X149883571Y-61643095D01*
X149978809Y-61595476D01*
X150216904Y-61595476D01*
X150312142Y-61643095D01*
X150359761Y-61690714D01*
X150407380Y-61785952D01*
X150407380Y-62024047D01*
X150359761Y-62119285D01*
X150312142Y-62166904D01*
%TO.C,U6*%
X147630095Y-43213780D02*
X147630095Y-44023304D01*
X147677714Y-44118542D01*
X147725333Y-44166161D01*
X147820571Y-44213780D01*
X148011047Y-44213780D01*
X148106285Y-44166161D01*
X148153904Y-44118542D01*
X148201523Y-44023304D01*
X148201523Y-43213780D01*
X149106285Y-43213780D02*
X148915809Y-43213780D01*
X148820571Y-43261400D01*
X148772952Y-43309019D01*
X148677714Y-43451876D01*
X148630095Y-43642352D01*
X148630095Y-44023304D01*
X148677714Y-44118542D01*
X148725333Y-44166161D01*
X148820571Y-44213780D01*
X149011047Y-44213780D01*
X149106285Y-44166161D01*
X149153904Y-44118542D01*
X149201523Y-44023304D01*
X149201523Y-43785209D01*
X149153904Y-43689971D01*
X149106285Y-43642352D01*
X149011047Y-43594733D01*
X148820571Y-43594733D01*
X148725333Y-43642352D01*
X148677714Y-43689971D01*
X148630095Y-43785209D01*
%TO.C,U7*%
D15*
X12073142Y-64007714D02*
X14501714Y-64007714D01*
X14787428Y-63864857D01*
X14930285Y-63722000D01*
X15073142Y-63436285D01*
X15073142Y-62864857D01*
X14930285Y-62579142D01*
X14787428Y-62436285D01*
X14501714Y-62293428D01*
X12073142Y-62293428D01*
X12073142Y-61150571D02*
X12073142Y-59150571D01*
X15073142Y-60436285D01*
%TO.C,U8*%
X14359142Y-109727714D02*
X16787714Y-109727714D01*
X17073428Y-109584857D01*
X17216285Y-109442000D01*
X17359142Y-109156285D01*
X17359142Y-108584857D01*
X17216285Y-108299142D01*
X17073428Y-108156285D01*
X16787714Y-108013428D01*
X14359142Y-108013428D01*
X15644857Y-106156285D02*
X15502000Y-106442000D01*
X15359142Y-106584857D01*
X15073428Y-106727714D01*
X14930571Y-106727714D01*
X14644857Y-106584857D01*
X14502000Y-106442000D01*
X14359142Y-106156285D01*
X14359142Y-105584857D01*
X14502000Y-105299142D01*
X14644857Y-105156285D01*
X14930571Y-105013428D01*
X15073428Y-105013428D01*
X15359142Y-105156285D01*
X15502000Y-105299142D01*
X15644857Y-105584857D01*
X15644857Y-106156285D01*
X15787714Y-106442000D01*
X15930571Y-106584857D01*
X16216285Y-106727714D01*
X16787714Y-106727714D01*
X17073428Y-106584857D01*
X17216285Y-106442000D01*
X17359142Y-106156285D01*
X17359142Y-105584857D01*
X17216285Y-105299142D01*
X17073428Y-105156285D01*
X16787714Y-105013428D01*
X16216285Y-105013428D01*
X15930571Y-105156285D01*
X15787714Y-105299142D01*
X15644857Y-105584857D01*
%TO.C,R1*%
D10*
X163663333Y-50632380D02*
X163330000Y-50156190D01*
X163091904Y-50632380D02*
X163091904Y-49632380D01*
X163472857Y-49632380D01*
X163568095Y-49680000D01*
X163615714Y-49727619D01*
X163663333Y-49822857D01*
X163663333Y-49965714D01*
X163615714Y-50060952D01*
X163568095Y-50108571D01*
X163472857Y-50156190D01*
X163091904Y-50156190D01*
X164615714Y-50632380D02*
X164044285Y-50632380D01*
X164330000Y-50632380D02*
X164330000Y-49632380D01*
X164234761Y-49775238D01*
X164139523Y-49870476D01*
X164044285Y-49918095D01*
%TO.C,D1*%
X11292380Y-25028095D02*
X10292380Y-25028095D01*
X10292380Y-24790000D01*
X10340000Y-24647142D01*
X10435238Y-24551904D01*
X10530476Y-24504285D01*
X10720952Y-24456666D01*
X10863809Y-24456666D01*
X11054285Y-24504285D01*
X11149523Y-24551904D01*
X11244761Y-24647142D01*
X11292380Y-24790000D01*
X11292380Y-25028095D01*
X11292380Y-23504285D02*
X11292380Y-24075714D01*
X11292380Y-23790000D02*
X10292380Y-23790000D01*
X10435238Y-23885238D01*
X10530476Y-23980476D01*
X10578095Y-24075714D01*
X14362380Y-34551904D02*
X13362380Y-34551904D01*
X14362380Y-33980476D02*
X13790952Y-34409047D01*
X13362380Y-33980476D02*
X13933809Y-34551904D01*
%TO.C,D2*%
X26532380Y-25028095D02*
X25532380Y-25028095D01*
X25532380Y-24790000D01*
X25580000Y-24647142D01*
X25675238Y-24551904D01*
X25770476Y-24504285D01*
X25960952Y-24456666D01*
X26103809Y-24456666D01*
X26294285Y-24504285D01*
X26389523Y-24551904D01*
X26484761Y-24647142D01*
X26532380Y-24790000D01*
X26532380Y-25028095D01*
X25627619Y-24075714D02*
X25580000Y-24028095D01*
X25532380Y-23932857D01*
X25532380Y-23694761D01*
X25580000Y-23599523D01*
X25627619Y-23551904D01*
X25722857Y-23504285D01*
X25818095Y-23504285D01*
X25960952Y-23551904D01*
X26532380Y-24123333D01*
X26532380Y-23504285D01*
X29602380Y-34551904D02*
X28602380Y-34551904D01*
X29602380Y-33980476D02*
X29030952Y-34409047D01*
X28602380Y-33980476D02*
X29173809Y-34551904D01*
%TO.C,HS2*%
D16*
X8107380Y-127013095D02*
X7107380Y-127013095D01*
X7583571Y-127013095D02*
X7583571Y-126441666D01*
X8107380Y-126441666D02*
X7107380Y-126441666D01*
X8059761Y-126013095D02*
X8107380Y-125870238D01*
X8107380Y-125632142D01*
X8059761Y-125536904D01*
X8012142Y-125489285D01*
X7916904Y-125441666D01*
X7821666Y-125441666D01*
X7726428Y-125489285D01*
X7678809Y-125536904D01*
X7631190Y-125632142D01*
X7583571Y-125822619D01*
X7535952Y-125917857D01*
X7488333Y-125965476D01*
X7393095Y-126013095D01*
X7297857Y-126013095D01*
X7202619Y-125965476D01*
X7155000Y-125917857D01*
X7107380Y-125822619D01*
X7107380Y-125584523D01*
X7155000Y-125441666D01*
X7202619Y-125060714D02*
X7155000Y-125013095D01*
X7107380Y-124917857D01*
X7107380Y-124679761D01*
X7155000Y-124584523D01*
X7202619Y-124536904D01*
X7297857Y-124489285D01*
X7393095Y-124489285D01*
X7535952Y-124536904D01*
X8107380Y-125108333D01*
X8107380Y-124489285D01*
%TO.C,HS3*%
X43794380Y-50813095D02*
X42794380Y-50813095D01*
X43270571Y-50813095D02*
X43270571Y-50241666D01*
X43794380Y-50241666D02*
X42794380Y-50241666D01*
X43746761Y-49813095D02*
X43794380Y-49670238D01*
X43794380Y-49432142D01*
X43746761Y-49336904D01*
X43699142Y-49289285D01*
X43603904Y-49241666D01*
X43508666Y-49241666D01*
X43413428Y-49289285D01*
X43365809Y-49336904D01*
X43318190Y-49432142D01*
X43270571Y-49622619D01*
X43222952Y-49717857D01*
X43175333Y-49765476D01*
X43080095Y-49813095D01*
X42984857Y-49813095D01*
X42889619Y-49765476D01*
X42842000Y-49717857D01*
X42794380Y-49622619D01*
X42794380Y-49384523D01*
X42842000Y-49241666D01*
X42794380Y-48908333D02*
X42794380Y-48289285D01*
X43175333Y-48622619D01*
X43175333Y-48479761D01*
X43222952Y-48384523D01*
X43270571Y-48336904D01*
X43365809Y-48289285D01*
X43603904Y-48289285D01*
X43699142Y-48336904D01*
X43746761Y-48384523D01*
X43794380Y-48479761D01*
X43794380Y-48765476D01*
X43746761Y-48860714D01*
X43699142Y-48908333D01*
%TO.C,HS4*%
X6837380Y-80023095D02*
X5837380Y-80023095D01*
X6313571Y-80023095D02*
X6313571Y-79451666D01*
X6837380Y-79451666D02*
X5837380Y-79451666D01*
X6789761Y-79023095D02*
X6837380Y-78880238D01*
X6837380Y-78642142D01*
X6789761Y-78546904D01*
X6742142Y-78499285D01*
X6646904Y-78451666D01*
X6551666Y-78451666D01*
X6456428Y-78499285D01*
X6408809Y-78546904D01*
X6361190Y-78642142D01*
X6313571Y-78832619D01*
X6265952Y-78927857D01*
X6218333Y-78975476D01*
X6123095Y-79023095D01*
X6027857Y-79023095D01*
X5932619Y-78975476D01*
X5885000Y-78927857D01*
X5837380Y-78832619D01*
X5837380Y-78594523D01*
X5885000Y-78451666D01*
X6170714Y-77594523D02*
X6837380Y-77594523D01*
X5789761Y-77832619D02*
X6504047Y-78070714D01*
X6504047Y-77451666D01*
%TO.C,IC1*%
D10*
X161583809Y-27552380D02*
X161583809Y-26552380D01*
X162631428Y-27457142D02*
X162583809Y-27504761D01*
X162440952Y-27552380D01*
X162345714Y-27552380D01*
X162202857Y-27504761D01*
X162107619Y-27409523D01*
X162060000Y-27314285D01*
X162012380Y-27123809D01*
X162012380Y-26980952D01*
X162060000Y-26790476D01*
X162107619Y-26695238D01*
X162202857Y-26600000D01*
X162345714Y-26552380D01*
X162440952Y-26552380D01*
X162583809Y-26600000D01*
X162631428Y-26647619D01*
X163583809Y-27552380D02*
X163012380Y-27552380D01*
X163298095Y-27552380D02*
X163298095Y-26552380D01*
X163202857Y-26695238D01*
X163107619Y-26790476D01*
X163012380Y-26838095D01*
%TO.C,R7*%
X148026380Y-77636666D02*
X147550190Y-77970000D01*
X148026380Y-78208095D02*
X147026380Y-78208095D01*
X147026380Y-77827142D01*
X147074000Y-77731904D01*
X147121619Y-77684285D01*
X147216857Y-77636666D01*
X147359714Y-77636666D01*
X147454952Y-77684285D01*
X147502571Y-77731904D01*
X147550190Y-77827142D01*
X147550190Y-78208095D01*
X147026380Y-77303333D02*
X147026380Y-76636666D01*
X148026380Y-77065238D01*
%TO.C,R8*%
X154112380Y-77890666D02*
X153636190Y-78224000D01*
X154112380Y-78462095D02*
X153112380Y-78462095D01*
X153112380Y-78081142D01*
X153160000Y-77985904D01*
X153207619Y-77938285D01*
X153302857Y-77890666D01*
X153445714Y-77890666D01*
X153540952Y-77938285D01*
X153588571Y-77985904D01*
X153636190Y-78081142D01*
X153636190Y-78462095D01*
X153540952Y-77319238D02*
X153493333Y-77414476D01*
X153445714Y-77462095D01*
X153350476Y-77509714D01*
X153302857Y-77509714D01*
X153207619Y-77462095D01*
X153160000Y-77414476D01*
X153112380Y-77319238D01*
X153112380Y-77128761D01*
X153160000Y-77033523D01*
X153207619Y-76985904D01*
X153302857Y-76938285D01*
X153350476Y-76938285D01*
X153445714Y-76985904D01*
X153493333Y-77033523D01*
X153540952Y-77128761D01*
X153540952Y-77319238D01*
X153588571Y-77414476D01*
X153636190Y-77462095D01*
X153731428Y-77509714D01*
X153921904Y-77509714D01*
X154017142Y-77462095D01*
X154064761Y-77414476D01*
X154112380Y-77319238D01*
X154112380Y-77128761D01*
X154064761Y-77033523D01*
X154017142Y-76985904D01*
X153921904Y-76938285D01*
X153731428Y-76938285D01*
X153636190Y-76985904D01*
X153588571Y-77033523D01*
X153540952Y-77128761D01*
%TO.C,J12*%
D16*
X163790380Y-113331523D02*
X164504666Y-113331523D01*
X164647523Y-113379142D01*
X164742761Y-113474380D01*
X164790380Y-113617238D01*
X164790380Y-113712476D01*
X164790380Y-112331523D02*
X164790380Y-112902952D01*
X164790380Y-112617238D02*
X163790380Y-112617238D01*
X163933238Y-112712476D01*
X164028476Y-112807714D01*
X164076095Y-112902952D01*
X163885619Y-111950571D02*
X163838000Y-111902952D01*
X163790380Y-111807714D01*
X163790380Y-111569619D01*
X163838000Y-111474380D01*
X163885619Y-111426761D01*
X163980857Y-111379142D01*
X164076095Y-111379142D01*
X164218952Y-111426761D01*
X164790380Y-111998190D01*
X164790380Y-111379142D01*
%TO.C,J9*%
X138096666Y-118070380D02*
X138096666Y-118784666D01*
X138049047Y-118927523D01*
X137953809Y-119022761D01*
X137810952Y-119070380D01*
X137715714Y-119070380D01*
X138620476Y-119070380D02*
X138810952Y-119070380D01*
X138906190Y-119022761D01*
X138953809Y-118975142D01*
X139049047Y-118832285D01*
X139096666Y-118641809D01*
X139096666Y-118260857D01*
X139049047Y-118165619D01*
X139001428Y-118118000D01*
X138906190Y-118070380D01*
X138715714Y-118070380D01*
X138620476Y-118118000D01*
X138572857Y-118165619D01*
X138525238Y-118260857D01*
X138525238Y-118498952D01*
X138572857Y-118594190D01*
X138620476Y-118641809D01*
X138715714Y-118689428D01*
X138906190Y-118689428D01*
X139001428Y-118641809D01*
X139049047Y-118594190D01*
X139096666Y-118498952D01*
%TO.C,J11*%
X112982476Y-112059380D02*
X112982476Y-112773666D01*
X112934857Y-112916523D01*
X112839619Y-113011761D01*
X112696761Y-113059380D01*
X112601523Y-113059380D01*
X113982476Y-113059380D02*
X113411047Y-113059380D01*
X113696761Y-113059380D02*
X113696761Y-112059380D01*
X113601523Y-112202238D01*
X113506285Y-112297476D01*
X113411047Y-112345095D01*
X114934857Y-113059380D02*
X114363428Y-113059380D01*
X114649142Y-113059380D02*
X114649142Y-112059380D01*
X114553904Y-112202238D01*
X114458666Y-112297476D01*
X114363428Y-112345095D01*
%TO.C,J13*%
X130770380Y-70151523D02*
X131484666Y-70151523D01*
X131627523Y-70199142D01*
X131722761Y-70294380D01*
X131770380Y-70437238D01*
X131770380Y-70532476D01*
X131770380Y-69151523D02*
X131770380Y-69722952D01*
X131770380Y-69437238D02*
X130770380Y-69437238D01*
X130913238Y-69532476D01*
X131008476Y-69627714D01*
X131056095Y-69722952D01*
X130770380Y-68818190D02*
X130770380Y-68199142D01*
X131151333Y-68532476D01*
X131151333Y-68389619D01*
X131198952Y-68294380D01*
X131246571Y-68246761D01*
X131341809Y-68199142D01*
X131579904Y-68199142D01*
X131675142Y-68246761D01*
X131722761Y-68294380D01*
X131770380Y-68389619D01*
X131770380Y-68675333D01*
X131722761Y-68770571D01*
X131675142Y-68818190D01*
%TO.C,J14*%
X153876476Y-69810380D02*
X153876476Y-70524666D01*
X153828857Y-70667523D01*
X153733619Y-70762761D01*
X153590761Y-70810380D01*
X153495523Y-70810380D01*
X154876476Y-70810380D02*
X154305047Y-70810380D01*
X154590761Y-70810380D02*
X154590761Y-69810380D01*
X154495523Y-69953238D01*
X154400285Y-70048476D01*
X154305047Y-70096095D01*
X155733619Y-70143714D02*
X155733619Y-70810380D01*
X155495523Y-69762761D02*
X155257428Y-70477047D01*
X155876476Y-70477047D01*
%TO.C,J15*%
X108672380Y-70405523D02*
X109386666Y-70405523D01*
X109529523Y-70453142D01*
X109624761Y-70548380D01*
X109672380Y-70691238D01*
X109672380Y-70786476D01*
X109672380Y-69405523D02*
X109672380Y-69976952D01*
X109672380Y-69691238D02*
X108672380Y-69691238D01*
X108815238Y-69786476D01*
X108910476Y-69881714D01*
X108958095Y-69976952D01*
X108672380Y-68500761D02*
X108672380Y-68976952D01*
X109148571Y-69024571D01*
X109100952Y-68976952D01*
X109053333Y-68881714D01*
X109053333Y-68643619D01*
X109100952Y-68548380D01*
X109148571Y-68500761D01*
X109243809Y-68453142D01*
X109481904Y-68453142D01*
X109577142Y-68500761D01*
X109624761Y-68548380D01*
X109672380Y-68643619D01*
X109672380Y-68881714D01*
X109624761Y-68976952D01*
X109577142Y-69024571D01*
%TO.C,J8*%
X95235333Y-148082933D02*
X95235333Y-149082933D01*
X95168666Y-149282933D01*
X95035333Y-149416266D01*
X94835333Y-149482933D01*
X94702000Y-149482933D01*
X96102000Y-148682933D02*
X95968666Y-148616266D01*
X95902000Y-148549600D01*
X95835333Y-148416266D01*
X95835333Y-148349600D01*
X95902000Y-148216266D01*
X95968666Y-148149600D01*
X96102000Y-148082933D01*
X96368666Y-148082933D01*
X96502000Y-148149600D01*
X96568666Y-148216266D01*
X96635333Y-148349600D01*
X96635333Y-148416266D01*
X96568666Y-148549600D01*
X96502000Y-148616266D01*
X96368666Y-148682933D01*
X96102000Y-148682933D01*
X95968666Y-148749600D01*
X95902000Y-148816266D01*
X95835333Y-148949600D01*
X95835333Y-149216266D01*
X95902000Y-149349600D01*
X95968666Y-149416266D01*
X96102000Y-149482933D01*
X96368666Y-149482933D01*
X96502000Y-149416266D01*
X96568666Y-149349600D01*
X96635333Y-149216266D01*
X96635333Y-148949600D01*
X96568666Y-148816266D01*
X96502000Y-148749600D01*
X96368666Y-148682933D01*
%TO.C,J16*%
X184992666Y-147701933D02*
X184992666Y-148701933D01*
X184926000Y-148901933D01*
X184792666Y-149035266D01*
X184592666Y-149101933D01*
X184459333Y-149101933D01*
X186392666Y-149101933D02*
X185592666Y-149101933D01*
X185992666Y-149101933D02*
X185992666Y-147701933D01*
X185859333Y-147901933D01*
X185726000Y-148035266D01*
X185592666Y-148101933D01*
X187592666Y-147701933D02*
X187326000Y-147701933D01*
X187192666Y-147768600D01*
X187126000Y-147835266D01*
X186992666Y-148035266D01*
X186926000Y-148301933D01*
X186926000Y-148835266D01*
X186992666Y-148968600D01*
X187059333Y-149035266D01*
X187192666Y-149101933D01*
X187459333Y-149101933D01*
X187592666Y-149035266D01*
X187659333Y-148968600D01*
X187726000Y-148835266D01*
X187726000Y-148501933D01*
X187659333Y-148368600D01*
X187592666Y-148301933D01*
X187459333Y-148235266D01*
X187192666Y-148235266D01*
X187059333Y-148301933D01*
X186992666Y-148368600D01*
X186926000Y-148501933D01*
%TO.C,J17*%
X19659866Y11556266D02*
X19659866Y10556266D01*
X19593200Y10356266D01*
X19459866Y10222933D01*
X19259866Y10156266D01*
X19126533Y10156266D01*
X21059866Y10156266D02*
X20259866Y10156266D01*
X20659866Y10156266D02*
X20659866Y11556266D01*
X20526533Y11356266D01*
X20393200Y11222933D01*
X20259866Y11156266D01*
X21526533Y11556266D02*
X22459866Y11556266D01*
X21859866Y10156266D01*
%TO.C,J18*%
X95163266Y11440266D02*
X95163266Y10440266D01*
X95096600Y10240266D01*
X94963266Y10106933D01*
X94763266Y10040266D01*
X94629933Y10040266D01*
X96563266Y10040266D02*
X95763266Y10040266D01*
X96163266Y10040266D02*
X96163266Y11440266D01*
X96029933Y11240266D01*
X95896600Y11106933D01*
X95763266Y11040266D01*
X97363266Y10840266D02*
X97229933Y10906933D01*
X97163266Y10973600D01*
X97096600Y11106933D01*
X97096600Y11173600D01*
X97163266Y11306933D01*
X97229933Y11373600D01*
X97363266Y11440266D01*
X97629933Y11440266D01*
X97763266Y11373600D01*
X97829933Y11306933D01*
X97896600Y11173600D01*
X97896600Y11106933D01*
X97829933Y10973600D01*
X97763266Y10906933D01*
X97629933Y10840266D01*
X97363266Y10840266D01*
X97229933Y10773600D01*
X97163266Y10706933D01*
X97096600Y10573600D01*
X97096600Y10306933D01*
X97163266Y10173600D01*
X97229933Y10106933D01*
X97363266Y10040266D01*
X97629933Y10040266D01*
X97763266Y10106933D01*
X97829933Y10173600D01*
X97896600Y10306933D01*
X97896600Y10573600D01*
X97829933Y10706933D01*
X97763266Y10773600D01*
X97629933Y10840266D01*
%TO.C,D3*%
D10*
X105963980Y-22785295D02*
X104963980Y-22785295D01*
X104963980Y-22547200D01*
X105011600Y-22404342D01*
X105106838Y-22309104D01*
X105202076Y-22261485D01*
X105392552Y-22213866D01*
X105535409Y-22213866D01*
X105725885Y-22261485D01*
X105821123Y-22309104D01*
X105916361Y-22404342D01*
X105963980Y-22547200D01*
X105963980Y-22785295D01*
X104963980Y-21880533D02*
X104963980Y-21261485D01*
X105344933Y-21594819D01*
X105344933Y-21451961D01*
X105392552Y-21356723D01*
X105440171Y-21309104D01*
X105535409Y-21261485D01*
X105773504Y-21261485D01*
X105868742Y-21309104D01*
X105916361Y-21356723D01*
X105963980Y-21451961D01*
X105963980Y-21737676D01*
X105916361Y-21832914D01*
X105868742Y-21880533D01*
X107586180Y-18245104D02*
X106586180Y-18245104D01*
X107586180Y-17673676D02*
X107014752Y-18102247D01*
X106586180Y-17673676D02*
X107157609Y-18245104D01*
%TO.C,D4*%
X124048780Y-21489895D02*
X123048780Y-21489895D01*
X123048780Y-21251800D01*
X123096400Y-21108942D01*
X123191638Y-21013704D01*
X123286876Y-20966085D01*
X123477352Y-20918466D01*
X123620209Y-20918466D01*
X123810685Y-20966085D01*
X123905923Y-21013704D01*
X124001161Y-21108942D01*
X124048780Y-21251800D01*
X124048780Y-21489895D01*
X123382114Y-20061323D02*
X124048780Y-20061323D01*
X123001161Y-20299419D02*
X123715447Y-20537514D01*
X123715447Y-19918466D01*
X126123380Y-15705104D02*
X125123380Y-15705104D01*
X126123380Y-15133676D02*
X125551952Y-15562247D01*
X125123380Y-15133676D02*
X125694809Y-15705104D01*
%TO.C,D5*%
X118028980Y-21591495D02*
X117028980Y-21591495D01*
X117028980Y-21353400D01*
X117076600Y-21210542D01*
X117171838Y-21115304D01*
X117267076Y-21067685D01*
X117457552Y-21020066D01*
X117600409Y-21020066D01*
X117790885Y-21067685D01*
X117886123Y-21115304D01*
X117981361Y-21210542D01*
X118028980Y-21353400D01*
X118028980Y-21591495D01*
X117028980Y-20115304D02*
X117028980Y-20591495D01*
X117505171Y-20639114D01*
X117457552Y-20591495D01*
X117409933Y-20496257D01*
X117409933Y-20258161D01*
X117457552Y-20162923D01*
X117505171Y-20115304D01*
X117600409Y-20067685D01*
X117838504Y-20067685D01*
X117933742Y-20115304D01*
X117981361Y-20162923D01*
X118028980Y-20258161D01*
X118028980Y-20496257D01*
X117981361Y-20591495D01*
X117933742Y-20639114D01*
X119900380Y-15705104D02*
X118900380Y-15705104D01*
X119900380Y-15133676D02*
X119328952Y-15562247D01*
X118900380Y-15133676D02*
X119471809Y-15705104D01*
%TO.C,D6*%
X130297180Y-21388295D02*
X129297180Y-21388295D01*
X129297180Y-21150200D01*
X129344800Y-21007342D01*
X129440038Y-20912104D01*
X129535276Y-20864485D01*
X129725752Y-20816866D01*
X129868609Y-20816866D01*
X130059085Y-20864485D01*
X130154323Y-20912104D01*
X130249561Y-21007342D01*
X130297180Y-21150200D01*
X130297180Y-21388295D01*
X129297180Y-19959723D02*
X129297180Y-20150200D01*
X129344800Y-20245438D01*
X129392419Y-20293057D01*
X129535276Y-20388295D01*
X129725752Y-20435914D01*
X130106704Y-20435914D01*
X130201942Y-20388295D01*
X130249561Y-20340676D01*
X130297180Y-20245438D01*
X130297180Y-20054961D01*
X130249561Y-19959723D01*
X130201942Y-19912104D01*
X130106704Y-19864485D01*
X129868609Y-19864485D01*
X129773371Y-19912104D01*
X129725752Y-19959723D01*
X129678133Y-20054961D01*
X129678133Y-20245438D01*
X129725752Y-20340676D01*
X129773371Y-20388295D01*
X129868609Y-20435914D01*
X132193980Y-15705104D02*
X131193980Y-15705104D01*
X132193980Y-15133676D02*
X131622552Y-15562247D01*
X131193980Y-15133676D02*
X131765409Y-15705104D01*
%TO.C,D7*%
X136291580Y-21286695D02*
X135291580Y-21286695D01*
X135291580Y-21048600D01*
X135339200Y-20905742D01*
X135434438Y-20810504D01*
X135529676Y-20762885D01*
X135720152Y-20715266D01*
X135863009Y-20715266D01*
X136053485Y-20762885D01*
X136148723Y-20810504D01*
X136243961Y-20905742D01*
X136291580Y-21048600D01*
X136291580Y-21286695D01*
X135291580Y-20381933D02*
X135291580Y-19715266D01*
X136291580Y-20143838D01*
X138366180Y-15705104D02*
X137366180Y-15705104D01*
X138366180Y-15133676D02*
X137794752Y-15562247D01*
X137366180Y-15133676D02*
X137937609Y-15705104D01*
%TO.C,D8*%
X95702380Y-22836095D02*
X94702380Y-22836095D01*
X94702380Y-22598000D01*
X94750000Y-22455142D01*
X94845238Y-22359904D01*
X94940476Y-22312285D01*
X95130952Y-22264666D01*
X95273809Y-22264666D01*
X95464285Y-22312285D01*
X95559523Y-22359904D01*
X95654761Y-22455142D01*
X95702380Y-22598000D01*
X95702380Y-22836095D01*
X95130952Y-21693238D02*
X95083333Y-21788476D01*
X95035714Y-21836095D01*
X94940476Y-21883714D01*
X94892857Y-21883714D01*
X94797619Y-21836095D01*
X94750000Y-21788476D01*
X94702380Y-21693238D01*
X94702380Y-21502761D01*
X94750000Y-21407523D01*
X94797619Y-21359904D01*
X94892857Y-21312285D01*
X94940476Y-21312285D01*
X95035714Y-21359904D01*
X95083333Y-21407523D01*
X95130952Y-21502761D01*
X95130952Y-21693238D01*
X95178571Y-21788476D01*
X95226190Y-21836095D01*
X95321428Y-21883714D01*
X95511904Y-21883714D01*
X95607142Y-21836095D01*
X95654761Y-21788476D01*
X95702380Y-21693238D01*
X95702380Y-21502761D01*
X95654761Y-21407523D01*
X95607142Y-21359904D01*
X95511904Y-21312285D01*
X95321428Y-21312285D01*
X95226190Y-21359904D01*
X95178571Y-21407523D01*
X95130952Y-21502761D01*
X97553180Y-18194304D02*
X96553180Y-18194304D01*
X97553180Y-17622876D02*
X96981752Y-18051447D01*
X96553180Y-17622876D02*
X97124609Y-18194304D01*
%TO.C,D9*%
X101188780Y-22709095D02*
X100188780Y-22709095D01*
X100188780Y-22471000D01*
X100236400Y-22328142D01*
X100331638Y-22232904D01*
X100426876Y-22185285D01*
X100617352Y-22137666D01*
X100760209Y-22137666D01*
X100950685Y-22185285D01*
X101045923Y-22232904D01*
X101141161Y-22328142D01*
X101188780Y-22471000D01*
X101188780Y-22709095D01*
X101188780Y-21661476D02*
X101188780Y-21471000D01*
X101141161Y-21375761D01*
X101093542Y-21328142D01*
X100950685Y-21232904D01*
X100760209Y-21185285D01*
X100379257Y-21185285D01*
X100284019Y-21232904D01*
X100236400Y-21280523D01*
X100188780Y-21375761D01*
X100188780Y-21566238D01*
X100236400Y-21661476D01*
X100284019Y-21709095D01*
X100379257Y-21756714D01*
X100617352Y-21756714D01*
X100712590Y-21709095D01*
X100760209Y-21661476D01*
X100807828Y-21566238D01*
X100807828Y-21375761D01*
X100760209Y-21280523D01*
X100712590Y-21232904D01*
X100617352Y-21185285D01*
X102607780Y-18219704D02*
X101607780Y-18219704D01*
X102607780Y-17648276D02*
X102036352Y-18076847D01*
X101607780Y-17648276D02*
X102179209Y-18219704D01*
%TO.C,D10*%
X110840780Y-23515485D02*
X109840780Y-23515485D01*
X109840780Y-23277390D01*
X109888400Y-23134533D01*
X109983638Y-23039295D01*
X110078876Y-22991676D01*
X110269352Y-22944057D01*
X110412209Y-22944057D01*
X110602685Y-22991676D01*
X110697923Y-23039295D01*
X110793161Y-23134533D01*
X110840780Y-23277390D01*
X110840780Y-23515485D01*
X110840780Y-21991676D02*
X110840780Y-22563104D01*
X110840780Y-22277390D02*
X109840780Y-22277390D01*
X109983638Y-22372628D01*
X110078876Y-22467866D01*
X110126495Y-22563104D01*
X109840780Y-21372628D02*
X109840780Y-21277390D01*
X109888400Y-21182152D01*
X109936019Y-21134533D01*
X110031257Y-21086914D01*
X110221733Y-21039295D01*
X110459828Y-21039295D01*
X110650304Y-21086914D01*
X110745542Y-21134533D01*
X110793161Y-21182152D01*
X110840780Y-21277390D01*
X110840780Y-21372628D01*
X110793161Y-21467866D01*
X110745542Y-21515485D01*
X110650304Y-21563104D01*
X110459828Y-21610723D01*
X110221733Y-21610723D01*
X110031257Y-21563104D01*
X109936019Y-21515485D01*
X109888400Y-21467866D01*
X109840780Y-21372628D01*
X112564580Y-18245104D02*
X111564580Y-18245104D01*
X112564580Y-17673676D02*
X111993152Y-18102247D01*
X111564580Y-17673676D02*
X112136009Y-18245104D01*
%TO.C,Q2*%
X118937019Y-12922238D02*
X118889400Y-13017476D01*
X118794161Y-13112714D01*
X118651304Y-13255571D01*
X118603685Y-13350809D01*
X118603685Y-13446047D01*
X118841780Y-13398428D02*
X118794161Y-13493666D01*
X118698923Y-13588904D01*
X118508447Y-13636523D01*
X118175114Y-13636523D01*
X117984638Y-13588904D01*
X117889400Y-13493666D01*
X117841780Y-13398428D01*
X117841780Y-13207952D01*
X117889400Y-13112714D01*
X117984638Y-13017476D01*
X118175114Y-12969857D01*
X118508447Y-12969857D01*
X118698923Y-13017476D01*
X118794161Y-13112714D01*
X118841780Y-13207952D01*
X118841780Y-13398428D01*
X117937019Y-12588904D02*
X117889400Y-12541285D01*
X117841780Y-12446047D01*
X117841780Y-12207952D01*
X117889400Y-12112714D01*
X117937019Y-12065095D01*
X118032257Y-12017476D01*
X118127495Y-12017476D01*
X118270352Y-12065095D01*
X118841780Y-12636523D01*
X118841780Y-12017476D01*
%TO.C,Q3*%
X113628419Y-13100038D02*
X113580800Y-13195276D01*
X113485561Y-13290514D01*
X113342704Y-13433371D01*
X113295085Y-13528609D01*
X113295085Y-13623847D01*
X113533180Y-13576228D02*
X113485561Y-13671466D01*
X113390323Y-13766704D01*
X113199847Y-13814323D01*
X112866514Y-13814323D01*
X112676038Y-13766704D01*
X112580800Y-13671466D01*
X112533180Y-13576228D01*
X112533180Y-13385752D01*
X112580800Y-13290514D01*
X112676038Y-13195276D01*
X112866514Y-13147657D01*
X113199847Y-13147657D01*
X113390323Y-13195276D01*
X113485561Y-13290514D01*
X113533180Y-13385752D01*
X113533180Y-13576228D01*
X112533180Y-12814323D02*
X112533180Y-12195276D01*
X112914133Y-12528609D01*
X112914133Y-12385752D01*
X112961752Y-12290514D01*
X113009371Y-12242895D01*
X113104609Y-12195276D01*
X113342704Y-12195276D01*
X113437942Y-12242895D01*
X113485561Y-12290514D01*
X113533180Y-12385752D01*
X113533180Y-12671466D01*
X113485561Y-12766704D01*
X113437942Y-12814323D01*
%TO.C,Q4*%
X124448819Y-13125438D02*
X124401200Y-13220676D01*
X124305961Y-13315914D01*
X124163104Y-13458771D01*
X124115485Y-13554009D01*
X124115485Y-13649247D01*
X124353580Y-13601628D02*
X124305961Y-13696866D01*
X124210723Y-13792104D01*
X124020247Y-13839723D01*
X123686914Y-13839723D01*
X123496438Y-13792104D01*
X123401200Y-13696866D01*
X123353580Y-13601628D01*
X123353580Y-13411152D01*
X123401200Y-13315914D01*
X123496438Y-13220676D01*
X123686914Y-13173057D01*
X124020247Y-13173057D01*
X124210723Y-13220676D01*
X124305961Y-13315914D01*
X124353580Y-13411152D01*
X124353580Y-13601628D01*
X123686914Y-12315914D02*
X124353580Y-12315914D01*
X123305961Y-12554009D02*
X124020247Y-12792104D01*
X124020247Y-12173057D01*
%TO.C,Q5*%
X129300219Y-12617438D02*
X129252600Y-12712676D01*
X129157361Y-12807914D01*
X129014504Y-12950771D01*
X128966885Y-13046009D01*
X128966885Y-13141247D01*
X129204980Y-13093628D02*
X129157361Y-13188866D01*
X129062123Y-13284104D01*
X128871647Y-13331723D01*
X128538314Y-13331723D01*
X128347838Y-13284104D01*
X128252600Y-13188866D01*
X128204980Y-13093628D01*
X128204980Y-12903152D01*
X128252600Y-12807914D01*
X128347838Y-12712676D01*
X128538314Y-12665057D01*
X128871647Y-12665057D01*
X129062123Y-12712676D01*
X129157361Y-12807914D01*
X129204980Y-12903152D01*
X129204980Y-13093628D01*
X128204980Y-11760295D02*
X128204980Y-12236485D01*
X128681171Y-12284104D01*
X128633552Y-12236485D01*
X128585933Y-12141247D01*
X128585933Y-11903152D01*
X128633552Y-11807914D01*
X128681171Y-11760295D01*
X128776409Y-11712676D01*
X129014504Y-11712676D01*
X129109742Y-11760295D01*
X129157361Y-11807914D01*
X129204980Y-11903152D01*
X129204980Y-12141247D01*
X129157361Y-12236485D01*
X129109742Y-12284104D01*
%TO.C,R3*%
X71029533Y-32796980D02*
X70696200Y-32320790D01*
X70458104Y-32796980D02*
X70458104Y-31796980D01*
X70839057Y-31796980D01*
X70934295Y-31844600D01*
X70981914Y-31892219D01*
X71029533Y-31987457D01*
X71029533Y-32130314D01*
X70981914Y-32225552D01*
X70934295Y-32273171D01*
X70839057Y-32320790D01*
X70458104Y-32320790D01*
X71362866Y-31796980D02*
X71981914Y-31796980D01*
X71648580Y-32177933D01*
X71791438Y-32177933D01*
X71886676Y-32225552D01*
X71934295Y-32273171D01*
X71981914Y-32368409D01*
X71981914Y-32606504D01*
X71934295Y-32701742D01*
X71886676Y-32749361D01*
X71791438Y-32796980D01*
X71505723Y-32796980D01*
X71410485Y-32749361D01*
X71362866Y-32701742D01*
%TO.C,R4*%
X121076980Y-19064266D02*
X120600790Y-19397600D01*
X121076980Y-19635695D02*
X120076980Y-19635695D01*
X120076980Y-19254742D01*
X120124600Y-19159504D01*
X120172219Y-19111885D01*
X120267457Y-19064266D01*
X120410314Y-19064266D01*
X120505552Y-19111885D01*
X120553171Y-19159504D01*
X120600790Y-19254742D01*
X120600790Y-19635695D01*
X120410314Y-18207123D02*
X121076980Y-18207123D01*
X120029361Y-18445219D02*
X120743647Y-18683314D01*
X120743647Y-18064266D01*
%TO.C,R5*%
X106217980Y-10910866D02*
X105741790Y-11244200D01*
X106217980Y-11482295D02*
X105217980Y-11482295D01*
X105217980Y-11101342D01*
X105265600Y-11006104D01*
X105313219Y-10958485D01*
X105408457Y-10910866D01*
X105551314Y-10910866D01*
X105646552Y-10958485D01*
X105694171Y-11006104D01*
X105741790Y-11101342D01*
X105741790Y-11482295D01*
X105217980Y-10006104D02*
X105217980Y-10482295D01*
X105694171Y-10529914D01*
X105646552Y-10482295D01*
X105598933Y-10387057D01*
X105598933Y-10148961D01*
X105646552Y-10053723D01*
X105694171Y-10006104D01*
X105789409Y-9958485D01*
X106027504Y-9958485D01*
X106122742Y-10006104D01*
X106170361Y-10053723D01*
X106217980Y-10148961D01*
X106217980Y-10387057D01*
X106170361Y-10482295D01*
X106122742Y-10529914D01*
%TO.C,R6*%
X114498380Y-19191266D02*
X114022190Y-19524600D01*
X114498380Y-19762695D02*
X113498380Y-19762695D01*
X113498380Y-19381742D01*
X113546000Y-19286504D01*
X113593619Y-19238885D01*
X113688857Y-19191266D01*
X113831714Y-19191266D01*
X113926952Y-19238885D01*
X113974571Y-19286504D01*
X114022190Y-19381742D01*
X114022190Y-19762695D01*
X113498380Y-18334123D02*
X113498380Y-18524600D01*
X113546000Y-18619838D01*
X113593619Y-18667457D01*
X113736476Y-18762695D01*
X113926952Y-18810314D01*
X114307904Y-18810314D01*
X114403142Y-18762695D01*
X114450761Y-18715076D01*
X114498380Y-18619838D01*
X114498380Y-18429361D01*
X114450761Y-18334123D01*
X114403142Y-18286504D01*
X114307904Y-18238885D01*
X114069809Y-18238885D01*
X113974571Y-18286504D01*
X113926952Y-18334123D01*
X113879333Y-18429361D01*
X113879333Y-18619838D01*
X113926952Y-18715076D01*
X113974571Y-18762695D01*
X114069809Y-18810314D01*
%TO.C,R9*%
X127223780Y-19292866D02*
X126747590Y-19626200D01*
X127223780Y-19864295D02*
X126223780Y-19864295D01*
X126223780Y-19483342D01*
X126271400Y-19388104D01*
X126319019Y-19340485D01*
X126414257Y-19292866D01*
X126557114Y-19292866D01*
X126652352Y-19340485D01*
X126699971Y-19388104D01*
X126747590Y-19483342D01*
X126747590Y-19864295D01*
X127223780Y-18816676D02*
X127223780Y-18626200D01*
X127176161Y-18530961D01*
X127128542Y-18483342D01*
X126985685Y-18388104D01*
X126795209Y-18340485D01*
X126414257Y-18340485D01*
X126319019Y-18388104D01*
X126271400Y-18435723D01*
X126223780Y-18530961D01*
X126223780Y-18721438D01*
X126271400Y-18816676D01*
X126319019Y-18864295D01*
X126414257Y-18911914D01*
X126652352Y-18911914D01*
X126747590Y-18864295D01*
X126795209Y-18816676D01*
X126842828Y-18721438D01*
X126842828Y-18530961D01*
X126795209Y-18435723D01*
X126747590Y-18388104D01*
X126652352Y-18340485D01*
%TO.C,R10*%
X133141980Y-19515057D02*
X132665790Y-19848390D01*
X133141980Y-20086485D02*
X132141980Y-20086485D01*
X132141980Y-19705533D01*
X132189600Y-19610295D01*
X132237219Y-19562676D01*
X132332457Y-19515057D01*
X132475314Y-19515057D01*
X132570552Y-19562676D01*
X132618171Y-19610295D01*
X132665790Y-19705533D01*
X132665790Y-20086485D01*
X133141980Y-18562676D02*
X133141980Y-19134104D01*
X133141980Y-18848390D02*
X132141980Y-18848390D01*
X132284838Y-18943628D01*
X132380076Y-19038866D01*
X132427695Y-19134104D01*
X132141980Y-17943628D02*
X132141980Y-17848390D01*
X132189600Y-17753152D01*
X132237219Y-17705533D01*
X132332457Y-17657914D01*
X132522933Y-17610295D01*
X132761028Y-17610295D01*
X132951504Y-17657914D01*
X133046742Y-17705533D01*
X133094361Y-17753152D01*
X133141980Y-17848390D01*
X133141980Y-17943628D01*
X133094361Y-18038866D01*
X133046742Y-18086485D01*
X132951504Y-18134104D01*
X132761028Y-18181723D01*
X132522933Y-18181723D01*
X132332457Y-18134104D01*
X132237219Y-18086485D01*
X132189600Y-18038866D01*
X132141980Y-17943628D01*
%TO.C,R11*%
X95829380Y-11133057D02*
X95353190Y-11466390D01*
X95829380Y-11704485D02*
X94829380Y-11704485D01*
X94829380Y-11323533D01*
X94877000Y-11228295D01*
X94924619Y-11180676D01*
X95019857Y-11133057D01*
X95162714Y-11133057D01*
X95257952Y-11180676D01*
X95305571Y-11228295D01*
X95353190Y-11323533D01*
X95353190Y-11704485D01*
X95829380Y-10180676D02*
X95829380Y-10752104D01*
X95829380Y-10466390D02*
X94829380Y-10466390D01*
X94972238Y-10561628D01*
X95067476Y-10656866D01*
X95115095Y-10752104D01*
X95829380Y-9228295D02*
X95829380Y-9799723D01*
X95829380Y-9514009D02*
X94829380Y-9514009D01*
X94972238Y-9609247D01*
X95067476Y-9704485D01*
X95115095Y-9799723D01*
%TO.C,R12*%
X100731580Y-11437857D02*
X100255390Y-11771190D01*
X100731580Y-12009285D02*
X99731580Y-12009285D01*
X99731580Y-11628333D01*
X99779200Y-11533095D01*
X99826819Y-11485476D01*
X99922057Y-11437857D01*
X100064914Y-11437857D01*
X100160152Y-11485476D01*
X100207771Y-11533095D01*
X100255390Y-11628333D01*
X100255390Y-12009285D01*
X100731580Y-10485476D02*
X100731580Y-11056904D01*
X100731580Y-10771190D02*
X99731580Y-10771190D01*
X99874438Y-10866428D01*
X99969676Y-10961666D01*
X100017295Y-11056904D01*
X99826819Y-10104523D02*
X99779200Y-10056904D01*
X99731580Y-9961666D01*
X99731580Y-9723571D01*
X99779200Y-9628333D01*
X99826819Y-9580714D01*
X99922057Y-9533095D01*
X100017295Y-9533095D01*
X100160152Y-9580714D01*
X100731580Y-10152142D01*
X100731580Y-9533095D01*
%TO.C,R13*%
X110993180Y-11463257D02*
X110516990Y-11796590D01*
X110993180Y-12034685D02*
X109993180Y-12034685D01*
X109993180Y-11653733D01*
X110040800Y-11558495D01*
X110088419Y-11510876D01*
X110183657Y-11463257D01*
X110326514Y-11463257D01*
X110421752Y-11510876D01*
X110469371Y-11558495D01*
X110516990Y-11653733D01*
X110516990Y-12034685D01*
X110993180Y-10510876D02*
X110993180Y-11082304D01*
X110993180Y-10796590D02*
X109993180Y-10796590D01*
X110136038Y-10891828D01*
X110231276Y-10987066D01*
X110278895Y-11082304D01*
X109993180Y-10177542D02*
X109993180Y-9558495D01*
X110374133Y-9891828D01*
X110374133Y-9748971D01*
X110421752Y-9653733D01*
X110469371Y-9606114D01*
X110564609Y-9558495D01*
X110802704Y-9558495D01*
X110897942Y-9606114D01*
X110945561Y-9653733D01*
X110993180Y-9748971D01*
X110993180Y-10034685D01*
X110945561Y-10129923D01*
X110897942Y-10177542D01*
%TO.C,D11*%
X116733580Y-102992085D02*
X115733580Y-102992085D01*
X115733580Y-102753990D01*
X115781200Y-102611133D01*
X115876438Y-102515895D01*
X115971676Y-102468276D01*
X116162152Y-102420657D01*
X116305009Y-102420657D01*
X116495485Y-102468276D01*
X116590723Y-102515895D01*
X116685961Y-102611133D01*
X116733580Y-102753990D01*
X116733580Y-102992085D01*
X116733580Y-101468276D02*
X116733580Y-102039704D01*
X116733580Y-101753990D02*
X115733580Y-101753990D01*
X115876438Y-101849228D01*
X115971676Y-101944466D01*
X116019295Y-102039704D01*
X116733580Y-100515895D02*
X116733580Y-101087323D01*
X116733580Y-100801609D02*
X115733580Y-100801609D01*
X115876438Y-100896847D01*
X115971676Y-100992085D01*
X116019295Y-101087323D01*
X117190780Y-108262704D02*
X116190780Y-108262704D01*
X117190780Y-107691276D02*
X116619352Y-108119847D01*
X116190780Y-107691276D02*
X116762209Y-108262704D01*
%TO.C,D12*%
X118943380Y-102966685D02*
X117943380Y-102966685D01*
X117943380Y-102728590D01*
X117991000Y-102585733D01*
X118086238Y-102490495D01*
X118181476Y-102442876D01*
X118371952Y-102395257D01*
X118514809Y-102395257D01*
X118705285Y-102442876D01*
X118800523Y-102490495D01*
X118895761Y-102585733D01*
X118943380Y-102728590D01*
X118943380Y-102966685D01*
X118943380Y-101442876D02*
X118943380Y-102014304D01*
X118943380Y-101728590D02*
X117943380Y-101728590D01*
X118086238Y-101823828D01*
X118181476Y-101919066D01*
X118229095Y-102014304D01*
X118038619Y-101061923D02*
X117991000Y-101014304D01*
X117943380Y-100919066D01*
X117943380Y-100680971D01*
X117991000Y-100585733D01*
X118038619Y-100538114D01*
X118133857Y-100490495D01*
X118229095Y-100490495D01*
X118371952Y-100538114D01*
X118943380Y-101109542D01*
X118943380Y-100490495D01*
X119756180Y-108440504D02*
X118756180Y-108440504D01*
X119756180Y-107869076D02*
X119184752Y-108297647D01*
X118756180Y-107869076D02*
X119327609Y-108440504D01*
%TO.C,D13*%
X121813580Y-102915885D02*
X120813580Y-102915885D01*
X120813580Y-102677790D01*
X120861200Y-102534933D01*
X120956438Y-102439695D01*
X121051676Y-102392076D01*
X121242152Y-102344457D01*
X121385009Y-102344457D01*
X121575485Y-102392076D01*
X121670723Y-102439695D01*
X121765961Y-102534933D01*
X121813580Y-102677790D01*
X121813580Y-102915885D01*
X121813580Y-101392076D02*
X121813580Y-101963504D01*
X121813580Y-101677790D02*
X120813580Y-101677790D01*
X120956438Y-101773028D01*
X121051676Y-101868266D01*
X121099295Y-101963504D01*
X120813580Y-101058742D02*
X120813580Y-100439695D01*
X121194533Y-100773028D01*
X121194533Y-100630171D01*
X121242152Y-100534933D01*
X121289771Y-100487314D01*
X121385009Y-100439695D01*
X121623104Y-100439695D01*
X121718342Y-100487314D01*
X121765961Y-100534933D01*
X121813580Y-100630171D01*
X121813580Y-100915885D01*
X121765961Y-101011123D01*
X121718342Y-101058742D01*
X122448580Y-108364304D02*
X121448580Y-108364304D01*
X122448580Y-107792876D02*
X121877152Y-108221447D01*
X121448580Y-107792876D02*
X122020009Y-108364304D01*
%TO.C,D14*%
X124302780Y-102915885D02*
X123302780Y-102915885D01*
X123302780Y-102677790D01*
X123350400Y-102534933D01*
X123445638Y-102439695D01*
X123540876Y-102392076D01*
X123731352Y-102344457D01*
X123874209Y-102344457D01*
X124064685Y-102392076D01*
X124159923Y-102439695D01*
X124255161Y-102534933D01*
X124302780Y-102677790D01*
X124302780Y-102915885D01*
X124302780Y-101392076D02*
X124302780Y-101963504D01*
X124302780Y-101677790D02*
X123302780Y-101677790D01*
X123445638Y-101773028D01*
X123540876Y-101868266D01*
X123588495Y-101963504D01*
X123636114Y-100534933D02*
X124302780Y-100534933D01*
X123255161Y-100773028D02*
X123969447Y-101011123D01*
X123969447Y-100392076D01*
X124912380Y-108135704D02*
X123912380Y-108135704D01*
X124912380Y-107564276D02*
X124340952Y-107992847D01*
X123912380Y-107564276D02*
X124483809Y-108135704D01*
%TO.C,D15*%
X126766580Y-103093685D02*
X125766580Y-103093685D01*
X125766580Y-102855590D01*
X125814200Y-102712733D01*
X125909438Y-102617495D01*
X126004676Y-102569876D01*
X126195152Y-102522257D01*
X126338009Y-102522257D01*
X126528485Y-102569876D01*
X126623723Y-102617495D01*
X126718961Y-102712733D01*
X126766580Y-102855590D01*
X126766580Y-103093685D01*
X126766580Y-101569876D02*
X126766580Y-102141304D01*
X126766580Y-101855590D02*
X125766580Y-101855590D01*
X125909438Y-101950828D01*
X126004676Y-102046066D01*
X126052295Y-102141304D01*
X125766580Y-100665114D02*
X125766580Y-101141304D01*
X126242771Y-101188923D01*
X126195152Y-101141304D01*
X126147533Y-101046066D01*
X126147533Y-100807971D01*
X126195152Y-100712733D01*
X126242771Y-100665114D01*
X126338009Y-100617495D01*
X126576104Y-100617495D01*
X126671342Y-100665114D01*
X126718961Y-100712733D01*
X126766580Y-100807971D01*
X126766580Y-101046066D01*
X126718961Y-101141304D01*
X126671342Y-101188923D01*
X127553980Y-108211904D02*
X126553980Y-108211904D01*
X127553980Y-107640476D02*
X126982552Y-108069047D01*
X126553980Y-107640476D02*
X127125409Y-108211904D01*
%TO.C,D16*%
X129408180Y-102941285D02*
X128408180Y-102941285D01*
X128408180Y-102703190D01*
X128455800Y-102560333D01*
X128551038Y-102465095D01*
X128646276Y-102417476D01*
X128836752Y-102369857D01*
X128979609Y-102369857D01*
X129170085Y-102417476D01*
X129265323Y-102465095D01*
X129360561Y-102560333D01*
X129408180Y-102703190D01*
X129408180Y-102941285D01*
X129408180Y-101417476D02*
X129408180Y-101988904D01*
X129408180Y-101703190D02*
X128408180Y-101703190D01*
X128551038Y-101798428D01*
X128646276Y-101893666D01*
X128693895Y-101988904D01*
X128408180Y-100560333D02*
X128408180Y-100750809D01*
X128455800Y-100846047D01*
X128503419Y-100893666D01*
X128646276Y-100988904D01*
X128836752Y-101036523D01*
X129217704Y-101036523D01*
X129312942Y-100988904D01*
X129360561Y-100941285D01*
X129408180Y-100846047D01*
X129408180Y-100655571D01*
X129360561Y-100560333D01*
X129312942Y-100512714D01*
X129217704Y-100465095D01*
X128979609Y-100465095D01*
X128884371Y-100512714D01*
X128836752Y-100560333D01*
X128789133Y-100655571D01*
X128789133Y-100846047D01*
X128836752Y-100941285D01*
X128884371Y-100988904D01*
X128979609Y-101036523D01*
X130220980Y-108008704D02*
X129220980Y-108008704D01*
X130220980Y-107437276D02*
X129649552Y-107865847D01*
X129220980Y-107437276D02*
X129792409Y-108008704D01*
%TO.C,D17*%
X132151380Y-102890485D02*
X131151380Y-102890485D01*
X131151380Y-102652390D01*
X131199000Y-102509533D01*
X131294238Y-102414295D01*
X131389476Y-102366676D01*
X131579952Y-102319057D01*
X131722809Y-102319057D01*
X131913285Y-102366676D01*
X132008523Y-102414295D01*
X132103761Y-102509533D01*
X132151380Y-102652390D01*
X132151380Y-102890485D01*
X132151380Y-101366676D02*
X132151380Y-101938104D01*
X132151380Y-101652390D02*
X131151380Y-101652390D01*
X131294238Y-101747628D01*
X131389476Y-101842866D01*
X131437095Y-101938104D01*
X131151380Y-101033342D02*
X131151380Y-100366676D01*
X132151380Y-100795247D01*
X132938780Y-108034104D02*
X131938780Y-108034104D01*
X132938780Y-107462676D02*
X132367352Y-107891247D01*
X131938780Y-107462676D02*
X132510209Y-108034104D01*
%TO.C,D18*%
X134640580Y-102941285D02*
X133640580Y-102941285D01*
X133640580Y-102703190D01*
X133688200Y-102560333D01*
X133783438Y-102465095D01*
X133878676Y-102417476D01*
X134069152Y-102369857D01*
X134212009Y-102369857D01*
X134402485Y-102417476D01*
X134497723Y-102465095D01*
X134592961Y-102560333D01*
X134640580Y-102703190D01*
X134640580Y-102941285D01*
X134640580Y-101417476D02*
X134640580Y-101988904D01*
X134640580Y-101703190D02*
X133640580Y-101703190D01*
X133783438Y-101798428D01*
X133878676Y-101893666D01*
X133926295Y-101988904D01*
X134069152Y-100846047D02*
X134021533Y-100941285D01*
X133973914Y-100988904D01*
X133878676Y-101036523D01*
X133831057Y-101036523D01*
X133735819Y-100988904D01*
X133688200Y-100941285D01*
X133640580Y-100846047D01*
X133640580Y-100655571D01*
X133688200Y-100560333D01*
X133735819Y-100512714D01*
X133831057Y-100465095D01*
X133878676Y-100465095D01*
X133973914Y-100512714D01*
X134021533Y-100560333D01*
X134069152Y-100655571D01*
X134069152Y-100846047D01*
X134116771Y-100941285D01*
X134164390Y-100988904D01*
X134259628Y-101036523D01*
X134450104Y-101036523D01*
X134545342Y-100988904D01*
X134592961Y-100941285D01*
X134640580Y-100846047D01*
X134640580Y-100655571D01*
X134592961Y-100560333D01*
X134545342Y-100512714D01*
X134450104Y-100465095D01*
X134259628Y-100465095D01*
X134164390Y-100512714D01*
X134116771Y-100560333D01*
X134069152Y-100655571D01*
X135707380Y-107907104D02*
X134707380Y-107907104D01*
X135707380Y-107335676D02*
X135135952Y-107764247D01*
X134707380Y-107335676D02*
X135278809Y-107907104D01*
%TO.C,R14*%
X105041780Y-131071857D02*
X104565590Y-131405190D01*
X105041780Y-131643285D02*
X104041780Y-131643285D01*
X104041780Y-131262333D01*
X104089400Y-131167095D01*
X104137019Y-131119476D01*
X104232257Y-131071857D01*
X104375114Y-131071857D01*
X104470352Y-131119476D01*
X104517971Y-131167095D01*
X104565590Y-131262333D01*
X104565590Y-131643285D01*
X105041780Y-130119476D02*
X105041780Y-130690904D01*
X105041780Y-130405190D02*
X104041780Y-130405190D01*
X104184638Y-130500428D01*
X104279876Y-130595666D01*
X104327495Y-130690904D01*
X104375114Y-129262333D02*
X105041780Y-129262333D01*
X103994161Y-129500428D02*
X104708447Y-129738523D01*
X104708447Y-129119476D01*
%TO.C,R15*%
X109893180Y-131046457D02*
X109416990Y-131379790D01*
X109893180Y-131617885D02*
X108893180Y-131617885D01*
X108893180Y-131236933D01*
X108940800Y-131141695D01*
X108988419Y-131094076D01*
X109083657Y-131046457D01*
X109226514Y-131046457D01*
X109321752Y-131094076D01*
X109369371Y-131141695D01*
X109416990Y-131236933D01*
X109416990Y-131617885D01*
X109893180Y-130094076D02*
X109893180Y-130665504D01*
X109893180Y-130379790D02*
X108893180Y-130379790D01*
X109036038Y-130475028D01*
X109131276Y-130570266D01*
X109178895Y-130665504D01*
X108893180Y-129189314D02*
X108893180Y-129665504D01*
X109369371Y-129713123D01*
X109321752Y-129665504D01*
X109274133Y-129570266D01*
X109274133Y-129332171D01*
X109321752Y-129236933D01*
X109369371Y-129189314D01*
X109464609Y-129141695D01*
X109702704Y-129141695D01*
X109797942Y-129189314D01*
X109845561Y-129236933D01*
X109893180Y-129332171D01*
X109893180Y-129570266D01*
X109845561Y-129665504D01*
X109797942Y-129713123D01*
%TO.C,R16*%
X114947780Y-131046457D02*
X114471590Y-131379790D01*
X114947780Y-131617885D02*
X113947780Y-131617885D01*
X113947780Y-131236933D01*
X113995400Y-131141695D01*
X114043019Y-131094076D01*
X114138257Y-131046457D01*
X114281114Y-131046457D01*
X114376352Y-131094076D01*
X114423971Y-131141695D01*
X114471590Y-131236933D01*
X114471590Y-131617885D01*
X114947780Y-130094076D02*
X114947780Y-130665504D01*
X114947780Y-130379790D02*
X113947780Y-130379790D01*
X114090638Y-130475028D01*
X114185876Y-130570266D01*
X114233495Y-130665504D01*
X113947780Y-129236933D02*
X113947780Y-129427409D01*
X113995400Y-129522647D01*
X114043019Y-129570266D01*
X114185876Y-129665504D01*
X114376352Y-129713123D01*
X114757304Y-129713123D01*
X114852542Y-129665504D01*
X114900161Y-129617885D01*
X114947780Y-129522647D01*
X114947780Y-129332171D01*
X114900161Y-129236933D01*
X114852542Y-129189314D01*
X114757304Y-129141695D01*
X114519209Y-129141695D01*
X114423971Y-129189314D01*
X114376352Y-129236933D01*
X114328733Y-129332171D01*
X114328733Y-129522647D01*
X114376352Y-129617885D01*
X114423971Y-129665504D01*
X114519209Y-129713123D01*
%TO.C,R17*%
X119926180Y-130944857D02*
X119449990Y-131278190D01*
X119926180Y-131516285D02*
X118926180Y-131516285D01*
X118926180Y-131135333D01*
X118973800Y-131040095D01*
X119021419Y-130992476D01*
X119116657Y-130944857D01*
X119259514Y-130944857D01*
X119354752Y-130992476D01*
X119402371Y-131040095D01*
X119449990Y-131135333D01*
X119449990Y-131516285D01*
X119926180Y-129992476D02*
X119926180Y-130563904D01*
X119926180Y-130278190D02*
X118926180Y-130278190D01*
X119069038Y-130373428D01*
X119164276Y-130468666D01*
X119211895Y-130563904D01*
X118926180Y-129659142D02*
X118926180Y-128992476D01*
X119926180Y-129421047D01*
%TO.C,R18*%
X124904580Y-130843257D02*
X124428390Y-131176590D01*
X124904580Y-131414685D02*
X123904580Y-131414685D01*
X123904580Y-131033733D01*
X123952200Y-130938495D01*
X123999819Y-130890876D01*
X124095057Y-130843257D01*
X124237914Y-130843257D01*
X124333152Y-130890876D01*
X124380771Y-130938495D01*
X124428390Y-131033733D01*
X124428390Y-131414685D01*
X124904580Y-129890876D02*
X124904580Y-130462304D01*
X124904580Y-130176590D02*
X123904580Y-130176590D01*
X124047438Y-130271828D01*
X124142676Y-130367066D01*
X124190295Y-130462304D01*
X124333152Y-129319447D02*
X124285533Y-129414685D01*
X124237914Y-129462304D01*
X124142676Y-129509923D01*
X124095057Y-129509923D01*
X123999819Y-129462304D01*
X123952200Y-129414685D01*
X123904580Y-129319447D01*
X123904580Y-129128971D01*
X123952200Y-129033733D01*
X123999819Y-128986114D01*
X124095057Y-128938495D01*
X124142676Y-128938495D01*
X124237914Y-128986114D01*
X124285533Y-129033733D01*
X124333152Y-129128971D01*
X124333152Y-129319447D01*
X124380771Y-129414685D01*
X124428390Y-129462304D01*
X124523628Y-129509923D01*
X124714104Y-129509923D01*
X124809342Y-129462304D01*
X124856961Y-129414685D01*
X124904580Y-129319447D01*
X124904580Y-129128971D01*
X124856961Y-129033733D01*
X124809342Y-128986114D01*
X124714104Y-128938495D01*
X124523628Y-128938495D01*
X124428390Y-128986114D01*
X124380771Y-129033733D01*
X124333152Y-129128971D01*
%TO.C,R19*%
X129984580Y-130868657D02*
X129508390Y-131201990D01*
X129984580Y-131440085D02*
X128984580Y-131440085D01*
X128984580Y-131059133D01*
X129032200Y-130963895D01*
X129079819Y-130916276D01*
X129175057Y-130868657D01*
X129317914Y-130868657D01*
X129413152Y-130916276D01*
X129460771Y-130963895D01*
X129508390Y-131059133D01*
X129508390Y-131440085D01*
X129984580Y-129916276D02*
X129984580Y-130487704D01*
X129984580Y-130201990D02*
X128984580Y-130201990D01*
X129127438Y-130297228D01*
X129222676Y-130392466D01*
X129270295Y-130487704D01*
X129984580Y-129440085D02*
X129984580Y-129249609D01*
X129936961Y-129154371D01*
X129889342Y-129106752D01*
X129746485Y-129011514D01*
X129556009Y-128963895D01*
X129175057Y-128963895D01*
X129079819Y-129011514D01*
X129032200Y-129059133D01*
X128984580Y-129154371D01*
X128984580Y-129344847D01*
X129032200Y-129440085D01*
X129079819Y-129487704D01*
X129175057Y-129535323D01*
X129413152Y-129535323D01*
X129508390Y-129487704D01*
X129556009Y-129440085D01*
X129603628Y-129344847D01*
X129603628Y-129154371D01*
X129556009Y-129059133D01*
X129508390Y-129011514D01*
X129413152Y-128963895D01*
%TO.C,R20*%
X134962980Y-130868657D02*
X134486790Y-131201990D01*
X134962980Y-131440085D02*
X133962980Y-131440085D01*
X133962980Y-131059133D01*
X134010600Y-130963895D01*
X134058219Y-130916276D01*
X134153457Y-130868657D01*
X134296314Y-130868657D01*
X134391552Y-130916276D01*
X134439171Y-130963895D01*
X134486790Y-131059133D01*
X134486790Y-131440085D01*
X134058219Y-130487704D02*
X134010600Y-130440085D01*
X133962980Y-130344847D01*
X133962980Y-130106752D01*
X134010600Y-130011514D01*
X134058219Y-129963895D01*
X134153457Y-129916276D01*
X134248695Y-129916276D01*
X134391552Y-129963895D01*
X134962980Y-130535323D01*
X134962980Y-129916276D01*
X133962980Y-129297228D02*
X133962980Y-129201990D01*
X134010600Y-129106752D01*
X134058219Y-129059133D01*
X134153457Y-129011514D01*
X134343933Y-128963895D01*
X134582028Y-128963895D01*
X134772504Y-129011514D01*
X134867742Y-129059133D01*
X134915361Y-129106752D01*
X134962980Y-129201990D01*
X134962980Y-129297228D01*
X134915361Y-129392466D01*
X134867742Y-129440085D01*
X134772504Y-129487704D01*
X134582028Y-129535323D01*
X134343933Y-129535323D01*
X134153457Y-129487704D01*
X134058219Y-129440085D01*
X134010600Y-129392466D01*
X133962980Y-129297228D01*
%TO.C,R21*%
X139966780Y-130767057D02*
X139490590Y-131100390D01*
X139966780Y-131338485D02*
X138966780Y-131338485D01*
X138966780Y-130957533D01*
X139014400Y-130862295D01*
X139062019Y-130814676D01*
X139157257Y-130767057D01*
X139300114Y-130767057D01*
X139395352Y-130814676D01*
X139442971Y-130862295D01*
X139490590Y-130957533D01*
X139490590Y-131338485D01*
X139062019Y-130386104D02*
X139014400Y-130338485D01*
X138966780Y-130243247D01*
X138966780Y-130005152D01*
X139014400Y-129909914D01*
X139062019Y-129862295D01*
X139157257Y-129814676D01*
X139252495Y-129814676D01*
X139395352Y-129862295D01*
X139966780Y-130433723D01*
X139966780Y-129814676D01*
X139966780Y-128862295D02*
X139966780Y-129433723D01*
X139966780Y-129148009D02*
X138966780Y-129148009D01*
X139109638Y-129243247D01*
X139204876Y-129338485D01*
X139252495Y-129433723D01*
%TO.C,R22*%
X171492942Y-54909980D02*
X171159609Y-54433790D01*
X170921514Y-54909980D02*
X170921514Y-53909980D01*
X171302466Y-53909980D01*
X171397704Y-53957600D01*
X171445323Y-54005219D01*
X171492942Y-54100457D01*
X171492942Y-54243314D01*
X171445323Y-54338552D01*
X171397704Y-54386171D01*
X171302466Y-54433790D01*
X170921514Y-54433790D01*
X171873895Y-54005219D02*
X171921514Y-53957600D01*
X172016752Y-53909980D01*
X172254847Y-53909980D01*
X172350085Y-53957600D01*
X172397704Y-54005219D01*
X172445323Y-54100457D01*
X172445323Y-54195695D01*
X172397704Y-54338552D01*
X171826276Y-54909980D01*
X172445323Y-54909980D01*
X172826276Y-54005219D02*
X172873895Y-53957600D01*
X172969133Y-53909980D01*
X173207228Y-53909980D01*
X173302466Y-53957600D01*
X173350085Y-54005219D01*
X173397704Y-54100457D01*
X173397704Y-54195695D01*
X173350085Y-54338552D01*
X172778657Y-54909980D01*
X173397704Y-54909980D01*
%TO.C,R23*%
X171492942Y-58846980D02*
X171159609Y-58370790D01*
X170921514Y-58846980D02*
X170921514Y-57846980D01*
X171302466Y-57846980D01*
X171397704Y-57894600D01*
X171445323Y-57942219D01*
X171492942Y-58037457D01*
X171492942Y-58180314D01*
X171445323Y-58275552D01*
X171397704Y-58323171D01*
X171302466Y-58370790D01*
X170921514Y-58370790D01*
X171873895Y-57942219D02*
X171921514Y-57894600D01*
X172016752Y-57846980D01*
X172254847Y-57846980D01*
X172350085Y-57894600D01*
X172397704Y-57942219D01*
X172445323Y-58037457D01*
X172445323Y-58132695D01*
X172397704Y-58275552D01*
X171826276Y-58846980D01*
X172445323Y-58846980D01*
X172778657Y-57846980D02*
X173397704Y-57846980D01*
X173064371Y-58227933D01*
X173207228Y-58227933D01*
X173302466Y-58275552D01*
X173350085Y-58323171D01*
X173397704Y-58418409D01*
X173397704Y-58656504D01*
X173350085Y-58751742D01*
X173302466Y-58799361D01*
X173207228Y-58846980D01*
X172921514Y-58846980D01*
X172826276Y-58799361D01*
X172778657Y-58751742D01*
%TO.C,J19*%
X99154180Y-59280323D02*
X99868466Y-59280323D01*
X100011323Y-59327942D01*
X100106561Y-59423180D01*
X100154180Y-59566038D01*
X100154180Y-59661276D01*
X100154180Y-58280323D02*
X100154180Y-58851752D01*
X100154180Y-58566038D02*
X99154180Y-58566038D01*
X99297038Y-58661276D01*
X99392276Y-58756514D01*
X99439895Y-58851752D01*
X100154180Y-57804133D02*
X100154180Y-57613657D01*
X100106561Y-57518419D01*
X100058942Y-57470800D01*
X99916085Y-57375561D01*
X99725609Y-57327942D01*
X99344657Y-57327942D01*
X99249419Y-57375561D01*
X99201800Y-57423180D01*
X99154180Y-57518419D01*
X99154180Y-57708895D01*
X99201800Y-57804133D01*
X99249419Y-57851752D01*
X99344657Y-57899371D01*
X99582752Y-57899371D01*
X99677990Y-57851752D01*
X99725609Y-57804133D01*
X99773228Y-57708895D01*
X99773228Y-57518419D01*
X99725609Y-57423180D01*
X99677990Y-57375561D01*
X99582752Y-57327942D01*
%TO.C,C2*%
X116760333Y-33801942D02*
X116712714Y-33849561D01*
X116569857Y-33897180D01*
X116474619Y-33897180D01*
X116331761Y-33849561D01*
X116236523Y-33754323D01*
X116188904Y-33659085D01*
X116141285Y-33468609D01*
X116141285Y-33325752D01*
X116188904Y-33135276D01*
X116236523Y-33040038D01*
X116331761Y-32944800D01*
X116474619Y-32897180D01*
X116569857Y-32897180D01*
X116712714Y-32944800D01*
X116760333Y-32992419D01*
X117141285Y-32992419D02*
X117188904Y-32944800D01*
X117284142Y-32897180D01*
X117522238Y-32897180D01*
X117617476Y-32944800D01*
X117665095Y-32992419D01*
X117712714Y-33087657D01*
X117712714Y-33182895D01*
X117665095Y-33325752D01*
X117093666Y-33897180D01*
X117712714Y-33897180D01*
%TO.C,D19*%
X92366914Y-51842380D02*
X92366914Y-50842380D01*
X92605009Y-50842380D01*
X92747866Y-50890000D01*
X92843104Y-50985238D01*
X92890723Y-51080476D01*
X92938342Y-51270952D01*
X92938342Y-51413809D01*
X92890723Y-51604285D01*
X92843104Y-51699523D01*
X92747866Y-51794761D01*
X92605009Y-51842380D01*
X92366914Y-51842380D01*
X93890723Y-51842380D02*
X93319295Y-51842380D01*
X93605009Y-51842380D02*
X93605009Y-50842380D01*
X93509771Y-50985238D01*
X93414533Y-51080476D01*
X93319295Y-51128095D01*
X94366914Y-51842380D02*
X94557390Y-51842380D01*
X94652628Y-51794761D01*
X94700247Y-51747142D01*
X94795485Y-51604285D01*
X94843104Y-51413809D01*
X94843104Y-51032857D01*
X94795485Y-50937619D01*
X94747866Y-50890000D01*
X94652628Y-50842380D01*
X94462152Y-50842380D01*
X94366914Y-50890000D01*
X94319295Y-50937619D01*
X94271676Y-51032857D01*
X94271676Y-51270952D01*
X94319295Y-51366190D01*
X94366914Y-51413809D01*
X94462152Y-51461428D01*
X94652628Y-51461428D01*
X94747866Y-51413809D01*
X94795485Y-51366190D01*
X94843104Y-51270952D01*
X103319295Y-48772380D02*
X103319295Y-47772380D01*
X103890723Y-48772380D02*
X103462152Y-48200952D01*
X103890723Y-47772380D02*
X103319295Y-48343809D01*
%TO.C,D20*%
X92570114Y-40767980D02*
X92570114Y-39767980D01*
X92808209Y-39767980D01*
X92951066Y-39815600D01*
X93046304Y-39910838D01*
X93093923Y-40006076D01*
X93141542Y-40196552D01*
X93141542Y-40339409D01*
X93093923Y-40529885D01*
X93046304Y-40625123D01*
X92951066Y-40720361D01*
X92808209Y-40767980D01*
X92570114Y-40767980D01*
X93522495Y-39863219D02*
X93570114Y-39815600D01*
X93665352Y-39767980D01*
X93903447Y-39767980D01*
X93998685Y-39815600D01*
X94046304Y-39863219D01*
X94093923Y-39958457D01*
X94093923Y-40053695D01*
X94046304Y-40196552D01*
X93474876Y-40767980D01*
X94093923Y-40767980D01*
X94712971Y-39767980D02*
X94808209Y-39767980D01*
X94903447Y-39815600D01*
X94951066Y-39863219D01*
X94998685Y-39958457D01*
X95046304Y-40148933D01*
X95046304Y-40387028D01*
X94998685Y-40577504D01*
X94951066Y-40672742D01*
X94903447Y-40720361D01*
X94808209Y-40767980D01*
X94712971Y-40767980D01*
X94617733Y-40720361D01*
X94570114Y-40672742D01*
X94522495Y-40577504D01*
X94474876Y-40387028D01*
X94474876Y-40148933D01*
X94522495Y-39958457D01*
X94570114Y-39863219D01*
X94617733Y-39815600D01*
X94712971Y-39767980D01*
X103522495Y-37697980D02*
X103522495Y-36697980D01*
X104093923Y-37697980D02*
X103665352Y-37126552D01*
X104093923Y-36697980D02*
X103522495Y-37269409D01*
%TO.C,J21*%
D16*
X48209466Y10768866D02*
X48209466Y9768866D01*
X48142800Y9568866D01*
X48009466Y9435533D01*
X47809466Y9368866D01*
X47676133Y9368866D01*
X48809466Y10635533D02*
X48876133Y10702200D01*
X49009466Y10768866D01*
X49342800Y10768866D01*
X49476133Y10702200D01*
X49542800Y10635533D01*
X49609466Y10502200D01*
X49609466Y10368866D01*
X49542800Y10168866D01*
X48742800Y9368866D01*
X49609466Y9368866D01*
X50942800Y9368866D02*
X50142800Y9368866D01*
X50542800Y9368866D02*
X50542800Y10768866D01*
X50409466Y10568866D01*
X50276133Y10435533D01*
X50142800Y10368866D01*
%TO.C,J20*%
X72201666Y10805266D02*
X72201666Y9805266D01*
X72135000Y9605266D01*
X72001666Y9471933D01*
X71801666Y9405266D01*
X71668333Y9405266D01*
X72801666Y10671933D02*
X72868333Y10738600D01*
X73001666Y10805266D01*
X73335000Y10805266D01*
X73468333Y10738600D01*
X73535000Y10671933D01*
X73601666Y10538600D01*
X73601666Y10405266D01*
X73535000Y10205266D01*
X72735000Y9405266D01*
X73601666Y9405266D01*
X74468333Y10805266D02*
X74601666Y10805266D01*
X74735000Y10738600D01*
X74801666Y10671933D01*
X74868333Y10538600D01*
X74935000Y10271933D01*
X74935000Y9938600D01*
X74868333Y9671933D01*
X74801666Y9538600D01*
X74735000Y9471933D01*
X74601666Y9405266D01*
X74468333Y9405266D01*
X74335000Y9471933D01*
X74268333Y9538600D01*
X74201666Y9671933D01*
X74135000Y9938600D01*
X74135000Y10271933D01*
X74201666Y10538600D01*
X74268333Y10671933D01*
X74335000Y10738600D01*
X74468333Y10805266D01*
%TO.C,J22*%
X129416276Y-95210380D02*
X129416276Y-95924666D01*
X129368657Y-96067523D01*
X129273419Y-96162761D01*
X129130561Y-96210380D01*
X129035323Y-96210380D01*
X129844847Y-95305619D02*
X129892466Y-95258000D01*
X129987704Y-95210380D01*
X130225800Y-95210380D01*
X130321038Y-95258000D01*
X130368657Y-95305619D01*
X130416276Y-95400857D01*
X130416276Y-95496095D01*
X130368657Y-95638952D01*
X129797228Y-96210380D01*
X130416276Y-96210380D01*
X130797228Y-95305619D02*
X130844847Y-95258000D01*
X130940085Y-95210380D01*
X131178180Y-95210380D01*
X131273419Y-95258000D01*
X131321038Y-95305619D01*
X131368657Y-95400857D01*
X131368657Y-95496095D01*
X131321038Y-95638952D01*
X130749609Y-96210380D01*
X131368657Y-96210380D01*
%TO.C,J10*%
X89106476Y-112482380D02*
X89106476Y-113196666D01*
X89058857Y-113339523D01*
X88963619Y-113434761D01*
X88820761Y-113482380D01*
X88725523Y-113482380D01*
X90106476Y-113482380D02*
X89535047Y-113482380D01*
X89820761Y-113482380D02*
X89820761Y-112482380D01*
X89725523Y-112625238D01*
X89630285Y-112720476D01*
X89535047Y-112768095D01*
X90725523Y-112482380D02*
X90820761Y-112482380D01*
X90916000Y-112530000D01*
X90963619Y-112577619D01*
X91011238Y-112672857D01*
X91058857Y-112863333D01*
X91058857Y-113101428D01*
X91011238Y-113291904D01*
X90963619Y-113387142D01*
X90916000Y-113434761D01*
X90820761Y-113482380D01*
X90725523Y-113482380D01*
X90630285Y-113434761D01*
X90582666Y-113387142D01*
X90535047Y-113291904D01*
X90487428Y-113101428D01*
X90487428Y-112863333D01*
X90535047Y-112672857D01*
X90582666Y-112577619D01*
X90630285Y-112530000D01*
X90725523Y-112482380D01*
%TD*%
M02*
