M48
; DRILL file {KiCad (5.1.6)-1} date 02/16/21 12:14:32
; FORMAT={-:-/ absolute / inch / decimal}
; #@! TF.CreationDate,2021-02-16T12:14:32-05:00
; #@! TF.GenerationSoftware,Kicad,Pcbnew,(5.1.6)-1
FMAT,2
INCH
T1C0.0157
T2C0.0276
T3C0.0300
T4C0.0315
T5C0.0400
T6C0.0402
T7C0.0433
T8C0.0500
T9C0.0512
T10C0.0551
T11C0.1051
T12C0.1260
T13C0.1000
%
G90
G05
T1
X4.7043Y-2.3764
X5.7874Y-2.9213
X5.9823Y-2.7933
T2
X2.311Y-1.4087
X2.311Y-1.7087
X5.4577Y-1.2215
X5.4577Y-1.5215
X3.5433Y-1.3555
X3.5433Y-1.6555
X5.563Y-1.2205
X5.563Y-1.5205
X4.7028Y-1.2274
X4.7028Y-1.5274
X5.3573Y-1.2215
X5.3573Y-1.5215
X5.2579Y-1.2224
X5.2579Y-1.5224
X5.1594Y-1.2224
X5.1594Y-1.5224
X4.9035Y-1.2264
X4.9035Y-1.5264
X5.6654Y-1.2205
X5.6654Y-1.5205
X3.9783Y-0.6506
X3.9783Y-0.9506
X5.0039Y-1.2264
X5.0039Y-1.5264
X2.7748Y-3.2549
X3.0748Y-3.2549
X4.8041Y-1.2254
X4.8041Y-1.5254
X3.7323Y-1.2972
X3.7323Y-1.5972
X4.1102Y-0.6555
X4.1102Y-0.9555
X2.3061Y-1.2618
X2.6061Y-1.2618
T3
X2.5091Y-1.3772
X2.5091Y-1.4772
X2.5091Y-1.5772
X2.5091Y-1.6772
X2.8091Y-1.3772
X2.8091Y-1.4772
X2.8091Y-1.5772
X2.8091Y-1.6772
T4
X6.2146Y-3.1744
X6.2146Y-3.4744
X5.5217Y-3.7614
X5.5217Y-4.1614
X5.2657Y-1.8012
X5.2657Y-2.1012
X5.6516Y-3.7634
X5.6516Y-4.1634
X4.6073Y-1.7972
X4.6073Y-2.0972
X5.4813Y-1.8002
X5.4813Y-2.1002
X6.1122Y-3.1705
X6.1122Y-3.4705
X5.8031Y-3.1685
X5.8031Y-3.4685
X5.2461Y-3.7594
X5.2461Y-4.1594
X4.501Y-1.7982
X4.501Y-2.0982
X5.1535Y-1.8031
X5.1535Y-2.1031
X5.6043Y-3.1665
X5.6043Y-3.4665
X5.4055Y-3.1685
X5.4055Y-3.4685
X5.7028Y-3.1665
X5.7028Y-3.4665
X5.1909Y-0.7596
X5.1909Y-0.8596
X5.1909Y-0.9596
X5.5728Y-0.7459
X5.5728Y-0.8459
X5.5728Y-0.9459
X6.3484Y-0.7459
X6.3484Y-0.8459
X6.3484Y-0.9459
X6.1791Y-3.7594
X6.1791Y-4.1594
X5.374Y-1.8002
X5.374Y-2.1002
X5.3051Y-3.1685
X5.3051Y-3.4685
X4.3996Y-0.7695
X4.3996Y-0.8695
X4.3996Y-0.9695
X5.9075Y-3.7594
X5.9075Y-4.1594
X5.7795Y-3.7614
X5.7795Y-4.1614
X6.0394Y-3.7594
X6.0394Y-4.1594
X5.5059Y-3.1665
X5.5059Y-3.4665
X5.3898Y-3.7594
X5.3898Y-4.1594
X4.8051Y-0.7567
X4.8051Y-0.8567
X4.8051Y-0.9567
X5.9675Y-0.7419
X5.9675Y-0.8419
X5.9675Y-0.9419
T5
X3.2307Y-3.2612
X3.2307Y-3.3612
X3.2307Y-3.4612
T6
X7.064Y-1.6868
X7.064Y-1.7868
X7.064Y-1.8868
X7.064Y-1.9868
X7.064Y-2.0868
X7.064Y-2.1868
X7.064Y-2.2868
X7.064Y-2.3868
X7.064Y-2.4868
X7.064Y-2.5868
X7.064Y-2.6868
X7.064Y-2.7868
X7.064Y-2.8868
X7.064Y-2.9868
X7.064Y-3.0868
X7.064Y-3.1868
X7.064Y-3.2868
X7.064Y-3.3868
X7.164Y-1.6868
X7.164Y-1.7868
X7.164Y-1.8868
X7.164Y-1.9868
X7.164Y-2.0868
X7.164Y-2.1868
X7.164Y-2.2868
X7.164Y-2.3868
X7.164Y-2.4868
X7.164Y-2.5868
X7.164Y-2.6868
X7.164Y-2.7868
X7.164Y-2.8868
X7.164Y-2.9868
X7.164Y-3.0868
X7.164Y-3.1868
X7.164Y-3.2868
X7.164Y-3.3868
X4.4646Y-3.5866
X4.5646Y-3.5866
X4.6646Y-3.5866
X4.7646Y-3.5866
X4.8646Y-3.5866
X4.9646Y-3.5866
X5.0646Y-3.5866
X5.1646Y-3.5866
X6.063Y-1.687
X6.163Y-1.687
X6.263Y-1.687
X6.363Y-1.687
X6.463Y-1.687
X6.563Y-1.687
X6.663Y-1.687
X6.763Y-1.687
X5.1634Y-1.687
X5.2634Y-1.687
X5.3634Y-1.687
X5.4634Y-1.687
X5.5634Y-1.687
X5.6634Y-1.687
X5.7634Y-1.687
X5.8634Y-1.687
X5.3622Y-3.5866
X5.4622Y-3.5866
X5.5622Y-3.5866
X5.6622Y-3.5866
X5.7622Y-3.5866
X5.8622Y-3.5866
X5.9622Y-3.5866
X6.0622Y-3.5866
X5.8705Y-2.4843
X5.8705Y-2.5843
X5.8705Y-2.6843
X5.9705Y-2.4843
X5.9705Y-2.5843
X5.9705Y-2.6843
X6.2638Y-3.5866
X6.3638Y-3.5866
X6.4638Y-3.5866
X6.5638Y-3.5866
X6.6638Y-3.5866
X6.7638Y-3.5866
X6.8638Y-3.5866
X6.9638Y-3.5866
X4.1043Y-1.687
X4.2043Y-1.687
X4.3043Y-1.687
X4.4043Y-1.687
X4.5043Y-1.687
X4.6043Y-1.687
X4.7043Y-1.687
X4.8043Y-1.687
X4.9043Y-1.687
X5.0043Y-1.687
T7
X3.0138Y-1.3937
X3.0138Y-1.4937
X3.0138Y-1.5937
X3.0138Y-1.6937
X3.1594Y-1.4437
X3.1594Y-1.5437
X3.1594Y-1.6437
X5.3337Y-0.6516
X5.3337Y-1.0516
X4.9567Y-0.6634
X4.9567Y-1.0634
X6.4921Y-0.6467
X6.4921Y-1.0467
X5.7205Y-0.6506
X5.7205Y-1.0506
X4.5541Y-0.6644
X4.5541Y-1.0644
X6.1132Y-0.6496
X6.1132Y-1.0496
T8
X6.2473Y-2.3196
X6.3473Y-2.3196
X6.4473Y-2.3196
X6.5473Y-2.3196
X6.6473Y-2.3196
X6.7473Y-2.3196
X5.6303Y-2.3126
X5.6303Y-2.4126
X5.6303Y-2.5126
X5.6303Y-2.6126
X5.6303Y-2.7126
X5.6303Y-2.8126
X5.6303Y-2.9126
X5.6303Y-3.0126
X6.2434Y-2.9672
X6.3434Y-2.9672
X6.4434Y-2.9672
X6.5434Y-2.9672
X6.6434Y-2.9672
X6.7434Y-2.9672
T9
X5.1506Y-0.2992
X5.3474Y-0.2992
X5.5443Y-0.2992
X5.7411Y-0.2992
X5.938Y-0.2992
X6.1348Y-0.2992
X6.3317Y-0.2992
X6.5285Y-0.2992
X2.4646Y-1.9193
X2.4646Y-2.1161
X2.4646Y-2.313
X2.4646Y-2.5098
X2.4626Y-3.1614
X2.4626Y-3.3583
X6.6663Y-4.4606
X6.8632Y-4.4606
X7.06Y-4.4606
X7.2569Y-4.4606
X7.4537Y-4.4606
X7.6506Y-4.4606
X7.8474Y-4.4606
X8.0443Y-4.4606
X3.122Y-0.2992
X3.3189Y-0.2992
X3.5157Y-0.2992
X3.7126Y-0.2992
X3.9094Y-0.2992
X4.1063Y-0.2992
X4.3031Y-0.2992
X4.5Y-0.2992
X4.6969Y-0.2992
X4.8937Y-0.2992
X3.4409Y-4.4557
X3.6378Y-4.4557
X3.8346Y-4.4557
X4.0315Y-4.4557
X4.2283Y-4.4557
X4.4252Y-4.4557
X4.622Y-4.4557
X4.8189Y-4.4557
X5.0571Y-4.4577
X5.2539Y-4.4577
X5.4508Y-4.4577
X5.6476Y-4.4577
X5.8445Y-4.4577
X6.0413Y-4.4577
X6.2382Y-4.4577
X6.435Y-4.4577
X6.7795Y-0.2992
X6.9764Y-0.2992
X7.1732Y-0.2992
X7.3701Y-0.2992
X7.5669Y-0.2992
X7.7638Y-0.2992
X7.9606Y-0.2992
X8.1575Y-0.2992
T10
X7.565Y-0.6315
X7.565Y-0.8315
X7.565Y-1.0315
X7.565Y-1.2315
X7.565Y-1.4315
X7.565Y-1.6315
X7.565Y-1.8315
X7.565Y-2.0315
X7.565Y-2.2315
X7.565Y-2.4315
X7.565Y-2.6315
X7.565Y-2.8315
X7.565Y-3.0315
X7.565Y-3.2315
X7.565Y-3.4315
X7.565Y-3.6315
X7.565Y-3.8315
X7.565Y-4.0315
X7.865Y-0.6315
X7.865Y-0.8315
X7.865Y-1.0315
X7.865Y-1.2315
X7.865Y-1.4315
X7.865Y-1.6315
X7.865Y-1.8315
X7.865Y-2.0315
X7.865Y-2.2315
X7.865Y-2.4315
X7.865Y-2.6315
X7.865Y-2.8315
X7.865Y-3.0315
X7.865Y-3.2315
X7.865Y-3.4315
X7.865Y-3.6315
X7.865Y-3.8315
X7.865Y-4.0315
X8.3484Y-0.6256
X8.3484Y-0.8256
X8.3484Y-1.0256
X8.3484Y-1.2256
X8.3484Y-1.4256
X8.3484Y-1.6256
X8.3484Y-1.8256
X8.3484Y-2.0256
X8.3484Y-2.2256
X8.3484Y-2.4256
X8.3484Y-2.6256
X8.3484Y-2.8256
X8.3484Y-3.0256
X8.3484Y-3.2256
X8.3484Y-3.4256
X8.3484Y-3.6256
X8.3484Y-3.8256
X8.3484Y-4.0256
X8.6484Y-0.6256
X8.6484Y-0.8256
X8.6484Y-1.0256
X8.6484Y-1.2256
X8.6484Y-1.4256
X8.6484Y-1.6256
X8.6484Y-1.8256
X8.6484Y-2.0256
X8.6484Y-2.2256
X8.6484Y-2.4256
X8.6484Y-2.6256
X8.6484Y-2.8256
X8.6484Y-3.0256
X8.6484Y-3.2256
X8.6484Y-3.4256
X8.6484Y-3.6256
X8.6484Y-3.8256
X8.6484Y-4.0256
T11
X3.3937Y-1.0315
X3.3937Y-2.0315
X3.374Y-2.875
X3.374Y-3.875
T12
X3.9144Y-3.5866
X3.9636Y-1.687
X5.9636Y-2.2874
X5.9646Y-3.3868
X6.9144Y-1.687
X7.1644Y-3.5876
T13
X6.2473Y-1.9396
X6.7573Y-1.9396
X4.9403Y-2.2926
X4.9403Y-3.0026
X6.2434Y-2.5872
X6.7534Y-2.5872
T0
M30
