M48
; DRILL file {KiCad (5.1.6)-1} date 08/31/20 13:11:57
; FORMAT={-:-/ absolute / inch / decimal}
; #@! TF.CreationDate,2020-08-31T13:11:57-04:00
; #@! TF.GenerationSoftware,Kicad,Pcbnew,(5.1.6)-1
FMAT,2
INCH
T1C0.0118
T2C0.0157
T3C0.0276
T4C0.0295
T5C0.0300
T6C0.0315
T7C0.0394
T8C0.0400
T9C0.0402
T10C0.0433
T11C0.0472
T12C0.0488
T13C0.0512
T14C0.0630
T15C0.1051
T16C0.1260
T17C0.1260
%
G90
G05
T1
X5.682Y-1.93
X5.71Y-2.25
X5.762Y-2.203
X5.764Y-2.406
X5.8Y-2.35
X5.8576Y-1.9044
X5.892Y-2.406
X5.893Y-2.206
X5.894Y-2.295
X5.894Y-2.494
X5.913Y-1.931
X6.634Y-1.371
T2
X-2.715Y-0.007
X5.606Y-2.144
X5.6421Y-2.2951
X5.6421Y-2.4539
X5.727Y-2.351
X5.727Y-2.448
X5.742Y-2.003
X5.8776Y-2.2494
X5.968Y-2.007
X5.977Y-2.248
X5.997Y-2.168
X6.2867Y-2.0007
X7.377Y-2.506
T3
X4.988Y-0.589
X4.988Y-0.889
X4.745Y-0.591
X4.745Y-0.891
X4.493Y-0.594
X4.493Y-0.894
X5.222Y-0.589
X5.222Y-0.889
X5.8701Y-2.8465
X5.8701Y-3.1465
X6.3Y-1.9
X6.6Y-1.9
X2.653Y-1.349
X2.953Y-1.349
X5.9764Y-2.8465
X5.9764Y-3.1465
T4
X6.117Y-1.626
T5
X6.075Y-2.095
X6.075Y-2.395
X6.175Y-2.095
X6.175Y-2.395
X6.275Y-2.095
X6.275Y-2.395
X6.375Y-2.095
X6.375Y-2.395
T6
X4.98Y-3.872
X4.98Y-4.172
X3.951Y-0.202
X3.951Y-0.602
X6.2Y-1.75
X6.6Y-1.75
X5.193Y-4.927
X5.193Y-5.327
X5.186Y-3.872
X5.186Y-4.172
X4.568Y-3.873
X4.568Y-4.173
X4.147Y-0.202
X4.147Y-0.602
X5.586Y-4.923
X5.586Y-5.323
X4.343Y-0.708
X4.343Y-1.008
X4.211Y-4.935
X4.211Y-5.335
X3.752Y-0.706
X3.752Y-1.006
X6.5823Y-2.3145
X6.9823Y-2.3145
X4.541Y-0.2
X4.541Y-0.3
X4.541Y-0.4
X4.601Y-4.934
X4.601Y-5.334
X4.876Y-3.872
X4.876Y-4.172
X4.147Y-0.708
X4.147Y-1.008
X3.754Y-0.202
X3.754Y-0.602
X5.132Y-0.199
X5.132Y-0.299
X5.132Y-0.399
X4.993Y-4.926
X4.993Y-5.326
X5.082Y-3.871
X5.082Y-4.171
X4.344Y-0.202
X4.344Y-0.602
X5.389Y-4.927
X5.389Y-5.327
X3.951Y-0.707
X3.951Y-1.007
X5.288Y-3.871
X5.288Y-4.171
X4.67Y-3.873
X4.67Y-4.173
X6.5823Y-2.155
X6.9823Y-2.155
X4.739Y-0.199
X4.739Y-0.299
X4.739Y-0.399
X4.402Y-4.934
X4.402Y-5.334
X4.774Y-3.872
X4.774Y-4.172
X4.937Y-0.199
X4.937Y-0.299
X4.937Y-0.399
X4.797Y-4.93
X4.797Y-5.33
T7
X4.017Y-2.302
X4.117Y-2.302
X4.217Y-2.302
X4.317Y-2.302
X4.417Y-2.302
X5.45Y-2.1
X5.45Y-2.2
X5.45Y-2.3
X5.05Y-2.1
X5.05Y-2.2
X5.05Y-2.3
X5.459Y-1.886
X5.25Y-2.1
X5.25Y-2.2
X5.25Y-2.3
X4.85Y-2.1
X4.85Y-2.2
X4.85Y-2.3
T8
X3.3168Y-2.6553
X3.4168Y-2.6553
X3.5168Y-2.6553
X3.6168Y-2.6553
X3.6768Y-4.5553
X3.7168Y-2.6553
X3.7768Y-4.5553
X3.8168Y-2.6553
X3.8768Y-4.5553
X3.9168Y-2.6553
X3.9768Y-4.5553
X4.0168Y-2.6553
X4.0768Y-4.5553
X4.1168Y-2.6553
X4.1768Y-4.5553
X4.2168Y-2.6553
X4.2768Y-4.5553
X4.3768Y-2.6553
X4.3768Y-4.5553
X4.4768Y-2.6553
X4.5768Y-2.6553
X4.5768Y-4.5553
X4.6768Y-2.6553
X4.6768Y-4.5553
X4.7768Y-2.6553
X4.7768Y-4.5553
X4.8768Y-2.6553
X4.8768Y-4.5553
X4.9768Y-2.6553
X4.9768Y-4.5553
X5.0768Y-2.6553
X5.0768Y-4.5553
X5.0818Y-3.4553
X5.0818Y-3.5553
X5.0818Y-3.6553
X5.1768Y-4.5553
X5.1818Y-3.4553
X5.1818Y-3.5553
X5.1818Y-3.6553
X5.2768Y-2.6553
X5.2768Y-4.5553
X5.3768Y-2.6553
X5.4768Y-2.6553
X5.4768Y-4.5553
X5.5768Y-2.6553
X5.5768Y-4.5553
X5.6768Y-2.6553
X5.6768Y-4.5553
X5.7768Y-2.6553
X5.7768Y-4.5553
X5.8768Y-2.6553
X5.8768Y-4.5553
X5.9768Y-2.6553
X5.9768Y-4.5553
X6.0768Y-4.5553
X6.1768Y-4.5553
X6.2768Y-2.6553
X6.2768Y-2.7553
X6.2768Y-2.8553
X6.2768Y-2.9553
X6.2768Y-3.0553
X6.2768Y-3.1553
X6.2768Y-3.2553
X6.2768Y-3.3553
X6.2768Y-3.4553
X6.2768Y-3.5553
X6.2768Y-3.6553
X6.2768Y-3.7553
X6.2768Y-3.8553
X6.2768Y-3.9553
X6.2768Y-4.0553
X6.2768Y-4.1553
X6.2768Y-4.2553
X6.2768Y-4.3553
X6.3768Y-2.6553
X6.3768Y-2.7553
X6.3768Y-2.8553
X6.3768Y-2.9553
X6.3768Y-3.0553
X6.3768Y-3.1553
X6.3768Y-3.2553
X6.3768Y-3.3553
X6.3768Y-3.4553
X6.3768Y-3.5553
X6.3768Y-3.6553
X6.3768Y-3.7553
X6.3768Y-3.8553
X6.3768Y-3.9553
X6.3768Y-4.0553
X6.3768Y-4.1553
X6.3768Y-4.2553
X6.3768Y-4.3553
X2.4Y-1.15
X2.4Y-1.25
X2.4Y-1.35
T9
X6.276Y-2.655
X6.276Y-2.755
X6.276Y-2.855
X6.276Y-2.955
X6.276Y-3.055
X6.276Y-3.155
X6.276Y-3.255
X6.276Y-3.355
X6.276Y-3.455
X6.276Y-3.555
X6.276Y-3.655
X6.276Y-3.755
X6.276Y-3.855
X6.276Y-3.955
X6.276Y-4.055
X6.276Y-4.155
X6.276Y-4.255
X6.276Y-4.355
X6.376Y-2.655
X6.376Y-2.755
X6.376Y-2.855
X6.376Y-2.955
X6.376Y-3.055
X6.376Y-3.155
X6.376Y-3.255
X6.376Y-3.355
X6.376Y-3.455
X6.376Y-3.555
X6.376Y-3.655
X6.376Y-3.755
X6.376Y-3.855
X6.376Y-3.955
X6.376Y-4.055
X6.376Y-4.155
X6.376Y-4.255
X6.376Y-4.355
X4.576Y-4.555
X4.676Y-4.555
X4.776Y-4.555
X4.876Y-4.555
X4.976Y-4.555
X5.076Y-4.555
X5.176Y-4.555
X5.276Y-4.555
X5.277Y-2.655
X5.377Y-2.655
X5.477Y-2.655
X5.577Y-2.655
X5.677Y-2.655
X5.777Y-2.655
X5.877Y-2.655
X5.977Y-2.655
X3.677Y-4.555
X3.777Y-4.555
X3.877Y-4.555
X3.977Y-4.555
X4.077Y-4.555
X4.177Y-4.555
X4.277Y-4.555
X4.377Y-4.555
X5.477Y-4.555
X5.577Y-4.555
X5.677Y-4.555
X5.777Y-4.555
X5.877Y-4.555
X5.977Y-4.555
X6.077Y-4.555
X6.177Y-4.555
X4.377Y-2.655
X4.477Y-2.655
X4.577Y-2.655
X4.677Y-2.655
X4.777Y-2.655
X4.877Y-2.655
X4.977Y-2.655
X5.077Y-2.655
X5.082Y-3.456
X5.082Y-3.556
X5.082Y-3.656
X5.182Y-3.456
X5.182Y-3.556
X5.182Y-3.656
X3.317Y-2.655
X3.417Y-2.655
X3.517Y-2.655
X3.617Y-2.655
X3.717Y-2.655
X3.817Y-2.655
X3.917Y-2.655
X4.017Y-2.655
X4.117Y-2.655
X4.217Y-2.655
T10
X5.104Y-0.608
X5.104Y-1.008
X6.25Y-0.7
X6.3Y-0.8457
X6.35Y-0.7
X6.4Y-0.8457
X6.45Y-0.7
X6.5Y-0.8457
X6.55Y-0.7
X4.62Y-0.608
X4.62Y-1.008
X5.347Y-0.608
X5.347Y-1.008
X4.865Y-0.608
X4.865Y-1.008
T11
X1.8Y-2.3031
X1.8Y-2.5
X4.505Y-1.612
X4.7019Y-1.612
T12
X1.0Y-4.15
X1.0Y-4.25
X1.0Y-4.35
X0.95Y-2.3
X0.95Y-2.4
X0.95Y-2.5
T13
X5.987Y-5.574
X6.1839Y-5.574
X6.3807Y-5.574
X6.5776Y-5.574
X6.7744Y-5.574
X6.9713Y-5.574
X7.1681Y-5.574
X7.365Y-5.574
X3.754Y0.149
X3.9509Y0.149
X4.1477Y0.149
X4.3446Y0.149
X4.5414Y0.149
X4.7383Y0.149
X4.9351Y0.149
X5.132Y0.149
X4.207Y-5.588
X4.4039Y-5.588
X4.6007Y-5.588
X4.7976Y-5.588
X4.9944Y-5.588
X5.1913Y-5.588
X5.3881Y-5.588
X5.585Y-5.588
X5.485Y0.141
X5.6819Y0.141
X5.8787Y0.141
X6.0756Y0.141
X6.2724Y0.141
X6.4693Y0.141
X6.6661Y0.141
X6.863Y0.141
X2.85Y0.124
X3.0469Y0.124
X2.427Y-5.589
X2.6239Y-5.589
X2.8207Y-5.589
X3.0176Y-5.589
X3.2144Y-5.589
X3.4113Y-5.589
X3.6081Y-5.589
X3.805Y-5.589
X0.783Y0.189
X0.983Y0.189
X1.183Y0.189
X1.907Y0.158
X2.107Y0.158
X2.307Y0.158
T14
X1.25Y-0.5626
X1.25Y-1.35
X3.2906Y-1.8
X4.078Y-1.8
X0.65Y-0.5626
X0.65Y-1.35
X3.2986Y-1.364
X4.086Y-1.364
T15
X0.8Y-1.9
X0.8Y-2.9
X2.255Y-0.75
X2.255Y-1.75
X5.905Y-1.075
X6.905Y-1.075
X0.85Y-3.75
X0.85Y-4.75
T16
X0.16Y0.25
X0.16Y-2.79
X0.16Y-5.74
X3.41Y0.25
X4.01Y-5.75
X7.55Y0.25
X7.58Y-2.8
X7.58Y-5.75
T17
X3.1268Y-4.5553
X3.1768Y-2.6553
X5.1768Y-3.2553
X5.1768Y-4.3553
X6.1268Y-2.6553
X6.3768Y-4.5553
T0
M30
